<svg width="128" height="126" viewBox="0 0 128 126" fill="none" xmlns="http://www.w3.org/2000/svg">
<path fill-rule="evenodd" clip-rule="evenodd" d="M64.2904 0C99.432 0 127.92 28.1092 127.92 62.7836C127.92 97.458 99.432 125.567 64.2904 125.567C29.149 125.567 0.661133 97.458 0.661133 62.7836C0.661133 28.1092 29.149 0 64.2904 0ZM61.9903 4.69805C54.7318 5.70605 47.8199 11.4614 42.4541 21.0871C40.8977 23.8792 39.4933 26.9638 38.2696 30.2946C45.5654 28.4853 53.5797 27.4189 61.9903 27.254V4.69805ZM32.8919 31.8025C34.4137 27.0898 36.2753 22.754 38.4238 18.8999C41.0837 14.1281 44.2403 10.0076 47.7966 6.84269C28.457 12.3848 13.2127 27.4263 7.59599 46.5092C10.8034 42.9998 14.9796 39.8852 19.8157 37.2608C23.7217 35.1409 28.1158 33.3038 32.8919 31.8025ZM31.3635 37.1084C29.5303 44.3074 28.4494 52.2153 28.2822 60.5142H5.42247C6.44405 53.3515 12.2769 46.5316 22.0323 41.2377C24.862 39.7018 27.9882 38.3161 31.3635 37.1084ZM32.8831 60.5142C33.073 51.4574 34.3942 42.9546 36.5804 35.442C44.1944 33.2848 52.8123 31.9808 61.9903 31.7933V41.5968C58.5662 50.2461 51.5823 57.137 42.8158 60.5142H32.8831ZM28.2822 65.053H5.42247C6.44405 72.2156 12.2769 79.0353 22.0323 84.3295C24.862 85.8653 27.9882 87.2508 31.3635 88.4587C29.5303 81.2598 28.4494 73.3519 28.2822 65.053ZM36.5804 90.1254C34.3942 82.6126 33.073 74.1097 32.8831 65.053H42.8158C51.5823 68.4302 58.5667 75.3211 61.9903 83.9707V93.7741C52.8123 93.5866 44.1944 92.2821 36.5804 90.1254ZM32.8919 93.7649C28.1158 92.2634 23.7217 90.4262 19.8157 88.3066C14.9796 85.6823 10.8034 82.5671 7.59599 79.0579C13.2127 98.1408 28.457 113.182 47.7966 118.724C44.2403 115.559 41.0837 111.439 38.4238 106.667C36.2753 102.813 34.4137 98.4776 32.8919 93.7649ZM61.9903 120.869C54.7318 119.861 47.8199 114.106 42.4541 104.48C40.8977 101.688 39.4933 98.6032 38.2696 95.2726C45.5654 97.0818 53.5797 98.148 61.9903 98.3132V120.869ZM80.7841 118.724C84.3404 115.559 87.4976 111.439 90.1572 106.667C92.3055 102.813 94.1673 98.4776 95.6891 93.7649C100.465 92.2634 104.859 90.4262 108.765 88.3066C113.601 85.6823 117.778 82.5671 120.985 79.0579C115.368 98.1408 100.124 113.182 80.7841 118.724ZM90.3114 95.2726C89.0871 98.6032 87.683 101.688 86.1266 104.48C80.7617 114.106 73.8494 119.861 66.5904 120.869V98.3132C75.0013 98.148 83.0156 97.0818 90.3114 95.2726ZM97.2172 88.4587C100.592 87.2508 103.719 85.8653 106.549 84.3295C116.304 79.0353 122.137 72.2156 123.158 65.053H100.299C100.131 73.3519 99.0507 81.2598 97.2172 88.4587ZM95.6982 65.053C95.5085 74.1097 94.1862 82.6126 92.0006 90.1254C84.3866 92.2821 75.769 93.5866 66.5904 93.7741V83.9779C70.0131 75.325 76.9987 68.4313 85.7677 65.053H95.6982ZM100.299 60.5142H123.158C122.137 53.3515 116.304 46.5316 106.549 41.2377C103.719 39.7018 100.592 38.3161 97.2172 37.1084C99.0507 44.3074 100.131 52.2153 100.299 60.5142ZM92.0006 35.442C94.1862 42.9546 95.5085 51.4574 95.6982 60.5142H85.7677C76.9987 57.1359 70.0131 50.2422 66.5904 41.5895V31.7933C75.769 31.9808 84.3866 33.2848 92.0006 35.442ZM95.6891 31.8025C100.465 33.3038 104.859 35.1409 108.765 37.2608C113.601 39.8852 117.778 42.9998 120.985 46.5092C115.368 27.4263 100.124 12.3848 80.7841 6.84269C84.3404 10.0076 87.4976 14.1281 90.1572 18.8999C92.3055 22.754 94.1673 27.0898 95.6891 31.8025ZM66.5904 4.69805C73.8494 5.70605 80.7617 11.4614 86.1266 21.0871C87.683 23.8792 89.0871 26.9638 90.3114 30.2946C83.0156 28.4853 75.0013 27.4189 66.5904 27.254V4.69805Z" fill="#0B3B2D"/>
</svg>
