<?xml version="1.0" standalone="no"?>
<!DOCTYPE svg PUBLIC "-//W3C//DTD SVG 20010904//EN"
 "http://www.w3.org/TR/2001/REC-SVG-20010904/DTD/svg10.dtd">
<svg version="1.0" xmlns="http://www.w3.org/2000/svg"
 width="276.000000pt" height="183.000000pt" viewBox="0 0 276.000000 183.000000"
 preserveAspectRatio="xMidYMid meet">

<g transform="translate(0.000000,183.000000) scale(0.100000,-0.100000)"
fill="#000000" stroke="none">
<path d="M0 1635 l0 -195 39 0 c37 0 39 -2 45 -37 3 -21 6 -57 6 -79 l0 -42
-45 6 -45 5 0 -442 c0 -242 4 -441 8 -441 4 0 13 5 20 12 9 9 12 9 12 0 0 -7
-5 -12 -11 -12 -5 0 -7 -5 -3 -11 4 -8 12 -3 20 12 12 22 13 22 14 4 1 -18 2
-18 10 3 5 12 14 22 20 22 5 0 11 15 11 33 2 32 2 32 6 3 6 -36 28 -60 49 -52
8 3 12 2 9 -4 -3 -6 -13 -10 -21 -10 -8 0 -13 -4 -10 -9 7 -11 -33 -38 -65
-43 -15 -2 -24 -9 -23 -19 1 -11 -5 -15 -17 -12 -23 6 -31 -24 -27 -93 l3 -49
42 0 c23 0 40 2 37 6 -8 13 36 17 133 12 162 -7 202 -4 227 16 13 11 24 10 63
-2 26 -9 129 -37 228 -62 99 -26 196 -52 215 -58 41 -13 66 -17 100 -18 17 -1
19 -3 8 -6 -13 -3 -18 -15 -18 -39 l0 -34 310 1 c171 1 309 3 307 6 -9 9 -230
51 -243 46 -8 -3 -14 0 -14 6 0 6 -10 10 -22 8 -18 -1 -22 2 -20 17 2 10 -2
23 -10 27 -8 6 -9 9 -1 9 6 0 11 15 10 35 -1 19 1 37 4 40 3 3 40 2 82 -3 72
-8 118 -2 86 11 -10 4 -10 6 -1 6 6 1 12 6 12 12 0 6 -9 8 -22 4 -19 -5 -20
-4 -7 4 9 6 35 9 58 7 22 -2 59 0 80 4 25 4 44 3 52 -4 8 -8 13 -8 16 1 3 7
24 10 61 8 43 -3 49 -2 22 4 l-35 7 49 5 c36 3 53 0 64 -11 14 -13 15 -13 10
8 -11 39 6 23 51 -50 l44 -71 111 6 c61 4 163 10 226 13 111 7 114 7 100 -11
-14 -17 -13 -18 8 -13 15 4 22 2 19 -5 -2 -7 3 -20 12 -30 15 -17 14 -18 -12
-12 -17 5 -33 2 -42 -5 -18 -15 -69 -5 -59 12 5 8 0 9 -17 5 -13 -4 -27 -7
-30 -7 -4 0 -9 -14 -13 -31 -10 -54 3 -59 138 -59 l121 1 -24 19 c-15 14 -40
21 -75 22 -50 1 -50 2 -8 5 23 2 42 8 42 14 0 5 9 9 20 9 11 0 20 6 20 14 0 8
6 21 14 29 12 12 29 12 113 1 54 -7 101 -13 106 -14 4 0 7 389 7 865 l0 865
-1380 0 -1380 0 0 -195z m1740 -110 c-7 -9 -15 -13 -17 -11 -7 7 7 26 19 26 6
0 6 -6 -2 -15z m20 -35 c0 -5 -2 -10 -4 -10 -3 0 -8 5 -11 10 -3 6 -1 10 4 10
6 0 11 -4 11 -10z m-190 -10 c13 -9 13 -11 0 -20 -21 -13 -83 -13 -75 1 6 9
40 27 55 28 3 0 12 -4 20 -9z m200 -34 c-5 -14 -17 -29 -25 -32 -8 -4 -15 -15
-15 -25 0 -10 -3 -19 -7 -19 -5 0 -8 23 -9 50 0 43 2 49 16 45 10 -3 23 2 31
11 17 21 23 5 9 -30z m-136 -51 c-1 -22 -7 -41 -12 -43 -7 -2 -9 -15 -6 -31 4
-18 0 -32 -10 -40 -9 -7 -14 -16 -12 -20 2 -3 -14 -7 -36 -8 -31 -1 -38 2 -34
14 3 8 6 19 6 24 0 5 7 9 15 9 8 0 15 5 15 11 0 8 5 7 15 -1 9 -7 19 -10 23
-6 4 4 -1 13 -11 20 -22 17 -22 60 1 91 26 37 47 27 46 -20z m-74 -29 c0 -33
-35 -47 -58 -24 -20 20 -14 28 23 28 19 0 35 -2 35 -4z m-75 -36 c31 -32 28
-43 -17 -54 -25 -6 -28 -4 -28 19 0 14 -4 25 -9 25 -5 0 -12 7 -15 16 -5 14
-4 15 9 4 12 -10 15 -10 15 4 0 24 13 20 45 -14z m465 -65 c17 4 59 4 93 0 63
-8 61 -6 138 -94 11 -13 26 -53 34 -90 13 -65 29 -367 30 -552 0 -89 -2 -98
-27 -132 -48 -63 -162 -101 -268 -91 -36 3 -66 2 -73 -4 -19 -16 -182 -34
-296 -32 -110 1 -130 9 -131 53 0 20 -13 22 -32 4 -7 -8 -23 -19 -35 -25 -20
-11 -21 -10 -17 18 3 17 1 30 -5 30 -6 0 -11 -10 -11 -23 0 -12 -9 -28 -20
-35 -11 -7 -20 -18 -20 -25 0 -21 -47 -60 -64 -54 -28 11 -17 35 28 64 25 15
47 37 50 48 7 25 4 27 -27 16 -14 -6 -49 -8 -77 -6 -42 2 -48 1 -34 -9 13 -10
14 -17 5 -34 -13 -24 -49 -52 -68 -52 -18 0 -16 25 3 41 8 7 13 21 10 32 -3
13 0 17 10 13 8 -3 14 1 14 9 0 8 -6 15 -12 15 -7 1 -57 9 -110 19 -54 10 -98
16 -98 14 0 -3 21 -63 46 -133 41 -113 51 -172 26 -157 -6 5 -146 42 -490 134
-35 9 -66 22 -68 28 -4 8 -23 9 -70 2 -46 -7 -69 -6 -76 1 -8 8 -4 11 13 10
59 -4 119 3 119 13 0 6 -18 48 -40 94 -32 69 -44 84 -64 87 -20 2 -23 6 -15
18 8 11 12 12 16 3 2 -7 8 -13 13 -13 13 0 -1 39 -64 189 -31 74 -56 140 -56
146 0 16 270 28 500 23 126 -2 155 -6 155 -17 0 -21 -20 -24 -38 -6 -19 19
-28 19 -21 1 4 -11 0 -13 -15 -9 -19 5 -20 3 -13 -18 7 -19 18 -25 51 -27 30
-2 44 -9 52 -25 9 -20 9 -20 -4 -4 -17 21 -28 22 -21 3 4 -11 0 -13 -18 -9
-13 4 -26 11 -30 17 -17 25 -6 -32 19 -101 27 -73 28 -73 65 -73 20 0 39 -3
42 -8 2 -4 -13 -6 -35 -4 -24 3 -39 0 -39 -7 0 -6 14 -11 30 -11 17 0 30 -5
30 -11 0 -6 -8 -8 -19 -4 -11 3 -22 1 -26 -5 -8 -13 29 -13 53 -1 9 6 31 13
47 17 l30 7 -30 7 c-25 6 -22 8 22 9 50 1 60 5 143 62 8 5 26 15 40 22 19 10
24 20 22 39 -1 16 11 49 33 85 19 32 35 63 35 69 0 6 7 25 16 43 9 18 14 41
11 52 -3 10 -1 22 4 25 5 3 7 10 4 15 -4 5 0 9 8 9 24 0 40 52 26 83 -15 32
-29 35 -29 6 0 -13 4 -18 12 -13 7 5 8 3 3 -6 -6 -10 -11 -9 -22 5 -12 17 -13
17 -13 2 0 -9 -7 -17 -16 -17 -11 0 -15 6 -11 20 6 24 1 25 -19 6 -8 -9 -10
-16 -4 -19 6 -3 5 -4 -2 -3 -7 2 -13 11 -13 22 0 15 7 19 35 20 19 0 45 6 58
13 20 11 26 8 23 -11 -2 -15 19 -8 58 18 21 14 66 33 99 43 l60 19 6 -24 c6
-24 26 -34 26 -13 0 5 4 8 9 5 23 -14 74 8 93 40 18 30 22 32 41 22 14 -7 17
-13 9 -16 -6 -2 -12 -7 -12 -11 0 -11 64 0 72 12 4 6 10 44 14 85 l7 74 37
-37 c33 -32 42 -36 70 -30z m-346 -34 c11 -17 -5 -39 -35 -52 -25 -10 -33 -9
-45 3 -14 14 -12 16 16 21 17 4 29 11 26 16 -4 5 0 12 6 14 20 8 26 8 32 -2z
m-664 -11 c0 -5 -5 -10 -11 -10 -5 0 -7 5 -4 10 3 6 8 10 11 10 2 0 4 -4 4
-10z m-886 -49 c-9 -11 -21 13 -16 32 6 22 6 22 12 -3 4 -14 6 -27 4 -29z
m1153 7 c-3 -7 -5 -2 -5 12 0 14 2 19 5 13 2 -7 2 -19 0 -25z m-47 12 c0 -5
-2 -10 -4 -10 -3 0 -8 5 -11 10 -3 6 -1 10 4 10 6 0 11 -4 11 -10z m-50 -30
c0 -13 6 -20 18 -19 10 0 12 3 5 6 -16 6 -17 33 -2 33 5 0 8 -4 4 -9 -3 -5 -1
-12 5 -16 15 -9 2 -25 -21 -25 -11 0 -19 7 -19 18 0 13 -3 12 -13 -7 -10 -19
-21 -24 -64 -25 -29 -2 -50 1 -47 5 3 5 -4 14 -16 21 -11 7 -20 17 -20 22 0 4
6 3 13 -3 8 -6 18 -7 22 -3 5 4 5 2 1 -5 -3 -6 -2 -14 4 -18 5 -3 10 0 10 9 0
13 28 21 113 35 4 0 7 -8 7 -19z m-453 -97 c-2 -21 -4 -6 -4 32 0 39 2 55 4
38 2 -18 2 -50 0 -70z m-50 20 c-2 -16 -4 -5 -4 22 0 28 2 40 4 28 2 -13 2
-35 0 -50z m211 36 c12 -5 22 -10 22 -12 0 -6 -78 -57 -87 -57 -5 0 8 13 27
29 l34 29 -42 11 c-23 7 -42 14 -42 17 0 6 54 -4 88 -17z m-654 -15 c9 -8 16
-23 16 -31 0 -14 -2 -14 -18 0 -25 23 -32 21 -32 -7 0 -21 6 -25 33 -28 42 -4
42 -22 -1 -26 -29 -3 -34 1 -47 32 -23 53 -20 76 9 76 14 0 32 -7 40 -16z
m368 -27 c-7 -8 -9 -17 -5 -20 3 -4 1 -7 -5 -7 -15 0 -15 23 0 38 16 16 24 6
10 -11z m678 4 c0 -6 -4 -13 -10 -16 -5 -3 -10 1 -10 9 0 9 5 16 10 16 6 0 10
-4 10 -9z m-60 -11 c0 -5 -5 -10 -11 -10 -6 0 -9 -9 -6 -20 3 -11 1 -20 -4
-20 -5 0 -9 7 -9 15 0 22 -17 18 -23 -5 -8 -31 -53 -27 -59 5 -3 14 -1 25 3
25 5 0 9 -10 9 -22 0 -18 2 -20 9 -8 6 8 7 18 5 22 -3 4 0 8 5 8 6 0 11 -6 11
-12 0 -9 3 -10 8 -2 8 12 43 33 55 34 4 0 7 -4 7 -10z m79 -17 c0 -25 -1 -25
-8 -8 -5 11 -7 23 -4 28 8 14 13 7 12 -20z m-199 -38 c0 -5 -5 -3 -10 5 -5 8
-10 20 -10 25 0 6 5 3 10 -5 5 -8 10 -19 10 -25z m-113 -7 c-3 -7 -5 -2 -5 12
0 14 2 19 5 13 2 -7 2 -19 0 -25z m-137 12 c-8 -5 -10 -10 -3 -10 6 0 9 -9 6
-20 -7 -25 -33 -27 -34 -2 -1 16 -2 16 -6 0 -6 -22 -21 -26 -112 -30 -78 -3
-102 9 -56 30 14 6 25 7 25 2 0 -5 17 -3 39 5 37 13 38 12 34 -6 -4 -15 0 -19
21 -17 14 1 26 6 26 11 0 5 -7 7 -15 3 -8 -3 -15 0 -15 5 0 6 9 9 20 6 11 -3
23 -1 26 4 3 5 9 7 14 4 4 -3 10 2 14 10 3 8 11 15 18 15 9 0 8 -3 -2 -10z
m60 -34 c0 -14 -5 -28 -12 -32 -7 -4 -8 -3 -4 4 6 11 -6 16 -26 13 -10 -1 -10
23 -1 32 3 4 15 7 25 7 12 0 18 -7 18 -24z m400 -16 c0 -5 -4 -10 -10 -10 -5
0 -10 5 -10 10 0 6 5 10 10 10 6 0 10 -4 10 -10z m-115 -10 c5 -8 11 -8 20 0
9 8 14 6 19 -6 11 -28 7 -44 -11 -44 -15 0 -16 2 -3 10 8 5 11 13 6 17 -4 4
-13 0 -20 -10 -18 -23 -25 -22 -19 4 4 12 0 25 -8 30 -9 6 -10 9 -2 9 6 0 15
-5 18 -10z m65 0 c0 -5 -4 -10 -10 -10 -5 0 -10 5 -10 10 0 6 5 10 10 10 6 0
10 -4 10 -10z m116 -2 c4 -6 2 -14 -5 -16 -11 -4 -11 -6 0 -13 12 -7 12 -9 0
-9 -8 0 -20 8 -28 18 -14 16 -14 16 -9 0 3 -10 1 -18 -4 -18 -18 0 -11 38 8
43 29 8 31 7 38 -5z m-238 -14 c2 -1 -1 -11 -7 -21 -10 -17 -10 -17 -11 2 l-1
20 -9 -20 c-8 -19 -9 -19 -9 3 -1 13 -5 20 -11 17 -5 -3 -10 -1 -10 5 0 9 46
5 58 -6z m1243 -33 c-8 -13 -20 -19 -39 -18 -15 1 -26 6 -24 10 1 4 2 11 2 17
0 5 15 16 33 23 36 16 47 4 28 -32z m-1203 20 c-4 -18 -38 -28 -38 -11 0 6 5
8 12 4 7 -5 9 -2 6 8 -4 9 0 15 8 15 8 0 13 -7 12 -16z m-811 3 c-3 -3 -12 -4
-19 -1 -8 3 -5 6 6 6 11 1 17 -2 13 -5z m483 -14 c20 13 30 12 30 0 0 -5 -7
-10 -15 -10 -9 0 -18 -7 -21 -15 -7 -17 -40 -20 -50 -4 -4 8 -9 8 -17 0 -14
-14 -84 -14 -92 0 -11 17 1 21 64 20 33 0 63 4 67 10 4 8 8 8 13 1 4 -7 12 -8
21 -2z m77 -22 c-3 -7 -5 -2 -5 12 0 14 2 19 5 13 2 -7 2 -19 0 -25z m-434 15
c-7 -2 -21 -2 -30 0 -10 3 -4 5 12 5 17 0 24 -2 18 -5z m377 -23 c0 -5 -4 -10
-10 -10 -5 0 -10 5 -10 10 0 6 5 10 10 10 6 0 10 -4 10 -10z m244 -36 c9 -3
16 -16 17 -28 0 -21 0 -21 9 2 5 12 12 22 15 22 4 0 3 -4 0 -10 -3 -5 -1 -10
4 -10 6 0 11 5 11 10 0 21 38 10 42 -13 3 -17 0 -23 -13 -23 -10 0 -17 3 -16
6 2 6 -8 10 -25 10 -9 0 -8 -3 2 -10 11 -7 9 -9 -9 -7 -14 1 -26 9 -29 19 -2
10 -11 18 -18 18 -8 0 -14 5 -14 10 0 12 3 12 24 4z m136 -16 c0 -6 -6 -5 -15
2 -8 7 -15 14 -15 16 0 2 7 1 15 -2 8 -4 15 -11 15 -16z m100 1 c0 -5 -5 -7
-12 -3 -8 5 -9 2 -5 -9 3 -10 2 -17 -3 -17 -6 0 -10 8 -11 18 0 15 -1 14 -8
-2 -7 -19 -8 -19 -13 2 -5 19 -2 22 23 22 16 0 29 -5 29 -11z m-370 -9 c0 -5
-2 -10 -4 -10 -3 0 -8 5 -11 10 -3 6 -1 10 4 10 6 0 11 -4 11 -10z m300 -80
c0 -5 -5 -10 -11 -10 -6 0 -9 -9 -6 -20 3 -11 2 -20 -3 -20 -14 0 -20 44 -7
52 17 11 27 10 27 -2z m-53 -15 c-2 -5 -13 -11 -25 -13 -11 -2 -23 -11 -25
-20 -4 -13 -5 -11 -6 5 -1 16 -6 20 -21 16 -18 -5 -27 6 -16 18 9 9 96 3 93
-6z m8 -25 c3 -5 1 -10 -4 -10 -6 0 -11 5 -11 10 0 6 2 10 4 10 3 0 8 -4 11
-10z m-1052 -157 c-7 -2 -19 -2 -25 0 -7 3 -2 5 12 5 14 0 19 -2 13 -5z m102
-103 c3 -5 -3 -10 -15 -10 -12 0 -18 5 -15 10 3 6 10 10 15 10 5 0 12 -4 15
-10z m130 -19 c7 -12 -12 -24 -25 -16 -11 7 -4 25 10 25 5 0 11 -4 15 -9z
m-128 -7 c-3 -3 3 -15 14 -27 23 -25 24 -52 4 -91 -18 -33 -19 -39 -5 -31 12
8 13 -5 0 -25 -6 -9 -5 -17 3 -22 19 -12 -41 -9 -100 4 -29 7 -53 16 -53 20 0
10 1 10 49 -7 22 -8 41 -10 41 -5 0 4 -6 10 -12 13 -8 3 -3 9 12 15 14 6 19
11 12 11 -7 1 -10 6 -7 11 3 6 1 10 -6 10 -7 0 -5 9 6 26 9 14 15 27 13 28 -2
2 -12 8 -23 14 -11 6 -14 12 -7 12 7 0 11 4 7 9 -3 5 4 13 16 16 17 6 19 9 8
16 -10 6 -8 9 10 9 13 0 22 -3 18 -6z m-97 -124 c0 -5 -5 -10 -11 -10 -5 0 -7
5 -4 10 3 6 8 10 11 10 2 0 4 -4 4 -10z m-25 -20 c3 -5 1 -10 -4 -10 -6 0 -11
5 -11 10 0 6 2 10 4 10 3 0 8 -4 11 -10z m178 -37 c-7 -2 -19 -2 -25 0 -7 3
-2 5 12 5 14 0 19 -2 13 -5z m2185 -20 c-10 -2 -26 -2 -35 0 -10 3 -2 5 17 5
19 0 27 -2 18 -5z m-63 -13 c-3 -5 -14 -10 -23 -9 -14 0 -13 2 3 9 27 11 27
11 20 0z m73 -42 c7 -7 12 -17 12 -22 0 -8 -3 -8 -8 -1 -4 6 -18 16 -32 22
-22 10 -23 12 -4 12 11 1 25 -4 32 -11z m9 -60 c-3 -8 -6 -5 -6 6 -1 11 2 17
5 13 3 -3 4 -12 1 -19z m-1417 2 c0 -5 -5 -10 -11 -10 -5 0 -7 5 -4 10 3 6 8
10 11 10 2 0 4 -4 4 -10z m177 -36 c-3 -3 -12 -4 -19 -1 -8 3 -5 6 6 6 11 1
17 -2 13 -5z"/>
<path d="M2170 1131 c0 -11 -3 -27 -7 -37 -4 -11 -3 -15 4 -11 13 8 23 67 11
67 -4 0 -8 -9 -8 -19z"/>
<path d="M2191 1114 c0 -11 3 -14 6 -6 3 7 2 16 -1 19 -3 4 -6 -2 -5 -13z"/>
<path d="M1600 1085 c0 -8 4 -15 10 -15 5 0 7 7 4 15 -4 8 -8 15 -10 15 -2 0
-4 -7 -4 -15z"/>
<path d="M1842 1068 c-7 -7 -12 -19 -12 -27 0 -11 5 -8 16 7 18 25 15 39 -4
20z"/>
<path d="M1577 1053 c-4 -3 -7 -16 -6 -27 0 -19 1 -19 10 3 10 24 8 36 -4 24z"/>
<path d="M1600 1041 c0 -11 4 -22 9 -25 5 -3 9 6 9 19 0 14 -4 25 -9 25 -5 0
-9 -9 -9 -19z"/>
<path d="M1690 1051 c0 -5 7 -11 14 -14 10 -4 13 -1 9 9 -6 15 -23 19 -23 5z"/>
<path d="M1981 1044 c0 -11 3 -14 6 -6 3 7 2 16 -1 19 -3 4 -6 -2 -5 -13z"/>
<path d="M2190 1044 c0 -17 -21 -57 -74 -143 -11 -18 8 -6 45 27 31 27 56 109
40 125 -8 8 -11 5 -11 -9z"/>
<path d="M1961 914 c0 -11 3 -14 6 -6 3 7 2 16 -1 19 -3 4 -6 -2 -5 -13z"/>
<path d="M865 810 c3 -5 8 -10 11 -10 2 0 4 5 4 10 0 6 -5 10 -11 10 -5 0 -7
-4 -4 -10z"/>
<path d="M1912 780 c0 -14 2 -19 5 -12 2 6 2 18 0 25 -3 6 -5 1 -5 -13z"/>
<path d="M2210 711 c0 -25 6 -27 13 -6 4 8 2 17 -3 20 -6 4 -10 -3 -10 -14z"/>
<path d="M1365 670 c-3 -5 -1 -10 4 -10 6 0 11 5 11 10 0 6 -2 10 -4 10 -3 0
-8 -4 -11 -10z"/>
<path d="M1300 545 c7 -8 24 -15 39 -15 25 1 25 1 -8 15 -42 19 -47 19 -31 0z"/>
<path d="M1300 500 c36 -12 60 -12 60 0 0 6 -19 10 -42 9 -37 -1 -39 -2 -18
-9z"/>
<path d="M1551 494 c0 -11 3 -14 6 -6 3 7 2 16 -1 19 -3 4 -6 -2 -5 -13z"/>
<path d="M915 463 c3 -8 5 -18 5 -23 0 -11 60 -19 66 -9 7 12 -31 42 -56 44
-14 1 -19 -3 -15 -12z"/>
<path d="M1323 463 c9 -2 23 -2 30 0 6 3 -1 5 -18 5 -16 0 -22 -2 -12 -5z"/>
<path d="M1235 430 c3 -5 24 -10 45 -10 21 0 42 5 45 10 4 6 -13 10 -45 10
-32 0 -49 -4 -45 -10z"/>
<path d="M1138 413 c6 -2 18 -2 25 0 6 3 1 5 -13 5 -14 0 -19 -2 -12 -5z"/>
<path d="M931 406 c4 -4 26 -9 50 -11 24 -3 60 -7 79 -10 24 -4 30 -2 20 4
-18 11 -158 27 -149 17z"/>
<path d="M1120 380 c20 -13 73 -13 65 0 -3 6 -23 10 -43 10 -28 0 -33 -3 -22
-10z"/>
<path d="M1385 360 c-3 -5 1 -10 9 -10 8 0 18 5 21 10 3 6 -1 10 -9 10 -8 0
-18 -4 -21 -10z"/>
<path d="M1965 340 c-14 -5 -5 -8 33 -11 28 -2 52 -1 52 4 0 4 -3 8 -7 8 -38
6 -61 6 -78 -1z"/>
<path d="M1031 1144 c0 -11 3 -14 6 -6 3 7 2 16 -1 19 -3 4 -6 -2 -5 -13z"/>
<path d="M1051 1144 c0 -11 3 -14 6 -6 3 7 2 16 -1 19 -3 4 -6 -2 -5 -13z"/>
<path d="M1071 1144 c0 -11 3 -14 6 -6 3 7 2 16 -1 19 -3 4 -6 -2 -5 -13z"/>
<path d="M1000 1140 c0 -5 5 -10 10 -10 6 0 10 5 10 10 0 6 -4 10 -10 10 -5 0
-10 -4 -10 -10z"/>
<path d="M815 990 c3 -5 8 -10 11 -10 2 0 4 5 4 10 0 6 -5 10 -11 10 -5 0 -7
-4 -4 -10z"/>
<path d="M1115 830 c3 -5 8 -10 11 -10 2 0 4 5 4 10 0 6 -5 10 -11 10 -5 0 -7
-4 -4 -10z"/>
<path d="M205 340 c3 -5 8 -10 11 -10 2 0 4 5 4 10 0 6 -5 10 -11 10 -5 0 -7
-4 -4 -10z"/>
<path d="M10 1406 c0 -9 30 -14 35 -6 4 6 -3 10 -14 10 -12 0 -21 -2 -21 -4z"/>
<path d="M1 388 c-1 -10 1 -18 3 -18 2 0 11 -3 20 -6 9 -3 16 -1 16 5 0 6 -6
11 -14 11 -8 0 -17 6 -19 13 -3 7 -6 5 -6 -5z"/>
<path d="M240 181 c0 -5 21 -11 46 -13 46 -3 67 5 38 16 -24 9 -84 7 -84 -3z"/>
<path d="M1737 177 c-21 -8 -27 -16 -23 -31 4 -14 2 -16 -7 -7 -17 17 -26 13
-20 -8 3 -10 0 -22 -6 -25 -6 -4 -11 -12 -11 -17 0 -6 5 -7 12 -3 8 5 9 2 5
-9 -3 -10 -3 -17 2 -17 13 0 32 26 24 33 -3 4 -1 7 5 7 7 0 12 -4 12 -9 0 -10
89 -26 97 -17 3 3 -6 10 -21 16 -15 5 -24 15 -21 21 4 6 13 8 21 5 8 -3 23 0
33 6 15 9 32 9 75 -1 31 -7 56 -16 56 -21 0 -4 9 -10 20 -13 50 -13 5 -57 -77
-76 -36 -8 -34 -9 25 -10 83 -1 98 7 97 55 0 35 -4 41 -41 61 -23 13 -70 28
-105 33 -133 22 -132 22 -118 31 19 12 0 9 -34 -4z"/>
</g>
</svg>
