<?xml version="1.0" standalone="no"?>
<!DOCTYPE svg PUBLIC "-//W3C//DTD SVG 20010904//EN"
 "http://www.w3.org/TR/2001/REC-SVG-20010904/DTD/svg10.dtd">
<svg version="1.0" xmlns="http://www.w3.org/2000/svg"
 width="275.000000pt" height="183.000000pt" viewBox="0 0 275.000000 183.000000"
 preserveAspectRatio="xMidYMid meet">

<g transform="translate(0.000000,183.000000) scale(0.100000,-0.100000)"
fill="#000000" stroke="none">
<path d="M0 1439 l0 -390 98 4 c55 2 114 10 137 19 38 15 41 19 52 74 12 56 4
196 -11 211 -3 3 -8 -14 -12 -38 -6 -33 -9 -39 -14 -24 -4 11 -6 23 -3 28 2 4
-9 7 -26 7 -16 0 -33 5 -36 10 -3 6 0 10 9 10 8 0 24 12 35 28 12 15 18 19 15
10 -7 -21 8 -23 34 -7 13 8 17 20 14 40 -4 27 -22 42 -22 19 0 -5 -7 -10 -16
-10 -13 0 -14 3 -5 14 9 10 9 16 1 21 -6 4 -9 13 -6 20 3 8 0 16 -7 19 -7 2
-4 5 7 5 11 1 16 -4 13 -12 -2 -6 3 -19 11 -27 14 -13 15 -12 9 5 -5 11 -3 22
5 27 11 6 10 8 0 8 -7 0 -11 4 -8 8 2 4 -9 9 -27 10 -41 3 -42 5 -21 37 15 22
15 28 3 35 -7 5 -10 12 -7 15 15 15 29 -8 23 -38 -4 -22 -3 -28 3 -18 8 11 12
10 21 -5 10 -16 12 -15 8 14 -2 18 0 35 5 38 4 3 8 12 8 20 0 8 -5 12 -10 9
-6 -3 -10 0 -10 9 0 8 -3 23 -7 33 -6 16 -5 17 12 3 17 -14 18 -13 12 26 -8
49 0 59 62 73 24 5 47 13 50 18 3 4 15 8 25 8 11 0 21 6 24 13 3 9 -46 12
-222 12 l-226 0 0 -391z m193 304 c-7 -2 -19 -2 -25 0 -7 3 -2 5 12 5 14 0 19
-2 13 -5z m35 -98 c0 -16 -2 -15 -8 5 -4 14 -8 34 -8 45 0 16 2 15 8 -5 4 -14
8 -34 8 -45z"/>
<path d="M1266 1815 c4 -8 8 -15 10 -15 2 0 4 7 4 15 0 8 -4 15 -10 15 -5 0
-7 -7 -4 -15z"/>
<path d="M1325 1820 c3 -5 19 -10 36 -10 16 0 29 5 29 10 0 6 -16 10 -36 10
-21 0 -33 -4 -29 -10z"/>
<path d="M1650 1810 c0 -11 7 -23 15 -26 8 -4 15 -12 15 -20 0 -8 -7 -14 -15
-14 -18 0 -18 -4 -6 -47 8 -26 6 -32 -10 -36 -15 -4 -17 -11 -12 -41 4 -28 2
-36 -10 -36 -10 0 -16 -12 -19 -39 -2 -22 -1 -38 2 -36 3 2 12 0 19 -5 11 -6
9 -12 -8 -26 -11 -10 -21 -26 -21 -36 0 -12 -8 -18 -21 -18 -28 0 -59 -18 -59
-35 0 -7 16 -19 37 -25 l36 -13 -39 -14 c-22 -7 -57 -11 -79 -9 -22 3 -77 2
-123 -2 -76 -7 -84 -6 -94 11 -8 15 -7 18 3 12 9 -6 11 -3 6 9 -4 10 -7 20 -7
22 0 3 -4 3 -9 -1 -11 -6 -15 6 -35 100 -17 82 -39 136 -60 154 -19 16 -83 6
-108 -16 -25 -22 -43 -82 -29 -96 8 -8 11 -7 11 5 0 24 49 78 71 78 22 0 59
-34 59 -53 0 -8 -12 -19 -26 -25 -28 -13 -24 -32 7 -32 17 0 19 -5 15 -32 -5
-31 -17 -46 -62 -75 -15 -9 -16 -14 -6 -21 7 -5 15 -18 17 -28 2 -10 4 -21 5
-24 0 -3 7 4 15 14 12 16 15 16 15 4 0 -8 9 -23 21 -34 13 -12 19 -27 16 -41
-5 -29 12 -30 46 -3 30 24 43 25 51 4 9 -25 7 -64 -4 -64 -5 0 -33 9 -62 20
-29 11 -58 20 -64 20 -18 0 -168 -190 -158 -199 5 -5 41 -19 79 -31 39 -13 84
-31 100 -40 32 -17 73 -89 74 -128 1 -13 5 -21 10 -17 6 3 6 18 0 38 -18 64
-17 64 74 66 l82 1 -30 -25 c-16 -13 -33 -24 -36 -25 -4 0 -17 -25 -29 -55
-18 -45 -25 -53 -36 -44 -8 6 -11 15 -8 20 3 5 0 9 -6 9 -7 0 -9 -7 -6 -16 3
-8 -3 -25 -14 -36 -11 -12 -20 -27 -20 -34 0 -6 -7 -14 -15 -18 -12 -4 -15 3
-15 35 0 40 -1 41 -27 33 -16 -4 -44 -8 -63 -8 -19 -1 -38 -4 -41 -9 -3 -4
-27 0 -53 9 -26 9 -49 14 -51 12 -2 -2 -5 -25 -7 -51 -2 -36 -7 -47 -20 -47
-9 0 -20 -4 -23 -10 -3 -5 -22 -10 -42 -10 -34 0 -35 -1 -30 -32 2 -18 10 -77
17 -130 l13 -96 59 -4 c32 -2 58 0 58 5 0 4 6 7 14 7 17 0 20 7 36 92 15 74
26 79 35 15 3 -23 8 -51 9 -62 5 -29 52 -23 77 10 11 14 29 30 39 35 17 9 18
8 4 -20 -9 -16 -17 -41 -18 -55 -1 -14 -6 -28 -9 -32 -4 -3 -7 -17 -7 -30 0
-15 -6 -23 -17 -23 -10 0 -25 -5 -33 -10 -13 -8 -12 -11 5 -24 17 -13 18 -15
4 -21 -9 -3 -45 -5 -80 -3 l-64 3 3 50 c2 56 -10 48 -28 -17 -9 -31 -17 -39
-48 -48 -47 -13 -169 -13 -177 0 -3 6 -25 9 -48 8 l-42 -1 45 -7 45 -7 -43 -1
c-36 -2 -45 2 -49 18 -3 11 -9 20 -13 20 -10 0 -35 -89 -27 -96 3 -4 49 -1
101 5 143 17 156 16 156 -13 0 -25 0 -25 -108 -24 -115 0 -152 -11 -152 -45 0
-15 5 -18 25 -13 14 4 45 9 69 12 32 5 43 10 39 20 -3 8 1 14 11 14 9 0 16 -4
16 -10 0 -5 6 -7 14 -4 7 3 16 -1 18 -8 4 -10 36 -12 149 -7 79 3 152 3 162 1
24 -6 47 -53 47 -97 0 -34 1 -35 40 -35 22 0 40 3 40 8 -1 4 -19 27 -40 52
-51 58 -43 66 82 79 154 17 141 23 133 -64 l-7 -75 300 0 301 0 -6 35 c-6 39
1 43 36 19 16 -12 20 -19 12 -27 -6 -6 -11 -15 -11 -19 0 -4 165 -8 366 -8
l366 0 -7 93 c-4 50 -6 136 -5 189 1 80 -3 104 -19 137 -12 22 -21 55 -21 73
0 18 -5 49 -11 68 -16 52 -30 118 -37 184 l-7 59 -18 -45 c-18 -44 -19 -44
-82 -55 -78 -13 -125 -45 -125 -85 0 -26 10 -39 54 -76 9 -7 16 -20 16 -30 0
-11 -3 -13 -8 -6 -4 6 -24 14 -44 18 -21 4 -38 11 -38 17 0 5 -8 4 -19 -3 -25
-15 -80 7 -91 38 -8 20 -14 22 -47 17 -46 -7 -50 -10 -35 -25 8 -8 15 -8 25 1
8 6 22 8 31 5 16 -6 16 -8 0 -25 -14 -15 -20 -17 -27 -7 -6 10 -7 8 -4 -4 5
-15 -30 -58 -89 -110 -36 -32 -43 -46 -47 -100 -3 -33 0 -63 9 -80 8 -15 14
-29 14 -33 0 -9 -49 -5 -55 5 -14 22 -42 9 -55 -25 -8 -19 -17 -35 -22 -35 -4
0 -9 48 -10 108 -4 209 -4 204 -23 214 -12 8 -20 7 -25 -3 -33 -58 -56 -89
-68 -94 -26 -10 -24 2 6 36 39 45 61 178 39 232 -19 45 -59 75 -113 83 l-45 6
3 97 3 96 95 6 95 5 -92 2 c-97 2 -99 3 -87 50 6 20 12 22 85 22 l79 0 0 31 0
32 -75 -6 c-42 -3 -77 -1 -80 4 -4 5 26 9 69 9 83 0 86 3 67 66 -24 79 -33
145 -27 198 6 47 11 56 27 56 18 0 19 -5 15 -52 -3 -29 -3 -47 0 -40 8 17 41
15 48 -3 3 -8 17 -15 32 -15 l26 0 -6 -62 c-8 -65 -9 -139 -3 -144 2 -2 54 -1
115 3 l112 6 0 89 c0 61 4 88 12 88 6 0 3 6 -7 14 -16 11 -17 22 -12 92 4 43
4 160 0 261 l-6 183 -294 0 c-288 0 -293 0 -293 -20z m101 -370 c7 -8 23 -27
37 -42 23 -25 23 -28 9 -60 -17 -37 -27 -108 -30 -210 -1 -36 -5 -64 -8 -62
-9 5 -39 -89 -39 -123 0 -16 -5 -34 -10 -39 -7 -7 -6 -29 1 -66 10 -47 9 -60
-4 -78 -15 -22 -16 -22 -36 18 -16 32 -25 39 -41 35 -11 -3 -20 0 -20 6 0 19
-72 91 -91 91 -11 0 -19 4 -19 10 0 5 33 11 73 13 39 1 -12 4 -115 5 l-188 2
10 25 c5 14 7 30 5 37 -4 10 34 13 177 11 189 -2 208 1 208 40 0 20 -4 20
-172 14 -113 -4 -168 -3 -158 3 8 5 86 10 172 10 l157 0 12 43 c14 52 16 134
5 207 -5 38 -4 64 5 85 7 17 11 34 10 39 -1 5 1 16 4 25 6 14 8 13 20 -4 8
-11 20 -27 26 -35z m-311 -225 c-14 -8 -29 -14 -35 -14 -5 0 1 6 15 14 14 8
30 14 35 14 6 0 -1 -6 -15 -14z m-51 -19 c-2 -2 -15 -9 -29 -15 -24 -11 -24
-11 -6 3 16 13 49 24 35 12z m-178 -88 c9 -16 8 -19 -3 -15 -7 2 -12 10 -10
16 1 6 -2 11 -8 11 -5 0 -10 5 -10 11 0 15 18 2 31 -23z m10 -33 c38 0 38 -17
0 -32 -27 -12 -33 -10 -58 13 l-28 26 29 -21 c38 -28 47 -18 13 13 -15 14 -27
28 -27 32 0 4 9 -1 21 -12 12 -10 34 -19 50 -19z m-14 -417 c-3 -7 -5 -2 -5
12 0 14 2 19 5 13 2 -7 2 -19 0 -25z m533 23 c0 -16 -18 -22 -45 -15 -35 9
-31 19 10 21 19 2 35 -1 35 -6z m-782 -64 c14 -49 4 -94 -22 -101 -32 -9 -36
-7 -36 13 0 11 -5 21 -11 23 -7 2 -8 17 -4 41 6 32 11 37 34 37 20 0 23 2 11
10 -13 8 -13 10 2 10 11 0 20 -12 26 -33z m651 -139 c-4 -27 -5 -57 -2 -66 4
-13 2 -12 -10 3 -16 20 -24 125 -10 138 16 17 29 -28 22 -75z m111 -168 c0
-13 -34 -30 -60 -30 -38 0 4 31 53 39 4 0 7 -3 7 -9z m-620 -95 c0 -33 -2 -35
-35 -35 -29 0 -37 5 -45 26 -13 33 -13 32 13 37 60 12 67 9 67 -28z m960 -35
c0 -5 -2 -10 -4 -10 -3 0 -8 5 -11 10 -3 6 -1 10 4 10 6 0 11 -4 11 -10z m423
-15 c60 -4 58 -40 -3 -73 l-40 -21 0 30 c0 32 -11 37 -30 14 -10 -12 -16 -13
-27 -4 -11 9 -17 8 -28 -7 -13 -19 -14 -19 -21 0 -5 13 -1 23 12 34 32 24 78
42 94 35 8 -4 28 -7 43 -8z m-1794 -19 c-2 -2 -21 -6 -42 -10 -27 -5 -37 -4
-32 3 3 6 22 11 42 11 20 0 34 -2 32 -4z m1674 -72 c9 -9 -4 -35 -14 -28 -5 3
-9 12 -9 20 0 14 12 19 23 8z"/>
<path d="M1744 1358 c-4 -7 -3 -8 4 -4 7 4 12 2 12 -3 0 -6 -4 -11 -10 -11 -5
0 -10 -10 -10 -22 l0 -22 20 20 c13 12 18 27 14 37 -7 20 -20 22 -30 5z"/>
<path d="M2540 1658 c1 -179 7 -208 44 -208 14 0 16 15 17 113 0 61 3 147 5
190 l5 77 -36 0 -35 0 0 -172z"/>
<path d="M2642 1554 c3 -190 1 -277 -6 -280 -7 -3 -10 -34 -8 -85 3 -75 5 -81
28 -90 14 -5 41 -9 60 -9 31 0 34 2 34 30 0 26 -4 30 -27 31 -16 1 -34 1 -40
0 -8 -1 -13 10 -13 29 0 16 5 30 10 30 6 0 10 12 10 26 0 14 -4 23 -10 19 -5
-3 -10 -2 -10 4 0 5 5 13 10 16 6 4 10 32 9 63 -1 31 -1 103 0 160 1 83 4 102
16 102 11 0 12 -5 5 -26 -6 -14 -10 -86 -10 -160 l0 -134 25 0 25 0 0 145 c0
122 -2 145 -15 145 -19 0 -14 38 6 51 10 6 4 9 -21 10 l-35 1 33 10 c26 9 32
16 32 39 0 18 -5 27 -12 25 -7 -3 -26 -7 -42 -11 l-29 -6 7 70 c7 68 6 71 -15
71 l-22 0 5 -276z"/>
<path d="M2695 1809 c-4 -11 -4 -23 0 -27 7 -7 25 17 25 36 0 20 -18 14 -25
-9z"/>
<path d="M2730 1816 c0 -8 5 -18 10 -21 6 -3 10 3 10 14 0 12 -4 21 -10 21 -5
0 -10 -6 -10 -14z"/>
<path d="M2712 1750 c0 -14 2 -19 5 -12 2 6 2 18 0 25 -3 6 -5 1 -5 -13z"/>
<path d="M387 1655 c-3 -7 -3 -15 0 -18 7 -7 33 3 33 13 0 14 -28 19 -33 5z"/>
<path d="M403 1606 c0 -19 2 -22 12 -13 7 7 10 18 8 24 -8 21 -20 14 -20 -11z"/>
<path d="M1058 1523 c6 -2 18 -2 25 0 6 3 1 5 -13 5 -14 0 -19 -2 -12 -5z"/>
<path d="M1001 1510 c-1 -8 -11 -35 -23 -60 -20 -43 -24 -52 -27 -66 0 -4 -8
-1 -15 6 -10 8 -20 9 -33 2 -14 -9 -11 -12 23 -21 30 -8 42 -18 51 -41 6 -16
18 -30 27 -30 17 0 39 34 29 44 -3 3 -3 6 1 6 4 0 14 -7 23 -15 25 -25 29 -7
4 19 -13 13 -30 55 -41 97 -10 41 -18 67 -19 59z"/>
<path d="M807 1486 c3 -15 -2 -31 -14 -43 -17 -17 -18 -19 -1 -33 9 -8 19 -28
21 -44 5 -38 18 -42 43 -15 10 13 13 19 7 15 -16 -9 -18 10 -3 19 15 9 -9 37
-26 31 -19 -7 -24 4 -13 26 11 21 4 68 -10 68 -4 0 -6 -11 -4 -24z"/>
<path d="M1070 1460 l-25 -8 27 -1 c14 -1 28 -6 30 -13 2 -6 10 -8 16 -4 9 5
9 11 -2 22 -8 8 -16 14 -18 13 -2 -1 -14 -5 -28 -9z"/>
<path d="M1383 1403 c-32 -6 -28 -19 7 -26 39 -8 92 2 87 17 -4 12 -57 17 -94
9z"/>
<path d="M910 1286 c0 -13 -4 -15 -19 -6 -24 12 -37 -3 -16 -20 7 -6 11 -18 8
-26 -3 -8 1 -14 10 -14 16 0 36 65 23 77 -3 4 -6 -1 -6 -11z"/>
<path d="M544 1202 c-15 -9 -29 -116 -14 -107 6 3 10 -3 10 -14 0 -19 6 -20
91 -20 86 1 91 2 100 26 5 13 8 43 8 66 -1 23 -4 33 -6 22 -8 -29 -25 -36 -50
-20 -12 8 -34 15 -49 15 -15 0 -24 3 -21 7 21 20 -42 43 -69 25z"/>
<path d="M2087 1081 c-60 -6 -63 -9 -54 -41 5 -18 14 -20 90 -20 53 0 89 -4
93 -11 5 -9 33 49 34 72 0 7 -90 8 -163 0z"/>
<path d="M545 1042 c-1 -2 -1 -12 2 -23 5 -17 15 -19 88 -19 73 0 83 2 88 19
4 18 -2 20 -85 23 -49 2 -91 2 -93 0z"/>
<path d="M834 1035 c-7 -17 4 -37 17 -30 12 8 12 45 -1 45 -6 0 -13 -7 -16
-15z"/>
<path d="M88 1033 c-85 -4 -88 -5 -88 -28 l0 -24 97 6 c54 3 102 9 107 13 12
12 0 40 -16 38 -7 -1 -52 -4 -100 -5z"/>
<path d="M2170 948 c0 -12 38 -10 45 2 4 6 -5 9 -19 8 -15 -1 -26 -6 -26 -10z"/>
<path d="M1182 935 c0 -11 4 -31 8 -45 6 -20 8 -21 8 -5 0 11 -4 31 -8 45 -6
20 -8 21 -8 5z"/>
<path d="M37 903 c24 -2 62 -2 85 0 24 2 5 4 -42 4 -47 0 -66 -2 -43 -4z"/>
<path d="M525 870 c-3 -5 -2 -10 4 -10 5 0 13 5 16 10 3 6 2 10 -4 10 -5 0
-13 -4 -16 -10z"/>
<path d="M529 823 c-13 -16 -12 -17 4 -4 9 7 17 15 17 17 0 8 -8 3 -21 -13z"/>
<path d="M160 793 c-57 -9 -97 -27 -127 -56 l-33 -31 0 -116 c0 -105 2 -120
26 -165 43 -81 81 -114 99 -84 13 20 33 124 39 204 4 44 11 100 16 125 15 78
21 130 13 129 -5 -1 -19 -4 -33 -6z"/>
<path d="M510 770 c0 -12 8 -12 35 0 18 8 17 9 -7 9 -16 1 -28 -3 -28 -9z"/>
<path d="M893 768 c-24 -32 -24 -41 0 -19 15 14 27 26 27 28 0 8 -19 2 -27 -9z"/>
<path d="M2050 747 c0 -8 -7 -20 -15 -27 -13 -11 -13 -16 0 -47 8 -20 15 -52
15 -71 0 -22 4 -32 9 -26 15 15 18 177 3 182 -6 2 -12 -3 -12 -11z"/>
<path d="M530 725 c-14 -8 -20 -14 -14 -15 5 0 19 7 30 15 24 18 16 19 -16 0z"/>
<path d="M706 701 c-12 -22 -14 -37 -8 -43 14 -14 29 -3 48 34 15 29 11 55 -5
29 -7 -11 -9 -11 -13 0 -3 9 -11 1 -22 -20z"/>
<path d="M521 667 c57 -38 59 -39 59 -24 0 8 -15 22 -34 31 -50 23 -64 20 -25
-7z"/>
<path d="M512 595 c15 -14 31 -25 35 -25 4 0 -4 11 -19 25 -15 14 -31 25 -35
25 -4 0 4 -11 19 -25z"/>
<path d="M695 583 c-3 -21 -8 -49 -11 -63 -2 -14 5 0 16 30 22 63 23 70 11 70
-5 0 -12 -17 -16 -37z"/>
<path d="M480 592 c0 -12 19 -26 26 -19 2 2 -2 10 -11 17 -9 8 -15 8 -15 2z"/>
<path d="M2162 550 c0 -14 2 -19 5 -12 2 6 2 18 0 25 -3 6 -5 1 -5 -13z"/>
<path d="M505 540 c-16 -7 -17 -9 -3 -9 9 -1 20 4 23 9 7 11 7 11 -20 0z"/>
<path d="M473 509 c-1 -12 5 -19 17 -19 28 0 32 16 7 27 -19 9 -23 8 -24 -8z"/>
<path d="M457 463 c-12 -12 -7 -22 8 -17 8 4 15 10 15 15 0 11 -14 12 -23 2z"/>
<path d="M625 390 c-3 -5 1 -10 9 -10 9 0 16 5 16 10 0 6 -4 10 -9 10 -6 0
-13 -4 -16 -10z"/>
<path d="M630 350 c0 -5 5 -10 11 -10 5 0 7 5 4 10 -3 6 -8 10 -11 10 -2 0 -4
-4 -4 -10z"/>
<path d="M33 247 c-40 -13 -42 -24 -6 -33 30 -8 56 5 61 30 4 18 -7 18 -55 3z"/>
<path d="M446 99 c-16 -13 -26 -30 -26 -47 l0 -26 33 31 c17 18 44 35 60 38
15 4 27 11 27 16 0 17 -67 9 -94 -12z"/>
<path d="M633 103 c-42 -4 -62 -23 -24 -23 49 0 112 13 99 21 -7 5 -17 8 -23
7 -5 -1 -29 -3 -52 -5z"/>
<path d="M0 26 c0 -20 5 -26 21 -26 15 0 20 5 17 22 -5 34 -38 37 -38 4z"/>
<path d="M470 15 c-7 -9 -8 -15 -2 -15 5 0 12 7 16 15 7 19 2 19 -14 0z"/>
</g>
</svg>
