<?xml version="1.0" standalone="no"?>
<!DOCTYPE svg PUBLIC "-//W3C//DTD SVG 20010904//EN"
 "http://www.w3.org/TR/2001/REC-SVG-20010904/DTD/svg10.dtd">
<svg version="1.0" xmlns="http://www.w3.org/2000/svg"
 width="492.000000pt" height="492.000000pt" viewBox="0 0 492.000000 492.000000"
 preserveAspectRatio="xMidYMid meet">

<g transform="translate(0.000000,492.000000) scale(0.100000,-0.100000)"
fill="#000000" stroke="none">
<path d="M2380 4801 c-39 -12 -116 -68 -150 -109 -47 -57 -90 -152 -100 -223
-12 -83 10 -231 45 -297 l25 -47 -7 55 c-4 30 -7 89 -7 130 1 135 73 240 190
273 56 16 75 33 121 106 33 53 28 29 -7 -34 -16 -30 -30 -56 -30 -59 0 -2 22
-12 49 -21 122 -40 231 -198 231 -333 0 -22 6 -51 13 -65 l13 -25 17 30 c9 16
14 35 10 41 -4 7 2 5 12 -3 17 -14 18 -13 12 2 -4 11 -2 15 6 12 23 -9 36 56
28 132 -5 40 -11 76 -15 82 -3 6 -11 34 -16 62 -25 131 -96 227 -206 275 -45
20 -72 25 -133 24 -42 0 -87 -4 -101 -8z"/>
<path d="M2505 4393 c-57 -18 -46 -30 12 -14 21 6 52 11 68 11 23 0 27 3 15
10 -20 13 -35 12 -95 -7z"/>
<path d="M2214 4344 c-18 -14 -17 -15 21 -10 22 3 53 6 68 6 16 0 26 4 22 10
-10 16 -89 12 -111 -6z"/>
<path d="M2500 4320 c-11 -11 -20 -26 -20 -32 0 -7 8 -3 18 10 12 16 21 19 28
12 12 -12 94 -3 94 10 0 4 -10 10 -22 14 -43 11 -78 6 -98 -14z"/>
<path d="M2253 4288 c-29 -14 -38 -38 -14 -38 11 0 22 6 25 13 5 10 7 10 12 0
7 -16 40 -17 49 -3 4 6 12 8 18 4 7 -3 1 4 -12 15 -26 23 -45 25 -78 9z"/>
<path d="M2440 4120 c-20 -12 -10 -19 14 -10 11 3 15 9 10 13 -6 3 -16 2 -24
-3z"/>
<path d="M2375 4100 c3 -5 11 -10 16 -10 6 0 7 5 4 10 -3 6 -11 10 -16 10 -6
0 -7 -4 -4 -10z"/>
<path d="M2555 4052 c-24 -22 -181 -42 -205 -27 -13 8 -13 6 -1 -8 23 -29 133
-21 209 16 12 5 22 14 22 19 0 10 -13 10 -25 0z"/>
<path d="M2750 3990 c1 -106 59 -250 106 -259 10 -2 22 -7 25 -13 12 -19 8 77
-5 122 -16 54 -70 154 -103 190 l-23 25 0 -65z m127 -227 c-3 -10 -5 -4 -5 12
0 17 2 24 5 18 2 -7 2 -21 0 -30z"/>
<path d="M2713 3997 c-32 -70 -154 -164 -220 -169 -27 -2 -30 -5 -22 -20 11
-21 31 -23 59 -5 15 9 23 9 28 1 27 -42 182 143 170 202 -2 14 -6 12 -15 -9z
m-213 -181 c0 -3 -4 -8 -10 -11 -5 -3 -10 -1 -10 4 0 6 5 11 10 11 6 0 10 -2
10 -4z"/>
<path d="M2362 3658 c-15 -20 -42 -118 -41 -152 l1 -31 9 30 c5 17 14 55 20
85 6 30 15 61 21 68 6 6 8 12 5 12 -2 0 -9 -6 -15 -12z"/>
<path d="M2845 3650 c-3 -5 -2 -10 4 -10 5 0 13 5 16 10 3 6 2 10 -4 10 -5 0
-13 -4 -16 -10z"/>
<path d="M2825 3620 c3 -5 12 -7 20 -3 21 7 19 13 -6 13 -11 0 -18 -4 -14 -10z"/>
<path d="M2995 3601 c-5 -10 -4 -16 3 -19 7 -2 9 -9 5 -15 -3 -7 3 -3 15 7 24
21 31 36 8 17 -11 -10 -15 -8 -18 6 -3 15 -5 16 -13 4z"/>
<path d="M3071 3313 c-39 -49 -71 -91 -71 -95 0 -5 7 -8 16 -8 14 0 14 -2 0
-15 -8 -8 -21 -15 -28 -15 -10 0 -9 -3 2 -10 11 -7 12 -13 3 -32 -22 -45 -33
-95 -43 -193 -9 -102 -7 -133 5 -73 38 187 92 352 139 427 31 48 58 101 52
101 -3 0 -37 -39 -75 -87z"/>
<path d="M1437 3289 c7 -7 15 -10 18 -7 3 3 -2 9 -12 12 -14 6 -15 5 -6 -5z"/>
<path d="M1485 3277 c11 -9 23 -13 27 -11 10 7 19 -13 20 -46 1 -17 5 -30 11
-30 5 0 16 -8 24 -17 13 -16 13 -16 7 7 -4 14 -13 29 -20 33 -8 4 -14 13 -14
20 0 7 4 6 10 -3 9 -13 10 -13 9 0 0 32 -24 55 -59 58 -33 3 -34 3 -15 -11z"/>
<path d="M2801 3282 c-1 -7 -5 -11 -11 -7 -5 3 -16 -8 -25 -24 -17 -33 -20
-55 -5 -31 14 22 12 -3 -3 -39 -7 -17 -16 -29 -19 -25 -4 3 -4 -5 -1 -18 3
-16 2 -19 -5 -9 -7 10 -9 6 -9 -13 0 -21 2 -24 13 -15 7 5 16 23 19 39 3 16
14 35 23 42 13 11 14 11 8 -1 -6 -9 -4 -12 5 -9 8 2 22 19 31 38 14 28 15 35
4 44 -8 6 -16 18 -19 26 -4 10 -6 11 -6 2z"/>
<path d="M1445 3243 c7 -30 21 -50 30 -42 7 8 -18 69 -28 69 -5 0 -6 -12 -2
-27z"/>
<path d="M2822 3163 c4 -15 -14 -77 -37 -128 -12 -27 -25 -63 -28 -80 -7 -28
-6 -29 8 -11 8 11 15 14 15 7 0 -7 4 -10 9 -6 10 6 62 -14 72 -29 4 -5 12 -5
18 -2 6 4 11 0 11 -10 0 -10 -3 -15 -6 -11 -3 3 -22 -3 -42 -13 -21 -10 -54
-22 -74 -25 -31 -6 -39 -13 -49 -42 -15 -46 -4 -54 12 -9 15 41 24 45 32 14 4
-12 9 -19 13 -16 3 4 17 -6 30 -21 17 -20 24 -42 25 -72 0 -24 7 -62 14 -84
l14 -40 -4 35 c-5 34 -4 34 6 8 6 -16 15 -28 20 -28 6 0 6 -8 -1 -19 -13 -25
-13 -34 0 -26 15 9 12 -8 -7 -35 -9 -13 -18 -48 -20 -78 -2 -30 -8 -63 -14
-74 -7 -14 -8 -23 -1 -27 5 -3 12 -17 14 -31 4 -23 5 -23 15 10 6 19 12 27 12
17 1 -9 -8 -34 -19 -54 -11 -20 -16 -40 -12 -43 11 -8 13 -140 2 -140 -5 0
-35 7 -67 15 -31 8 -69 15 -83 14 -14 0 12 -9 57 -19 110 -25 126 -34 121 -70
-2 -16 -1 -27 3 -24 4 2 8 -8 9 -23 0 -16 2 -44 3 -63 l2 -35 -75 -7 c-41 -4
-111 -14 -154 -23 -79 -14 -79 -14 -125 11 -25 13 -83 51 -129 84 -83 60 -99
63 -35 7 48 -42 144 -103 185 -116 29 -10 53 -9 120 3 45 8 115 17 155 19 l71
4 11 -63 c8 -41 9 -126 5 -239 -4 -115 -3 -175 4 -175 6 0 12 84 17 223 6 216
1 324 -27 544 -9 72 -9 134 1 280 8 104 18 194 23 201 7 8 7 12 1 12 -14 0
-23 86 -29 250 -4 122 -7 140 -31 188 -15 29 -35 58 -45 63 -10 5 -17 6 -16 2z
m55 -515 c-3 -7 -5 -2 -5 12 0 14 2 19 5 13 2 -7 2 -19 0 -25z"/>
<path d="M2740 2985 c0 -8 2 -15 4 -15 2 0 6 7 10 15 3 8 1 15 -4 15 -6 0 -10
-7 -10 -15z"/>
<path d="M3300 2761 c-19 -4 -79 -24 -132 -44 -53 -20 -103 -37 -110 -37 -7 0
-20 -5 -28 -11 -12 -8 -8 -9 16 -5 17 2 57 1 90 -3 60 -9 88 -5 79 9 -3 5 -1
11 5 15 5 3 10 1 10 -4 0 -6 38 8 85 31 47 23 85 45 85 48 0 9 -60 9 -100 1z"/>
<path d="M1897 2723 c-4 -3 -7 -13 -7 -22 0 -9 -6 -28 -14 -42 -16 -31 -10
-43 21 -51 22 -6 22 -4 16 56 -6 68 -7 69 -16 59z"/>
<path d="M2663 2663 c9 -2 23 -2 30 0 6 3 -1 5 -18 5 -16 0 -22 -2 -12 -5z"/>
<path d="M1562 2580 c-7 -12 -17 -18 -22 -15 -11 7 -12 -2 -2 -27 7 -16 9 -16
35 5 24 19 26 24 15 40 -12 16 -14 16 -26 -3z"/>
<path d="M1699 2521 c-34 -6 -137 -80 -112 -81 7 0 28 14 48 31 25 22 47 32
72 33 20 1 38 7 41 14 2 6 0 11 -5 11 -4 -1 -24 -5 -44 -8z"/>
<path d="M1739 2452 c-10 -9 -45 -37 -78 -61 -34 -24 -60 -46 -57 -48 3 -3 26
12 53 34 26 22 60 45 76 51 15 6 27 18 27 27 0 18 0 18 -21 -3z"/>
<path d="M1891 2463 c0 -4 4 -17 9 -28 8 -19 9 -19 9 2 1 12 -3 25 -9 28 -5 3
-10 3 -9 -2z"/>
<path d="M2832 2400 c0 -14 2 -19 5 -12 2 6 2 18 0 25 -3 6 -5 1 -5 -13z"/>
<path d="M1749 2363 c-13 -16 -12 -17 4 -4 9 7 17 15 17 17 0 8 -8 3 -21 -13z"/>
<path d="M1663 2294 l-28 -26 33 22 c29 20 39 30 28 30 -3 0 -18 -12 -33 -26z"/>
<path d="M1890 2203 c0 -13 5 -23 10 -23 13 0 13 11 0 30 -8 12 -10 11 -10 -7z"/>
<path d="M1860 2058 c0 -36 4 -35 14 5 4 16 2 27 -4 27 -5 0 -10 -14 -10 -32z"/>
<path d="M1857 2013 c-14 -13 -6 -33 13 -33 11 0 20 7 20 15 0 9 -6 12 -17 8
-11 -4 -14 -3 -9 5 8 13 3 16 -7 5z"/>
<path d="M1908 1985 c-12 -61 -10 -111 3 -98 5 5 9 38 7 74 -3 61 -3 62 -10
24z"/>
<path d="M2580 1944 c0 -9 5 -14 12 -12 18 6 21 28 4 28 -9 0 -16 -7 -16 -16z"/>
<path d="M2562 1928 c7 -20 54 -22 62 -2 6 14 4 15 -10 4 -13 -11 -19 -11 -36
-1 -16 10 -19 10 -16 -1z"/>
<path d="M2175 1249 c-49 -4 -159 -7 -242 -8 -118 -1 -153 -4 -153 -14 0 -8
14 -13 39 -13 23 0 46 -7 56 -17 15 -16 15 -18 -9 -29 -36 -16 -33 -22 17 -35
65 -18 137 -62 137 -84 0 -12 10 -23 25 -29 14 -5 29 -20 34 -32 9 -22 10 -22
24 12 8 19 17 55 20 79 4 38 0 50 -25 85 l-30 41 89 12 c160 21 183 26 189 34
6 10 -36 9 -171 -2z"/>
<path d="M2385 1250 c3 -5 36 -10 73 -10 72 0 137 -14 148 -32 5 -7 0 -9 -14
-6 -12 4 -22 2 -22 -3 0 -5 -9 -9 -19 -9 -23 0 -106 -35 -114 -47 -3 -5 29 3
72 17 91 31 133 41 125 29 -3 -5 1 -9 9 -9 7 0 28 -13 46 -29 29 -26 32 -34
26 -63 -6 -29 -30 -88 -56 -140 -5 -10 -9 -25 -9 -33 0 -8 -4 -15 -8 -15 -5 0
-15 -26 -22 -57 -19 -90 -40 -151 -52 -155 -7 -3 -5 -15 6 -36 16 -31 36 -36
36 -9 0 8 -3 8 -9 -1 -6 -11 -10 -10 -15 4 -4 9 -2 22 4 28 8 8 9 6 4 -7 -3
-10 -3 -17 2 -16 30 5 34 -2 18 -33 -9 -18 -12 -28 -6 -23 10 11 105 198 116
228 3 10 11 15 16 12 6 -4 9 -3 8 2 -2 4 5 33 14 63 10 30 20 85 23 121 8 88
30 122 94 145 28 10 48 21 44 25 -8 6 -113 23 -213 34 -30 3 -91 10 -135 15
-166 19 -197 21 -190 10z"/>
<path d="M2860 974 c-13 -33 -13 -34 3 -34 9 0 14 12 15 30 1 37 -5 38 -18 4z"/>
<path d="M2842 910 c-1 -14 -5 -43 -7 -65 -5 -35 -4 -37 5 -15 6 13 9 42 7 65
-2 22 -4 29 -5 15z"/>
<path d="M2993 865 c-21 -15 -61 -101 -51 -111 7 -6 38 59 38 81 0 10 5 14 13
9 6 -4 9 -4 5 1 -4 4 0 14 10 21 24 18 11 17 -15 -1z"/>
<path d="M2816 774 c-4 -11 -13 -14 -28 -11 -14 4 -18 3 -11 -4 7 -7 24 -6 52
3 23 8 38 17 34 21 -12 13 -41 7 -47 -9z"/>
<path d="M2542 639 c2 -7 10 -15 17 -17 8 -3 12 1 9 9 -2 7 -10 15 -17 17 -8
3 -12 -1 -9 -9z"/>
<path d="M2262 335 c-34 -46 -62 -88 -62 -94 0 -6 -4 -11 -9 -11 -5 0 -11 -10
-14 -21 -5 -18 2 -14 34 17 21 21 39 43 39 49 0 7 19 40 41 74 23 34 40 63 38
66 -2 2 -32 -34 -67 -80z"/>
<path d="M2459 312 c-8 -20 -136 -148 -145 -145 -13 4 -40 -44 -31 -54 4 -4
13 -1 19 5 7 7 15 12 19 12 10 0 39 -77 39 -103 -1 -19 -2 -20 -13 -6 -7 9
-18 14 -24 12 -15 -5 -17 13 -3 22 6 3 10 13 10 21 0 18 -100 20 -119 2 -11
-10 -13 -10 -7 -1 10 18 -9 16 -23 -1 -6 -8 -34 -23 -61 -35 -75 -32 -71 -41
19 -41 43 0 81 4 83 8 2 5 16 12 32 16 26 6 28 5 17 -8 -12 -14 -1 -16 113
-16 l126 0 0 46 c0 27 -4 43 -10 39 -5 -3 -11 2 -12 12 -1 10 -2 25 -4 33 -1
8 -2 26 -3 40 -1 21 -3 22 -12 10 -8 -12 -9 -10 -5 10 15 63 17 99 8 115 -5
10 -11 13 -13 7z"/>
</g>
</svg>
