<?xml version="1.0" standalone="no"?>
<!DOCTYPE svg PUBLIC "-//W3C//DTD SVG 20010904//EN"
 "http://www.w3.org/TR/2001/REC-SVG-20010904/DTD/svg10.dtd">
<svg version="1.0" xmlns="http://www.w3.org/2000/svg"
 width="275.000000pt" height="183.000000pt" viewBox="0 0 275.000000 183.000000"
 preserveAspectRatio="xMidYMid meet">

<g transform="translate(0.000000,183.000000) scale(0.100000,-0.100000)"
fill="#000000" stroke="none">
<path d="M1680 1785 c0 -34 -4 -45 -16 -45 -8 0 -13 4 -10 9 4 5 -3 7 -14 4
-11 -3 -20 0 -20 6 0 15 -27 14 -34 -1 -5 -10 -7 -10 -12 0 -15 32 -136 0
-182 -49 -124 -133 -132 -148 -128 -261 5 -129 72 -309 123 -329 22 -8 32 -6
54 11 16 11 35 20 44 20 8 0 15 7 15 15 0 8 5 15 10 15 6 0 10 6 10 13 0 6 6
24 14 38 12 23 11 28 -16 54 -28 29 -32 49 -10 51 23 3 24 4 13 18 -9 10 -7
17 5 27 14 11 18 11 29 -4 7 -10 26 -17 44 -17 19 0 30 -5 29 -12 -2 -8 9 -11
32 -10 45 4 91 22 84 33 -3 5 -1 9 5 9 5 0 11 10 13 23 2 12 8 21 13 20 17 -2
18 113 1 139 -8 13 -22 46 -31 73 -10 28 -23 57 -31 66 -17 19 -18 40 -1 37 6
-2 12 5 11 15 -3 75 -4 77 -24 77 -17 0 -20 -7 -20 -45z m-362 -252 c-10 -2
-18 -9 -18 -15 0 -6 -3 -9 -6 -5 -10 10 6 27 24 26 15 -1 15 -2 0 -6z m-4 -38
c-4 -8 -10 -15 -14 -15 -5 0 -11 -14 -15 -31 -4 -17 -9 -28 -12 -25 -9 8 6 53
23 70 19 20 25 20 18 1z m29 -80 c-7 -21 -12 -19 -10 4 0 11 5 18 9 15 4 -3 5
-11 1 -19z m-5 -44 c8 -24 -31 -6 -40 18 -8 23 -7 23 14 9 12 -8 24 -20 26
-27z m85 -37 c-4 -11 -9 -12 -19 -3 -11 9 -14 5 -14 -22 1 -28 2 -31 11 -17 9
16 11 16 27 0 11 -10 14 -20 8 -24 -5 -4 2 -10 17 -13 29 -8 37 -25 12 -25 -8
0 -15 -9 -15 -20 0 -22 -8 -24 -44 -10 -22 8 -24 13 -16 34 6 17 5 26 -4 29
-17 7 -38 79 -25 87 5 4 23 5 39 2 20 -3 27 -8 23 -18z m54 -156 c-3 -8 -6 -5
-6 6 -1 11 2 17 5 13 3 -3 4 -12 1 -19z"/>
<path d="M1814 1815 c-4 -8 -3 -23 1 -32 5 -10 7 -25 6 -34 -2 -14 8 -17 59
-17 59 0 85 10 55 22 -9 3 -15 19 -15 41 0 47 -18 45 -22 -2 -2 -30 -7 -38
-23 -38 -16 0 -21 8 -23 38 -3 38 -27 52 -38 22z"/>
<path d="M2100 1785 c-9 -31 -10 -49 -3 -56 7 -7 12 7 16 43 2 29 4 54 2 56
-1 1 -8 -18 -15 -43z"/>
<path d="M334 1773 c3 -28 0 -43 -7 -44 -15 -2 42 -16 69 -18 13 -1 25 8 33
25 15 33 3 52 -16 24 -22 -31 -54 -22 -70 20 l-13 35 4 -42z"/>
<path d="M262 1778 c-14 -33 -57 -43 -143 -34 -32 3 -59 2 -59 -3 0 -10 85
-21 174 -21 54 0 66 3 58 13 -6 6 -12 26 -14 42 l-4 30 -12 -27z"/>
<path d="M607 1776 c-4 -10 -5 -21 -2 -24 9 -9 17 6 13 25 -3 17 -4 17 -11 -1z"/>
<path d="M2460 1755 c-10 -13 -9 -15 8 -15 11 0 34 -3 52 -7 24 -4 31 -3 26 5
-4 7 -17 12 -30 12 -12 0 -27 5 -32 10 -8 8 -15 6 -24 -5z"/>
<path d="M28 1733 c7 -3 16 -2 19 1 4 3 -2 6 -13 5 -11 0 -14 -3 -6 -6z"/>
<path d="M585 1697 c-4 -10 -5 -21 -1 -24 10 -10 18 4 13 24 -4 17 -4 17 -12
0z"/>
<path d="M2071 1663 c-13 -47 -14 -70 -2 -57 9 10 24 94 17 94 -3 0 -10 -17
-15 -37z"/>
<path d="M1980 1660 c-6 -11 -8 -20 -6 -20 3 0 10 9 16 20 6 11 8 20 6 20 -3
0 -10 -9 -16 -20z"/>
<path d="M2037 1523 c-12 -12 -7 -33 8 -33 17 0 19 9 7 28 -5 7 -11 9 -15 5z"/>
<path d="M2110 1505 c-7 -8 -8 -15 -3 -15 5 0 15 -12 22 -26 9 -21 9 -36 -3
-73 -8 -25 -17 -55 -20 -66 -3 -11 -4 -4 -2 15 3 19 8 44 12 55 4 12 -2 9 -16
-10 -38 -49 -45 -52 -21 -11 12 22 16 34 8 28 -7 -7 -17 -9 -20 -6 -3 4 -15
-9 -26 -27 -20 -33 -21 -51 -5 -124 4 -18 3 -18 -12 3 -9 12 -26 22 -38 22
-20 0 -21 3 -18 106 3 96 2 106 -13 100 -9 -3 -25 -6 -35 -6 -10 0 -20 -9 -23
-20 -3 -11 -13 -20 -24 -21 -13 -1 -11 -3 7 -8 18 -5 25 -14 24 -32 -1 -13 5
-28 12 -34 6 -5 15 -24 19 -42 5 -24 2 -34 -12 -43 -16 -10 -16 -11 0 -6 24 8
47 -3 40 -20 -3 -8 0 -14 7 -14 6 0 20 -10 30 -22 15 -19 28 -23 78 -23 49 0
58 -2 49 -13 -10 -13 -47 -11 -100 4 -15 5 -17 1 -11 -23 9 -37 11 -39 31 -22
10 8 40 14 68 14 28 0 53 4 57 10 5 6 8 4 8 -5 0 -9 -5 -21 -12 -28 -9 -9 -9
-12 0 -12 6 0 16 8 22 18 10 15 11 15 7 -5 -6 -27 20 -39 42 -20 9 8 22 12 29
10 11 -4 18 36 14 92 -2 18 0 18 11 -3 7 -12 17 -19 21 -15 5 4 6 -2 3 -14 -3
-13 -1 -26 4 -29 5 -3 9 2 9 10 0 8 7 19 16 24 15 8 15 10 0 15 -11 5 -15 17
-14 41 2 22 7 31 13 25 19 -19 41 -10 40 19 0 15 5 26 11 25 7 -1 19 6 29 17
16 17 15 20 -5 40 l-21 21 -23 -25 c-18 -19 -26 -22 -35 -13 -10 9 -11 6 -6
-14 5 -19 2 -28 -9 -32 -11 -5 -16 0 -16 13 0 30 -69 101 -94 98 -18 -3 -21 2
-22 35 -1 37 -15 57 -41 57 -7 0 -13 5 -13 10 0 15 -16 12 -30 -5z m46 -128
c1 -33 -1 -45 -6 -32 -7 19 -8 18 -13 -5 -2 -14 -3 -4 -1 23 3 40 9 67 17 67
1 0 3 -24 3 -53z m74 -8 c0 8 3 12 6 8 3 -3 3 -11 -1 -17 -8 -13 -35 5 -35 23
0 6 7 2 15 -9 10 -13 14 -15 15 -5z m37 -226 c-3 -10 -5 -2 -5 17 0 19 2 27 5
18 2 -10 2 -26 0 -35z m-37 -33 c0 -5 -5 -10 -11 -10 -5 0 -7 5 -4 10 3 6 8
10 11 10 2 0 4 -4 4 -10z"/>
<path d="M1820 1443 c0 -13 5 -23 10 -23 13 0 13 11 0 30 -8 12 -10 11 -10 -7z"/>
<path d="M144 1408 c3 -13 6 -30 6 -38 0 -12 8 -15 34 -12 27 3 33 7 29 23 -3
11 0 26 7 34 11 13 6 15 -35 15 -44 0 -47 -1 -41 -22z"/>
<path d="M2260 1406 c0 -2 8 -10 18 -17 15 -13 16 -12 3 4 -13 16 -21 21 -21
13z"/>
<path d="M630 1351 c0 -22 4 -43 10 -46 5 -3 9 13 8 40 -1 55 -18 61 -18 6z"/>
<path d="M2452 1378 c-18 -18 -14 -28 8 -28 11 0 20 6 20 14 0 21 -15 27 -28
14z"/>
<path d="M1815 1366 c-3 -9 -7 -23 -10 -31 -7 -22 1 -18 19 9 10 16 12 27 6
31 -6 3 -12 -1 -15 -9z"/>
<path d="M1850 1370 c0 -5 4 -10 9 -10 6 0 13 5 16 10 3 6 -1 10 -9 10 -9 0
-16 -4 -16 -10z"/>
<path d="M1992 1343 c-5 -10 -6 -29 -2 -43 7 -23 8 -22 15 13 8 42 2 59 -13
30z"/>
<path d="M22 1315 c-12 -12 -22 -34 -22 -47 0 -23 2 -24 96 -25 53 -1 101 -6
106 -11 6 -6 22 -7 42 -1 17 5 81 6 142 3 110 -7 111 -7 137 20 14 14 25 26
24 26 -1 0 -56 2 -122 4 -234 7 -379 21 -370 36 12 20 -12 17 -33 -5z"/>
<path d="M603 1282 l-21 -7 23 -29 c22 -28 23 -28 34 -8 6 11 8 28 5 36 -7 17
-8 17 -41 8z"/>
<path d="M1877 1269 c7 -7 15 -10 18 -7 3 3 -2 9 -12 12 -14 6 -15 5 -6 -5z"/>
<path d="M2688 1253 c6 -2 18 -2 25 0 6 3 1 5 -13 5 -14 0 -19 -2 -12 -5z"/>
<path d="M0 1158 c0 -27 5 -48 10 -48 13 0 13 60 0 80 -7 11 -10 2 -10 -32z"/>
<path d="M1981 1181 c-8 -5 -11 -16 -6 -30 9 -30 20 -26 22 9 1 17 1 30 0 30
-1 0 -8 -4 -16 -9z"/>
<path d="M2378 1183 c7 -3 16 -2 19 1 4 3 -2 6 -13 5 -11 0 -14 -3 -6 -6z"/>
<path d="M150 1135 c0 -36 6 -40 46 -29 22 6 48 47 37 58 -4 3 -24 6 -45 6
-37 0 -38 -1 -38 -35z"/>
<path d="M2345 1110 c-3 -16 -14 -31 -23 -34 -9 -3 -36 -10 -59 -16 -24 -6
-43 -15 -43 -21 0 -6 9 -8 21 -4 19 6 20 5 9 -15 -9 -18 -9 -28 1 -46 11 -21
20 -24 68 -26 31 0 61 -2 66 -3 6 -2 45 -3 88 -4 43 0 76 -5 73 -10 -3 -5 -49
-12 -101 -16 -53 -4 -108 -10 -122 -14 -26 -7 -26 -8 29 -52 92 -72 102 -79
114 -79 11 0 84 -105 84 -121 0 -4 -12 -10 -26 -13 -49 -13 -18 -15 54 -4 l72
10 0 35 c0 27 -4 34 -17 32 -10 -1 -25 -1 -33 0 -24 2 10 21 38 21 12 0 22 5
22 11 0 6 5 9 12 7 8 -3 11 -21 9 -51 -2 -41 0 -47 17 -47 46 0 52 9 52 76 0
41 -4 64 -11 64 -8 0 -8 5 1 15 7 8 9 23 5 32 -4 10 -8 45 -9 78 -1 59 -1 60
-31 62 -16 1 -82 7 -145 12 l-115 10 153 -5 152 -4 0 30 c0 28 -3 30 -37 30
-66 1 -218 11 -232 16 -7 2 -11 11 -8 18 4 10 -8 22 -34 35 -57 30 -72 28 -67
-9 3 -20 0 -30 -8 -30 -8 0 -11 10 -8 30 7 39 -2 39 -11 0z m95 -20 c0 -22 -5
-23 -35 -10 -17 7 -17 9 -2 9 9 1 17 6 17 11 0 6 5 10 10 10 6 0 10 -9 10 -20z
m-17 -87 c-7 -2 -21 -2 -30 0 -10 3 -4 5 12 5 17 0 24 -2 18 -5z m68 -220 c12
-16 12 -17 -2 -6 -9 7 -19 10 -22 6 -4 -3 -7 -1 -7 5 0 17 16 15 31 -5z"/>
<path d="M75 1078 c-2 -7 -5 -25 -8 -40 -4 -24 -1 -27 37 -32 23 -3 106 -8
186 -12 l146 -6 14 28 c8 16 16 31 17 34 2 3 -12 5 -29 4 -81 -3 -310 14 -321
25 -15 15 -37 14 -42 -1z"/>
<path d="M2104 1074 c3 -9 6 -19 6 -24 0 -8 31 -20 63 -24 38 -5 45 42 8 56
-22 8 -22 7 -10 -9 10 -12 10 -15 1 -9 -7 4 -26 12 -43 16 -26 8 -30 7 -25 -6z"/>
<path d="M7 1063 c-4 -3 -7 -17 -7 -30 0 -17 6 -23 23 -23 20 0 23 4 19 30 -4
28 -20 39 -35 23z"/>
<path d="M2147 1009 c-23 -13 -24 -61 0 -52 11 4 14 3 9 -6 -5 -8 -20 -10 -39
-6 l-32 6 29 -17 c26 -14 30 -14 44 0 13 12 13 18 2 30 -10 13 -10 19 0 31 16
20 10 26 -13 14z"/>
<path d="M0 871 l0 -48 98 -7 c197 -13 232 -18 232 -32 0 -10 -14 -13 -58 -10
-272 20 -272 20 -272 -1 0 -17 9 -21 61 -27 34 -3 83 -6 109 -6 26 0 60 -4 76
-9 16 -5 44 -12 61 -15 l33 -5 0 43 c0 27 6 48 16 57 17 14 48 69 42 75 -5 4
-326 34 -370 34 -27 0 -28 -2 -28 -49z"/>
<path d="M2062 848 c-6 -13 -18 -40 -26 -60 -14 -35 -18 -38 -57 -38 -55 0
-119 -20 -119 -36 0 -17 22 -22 153 -29 60 -4 130 -10 155 -15 54 -9 156 -51
184 -74 10 -9 27 -16 38 -16 17 0 18 2 5 27 -8 15 -25 31 -39 37 -24 11 -71
50 -200 169 -34 31 -67 57 -73 57 -5 0 -15 -10 -21 -22z m194 -139 c16 -17 16
-22 4 -30 -12 -8 -10 -9 7 -4 12 3 24 1 28 -5 4 -7 -5 -10 -29 -8 -19 1 -33 5
-30 9 2 4 -4 13 -13 19 -15 9 -14 10 7 6 14 -3 19 -3 12 0 -6 3 -10 10 -7 15
4 5 -2 6 -11 2 -12 -4 -15 -3 -10 5 10 17 20 15 42 -9z"/>
<path d="M1637 782 l-26 -27 30 -52 c22 -39 45 -62 88 -88 66 -40 71 -41 71
-20 0 8 -6 15 -13 15 -8 0 -22 9 -32 20 -10 11 -15 20 -10 20 4 0 14 -8 21
-17 14 -20 28 -14 19 8 -3 8 -25 19 -50 25 -26 6 -41 6 -38 1 3 -5 0 -8 -6 -6
-7 3 -12 9 -12 14 0 6 -7 14 -15 18 -11 6 -12 12 -4 22 8 9 5 14 -10 18 -21 5
-28 27 -9 27 5 0 7 -4 4 -10 -3 -5 -1 -10 5 -10 7 0 10 6 7 14 -3 7 1 23 9 35
22 30 2 26 -29 -7z"/>
<path d="M555 785 c-38 -7 -92 -21 -119 -32 -47 -19 -48 -20 -22 -27 15 -4 32
-4 39 0 8 5 9 4 2 -4 -5 -6 -21 -12 -35 -14 -51 -7 -24 -33 100 -96 88 -44
141 -65 180 -70 l55 -7 -40 -7 c-24 -4 -11 -5 35 -2 55 3 71 2 60 -6 -11 -8
-4 -10 30 -8 25 1 74 1 110 0 57 -2 70 -6 98 -32 26 -23 34 -26 38 -15 4 8 12
15 19 15 7 0 17 6 23 13 9 10 4 12 -24 9 -25 -3 -39 1 -47 12 -9 12 -27 17
-57 17 -25 0 -66 5 -91 11 -38 9 -45 15 -41 30 3 12 -1 18 -12 18 -9 0 -35 9
-59 20 -89 41 -193 82 -227 89 -33 7 -33 8 -10 13 14 4 36 6 49 6 30 1 39 11
21 22 -8 6 -11 10 -6 10 5 0 3 6 -3 14 -10 11 -5 16 26 24 35 9 36 10 8 10
-16 0 -61 -6 -100 -13z m-45 -39 c0 -7 -40 -14 -44 -7 -3 4 6 8 20 9 13 1 24
0 24 -2z m23 -23 c-7 -2 -19 -2 -25 0 -7 3 -2 5 12 5 14 0 19 -2 13 -5z"/>
<path d="M1237 744 c-31 -21 -38 -30 -32 -47 4 -12 10 -35 14 -52 6 -26 12
-30 46 -33 41 -3 57 -12 61 -34 1 -7 9 -33 18 -57 9 -24 16 -52 16 -62 0 -22
18 -24 43 -5 21 16 22 30 2 22 -18 -6 -18 3 -5 75 10 52 22 69 49 69 8 0 3 -8
-10 -20 -29 -24 -17 -26 21 -3 16 9 31 25 33 35 3 10 12 18 21 18 9 0 16 8 16
19 0 15 -13 23 -57 36 -65 18 -160 49 -183 59 -9 3 -31 -5 -53 -20z"/>
<path d="M325 670 c3 -5 8 -10 11 -10 2 0 4 5 4 10 0 6 -5 10 -11 10 -5 0 -7
-4 -4 -10z"/>
<path d="M145 648 c-33 -5 -79 -11 -103 -14 l-42 -5 0 -131 0 -130 33 5 c17 3
53 9 80 13 39 5 47 10 48 28 0 11 2 50 3 86 5 148 3 140 34 140 15 0 34 5 42
10 19 12 -8 12 -95 -2z"/>
<path d="M2043 553 c9 -2 25 -2 35 0 9 3 1 5 -18 5 -19 0 -27 -2 -17 -5z"/>
<path d="M1685 539 c-16 -5 -36 -7 -42 -4 -9 3 -13 -6 -13 -25 0 -30 1 -30 43
-24 65 10 87 21 87 44 0 22 -23 25 -75 9z"/>
<path d="M2392 545 c4 -5 3 -14 -4 -22 -7 -8 -8 -17 -2 -23 14 -14 168 -26
253 -20 71 5 73 6 48 19 -21 11 -24 17 -16 28 9 10 4 13 -28 13 -22 0 -89 3
-149 6 -60 4 -106 3 -102 -1z"/>
<path d="M1251 504 c0 -11 3 -14 6 -6 3 7 2 16 -1 19 -3 4 -6 -2 -5 -13z"/>
<path d="M1913 508 c-28 -14 -29 -20 -2 -36 15 -10 24 -11 32 -3 6 6 7 11 2
11 -6 0 -4 4 4 9 7 5 10 14 7 20 -9 13 -14 13 -43 -1z"/>
<path d="M346 483 c-6 -14 -5 -15 5 -6 7 7 10 15 7 18 -3 3 -9 -2 -12 -12z"/>
<path d="M523 493 c9 -2 23 -2 30 0 6 3 -1 5 -18 5 -16 0 -22 -2 -12 -5z"/>
<path d="M469 469 c-16 -15 -14 -17 29 -23 78 -10 103 -6 48 9 -27 8 -52 18
-55 22 -3 5 -13 2 -22 -8z"/>
<path d="M1180 476 c-6 -9 -10 -21 -7 -28 3 -8 6 -5 6 6 1 20 1 20 15 0 19
-25 26 -16 11 14 -11 20 -14 21 -25 8z"/>
<path d="M2165 480 c22 -5 24 -8 10 -10 -16 -1 -15 -4 10 -15 17 -8 39 -14 50
-14 17 0 15 2 -8 15 -15 8 -25 19 -22 24 4 6 -10 9 -32 9 -38 -1 -38 -1 -8 -9z"/>
<path d="M1265 471 c3 -5 -2 -16 -10 -24 -16 -16 -20 -38 -7 -36 23 4 33 -3
30 -23 -2 -11 3 -23 9 -25 9 -3 11 7 7 39 -4 24 -10 44 -15 46 -4 2 -5 10 -2
18 3 8 0 14 -7 14 -6 0 -9 -4 -5 -9z"/>
<path d="M1814 458 c3 -15 -1 -29 -7 -32 -9 -3 -8 -5 1 -5 18 -1 26 25 13 46
-10 15 -10 14 -7 -9z"/>
<path d="M2104 465 c-10 -8 -14 -15 -8 -15 6 0 17 7 24 15 16 19 9 19 -16 0z"/>
<path d="M363 430 c0 -25 2 -35 4 -22 2 12 2 32 0 45 -2 12 -4 2 -4 -23z"/>
<path d="M2060 450 c0 -5 5 -10 10 -10 6 0 10 5 10 10 0 6 -4 10 -10 10 -5 0
-10 -4 -10 -10z"/>
<path d="M2125 440 c3 -5 8 -10 11 -10 2 0 4 5 4 10 0 6 -5 10 -11 10 -5 0 -7
-4 -4 -10z"/>
<path d="M2150 440 c0 -5 5 -10 11 -10 5 0 7 5 4 10 -3 6 -8 10 -11 10 -2 0
-4 -4 -4 -10z"/>
<path d="M430 430 c0 -5 5 -10 11 -10 5 0 7 5 4 10 -3 6 -8 10 -11 10 -2 0 -4
-4 -4 -10z"/>
<path d="M1082 429 c2 -7 10 -15 17 -17 8 -3 12 1 9 9 -2 7 -10 15 -17 17 -8
3 -12 -1 -9 -9z"/>
<path d="M221 414 c0 -11 3 -14 6 -6 3 7 2 16 -1 19 -3 4 -6 -2 -5 -13z"/>
<path d="M1124 421 c10 -16 -45 -29 -249 -61 -110 -17 -230 -36 -266 -42 -36
-6 -80 -9 -96 -6 -21 3 -34 -1 -41 -13 -6 -9 -8 -20 -5 -23 4 -3 41 -6 83 -6
79 0 188 -16 205 -30 15 -12 122 -23 137 -14 7 5 39 7 70 6 61 -3 139 13 150
32 5 8 12 8 25 0 23 -15 27 -32 8 -36 -14 -3 -13 -7 7 -30 28 -32 53 -36 67
-9 6 11 21 19 36 19 28 0 32 -10 10 -28 -15 -12 -12 -30 5 -30 11 0 21 27 27
74 6 56 22 69 75 56 69 -16 108 -13 108 8 0 13 -16 20 -80 32 -76 15 -80 15
-86 -2 -3 -10 -12 -18 -19 -18 -9 0 -12 6 -8 18 5 14 3 13 -10 -3 -13 -16 -18
-17 -26 -6 -6 10 -10 10 -16 1 -4 -6 -13 -9 -20 -6 -11 4 -25 -13 -25 -29 0
-2 17 -1 39 2 23 3 41 1 45 -6 4 -7 -1 -11 -13 -11 -11 0 -23 -4 -26 -10 -9
-15 -51 -12 -64 4 -9 11 -9 20 -2 35 14 26 14 58 0 63 -8 3 -9 12 -4 28 l9 25
7 -25 c7 -25 7 -25 8 4 1 22 -3 27 -15 22 -9 -3 -18 -6 -20 -6 -2 0 -5 -10 -5
-22 -1 -17 -3 -18 -6 -6 -2 9 1 26 7 37 9 18 8 21 -10 21 -12 0 -19 -4 -16 -9z
m46 -106 c0 -8 -4 -15 -10 -15 -5 0 -7 7 -4 15 4 8 8 15 10 15 2 0 4 -7 4 -15z
m-70 -11 c8 -8 6 -15 -6 -25 -12 -10 -56 -15 -159 -17 -159 -5 -264 10 -245
33 17 20 47 23 232 21 106 0 171 -5 178 -12z"/>
<path d="M1400 415 c0 -16 -20 -16 -32 0 -5 6 -8 6 -8 -2 0 -20 20 -25 68 -17
29 4 39 9 27 12 -11 2 -24 8 -29 13 -15 14 -26 11 -26 -6z"/>
<path d="M2430 419 c-30 -4 -131 -7 -224 -7 -144 0 -171 -3 -178 -16 -8 -14
10 -16 179 -15 184 1 300 14 296 34 -2 13 -9 13 -73 4z"/>
<path d="M455 410 c-3 -6 -1 -10 4 -10 17 0 24 -4 50 -27 26 -25 41 -29 41
-13 0 6 -5 10 -11 10 -5 0 -7 5 -4 10 3 6 4 10 2 10 -3 0 -21 7 -40 15 -23 9
-38 11 -42 5z"/>
<path d="M211 374 c0 -11 3 -14 6 -6 3 7 2 16 -1 19 -3 4 -6 -2 -5 -13z"/>
<path d="M230 369 c0 -10 -4 -19 -10 -19 -5 0 -10 -18 -10 -39 l0 -39 61 0
c77 1 109 15 109 48 0 18 -3 21 -9 12 -6 -11 -24 -12 -75 -7 -66 7 -84 23 -38
35 21 5 21 5 -3 17 -22 10 -25 9 -25 -8z"/>
<path d="M570 370 c8 -5 22 -9 30 -9 10 0 8 3 -5 9 -27 12 -43 12 -25 0z"/>
<path d="M308 343 c7 -3 16 -2 19 1 4 3 -2 6 -13 5 -11 0 -14 -3 -6 -6z"/>
<path d="M1680 339 c-30 -5 -27 -7 22 -8 31 0 59 3 62 7 6 10 -34 10 -84 1z"/>
<path d="M2040 329 c0 -5 5 -7 10 -4 6 3 10 8 10 11 0 2 -4 4 -10 4 -5 0 -10
-5 -10 -11z"/>
<path d="M1975 319 c-16 -5 -101 -12 -187 -16 -149 -6 -158 -7 -158 -26 0 -19
5 -20 138 -14 187 9 254 21 258 50 2 19 -6 20 -51 6z"/>
<path d="M30 310 c-50 -11 1 -11 60 -1 41 8 42 8 10 8 -19 0 -51 -3 -70 -7z"/>
<path d="M2383 286 c5 -11 3 -15 -4 -10 -7 4 -10 1 -7 -7 5 -14 25 -19 42 -11
4 3 2 8 -5 13 -11 7 -10 9 4 9 9 0 17 -7 17 -15 0 -17 18 -19 40 -5 13 9 13
10 0 10 -13 0 -13 1 0 10 12 8 11 10 -6 10 -12 0 -36 3 -54 7 -29 5 -32 4 -27
-11z"/>
<path d="M1368 263 c6 -2 18 -2 25 0 6 3 1 5 -13 5 -14 0 -19 -2 -12 -5z"/>
<path d="M122 249 c-105 -9 -158 -28 -80 -29 65 0 148 -21 148 -36 0 -8 -12
-21 -27 -29 -24 -14 -25 -16 -5 -12 13 3 22 0 22 -6 0 -7 -13 -12 -29 -12 -16
0 -27 3 -24 8 5 9 -19 9 -81 1 -46 -7 -46 -7 -46 -45 l0 -38 68 5 c91 6 112
12 112 30 0 13 3 14 14 5 8 -6 18 -11 22 -10 5 1 25 0 44 -4 86 -15 110 -16
104 -4 -4 7 0 5 9 -3 9 -8 18 -26 20 -40 l4 -25 394 0 c286 1 406 4 437 13 23
7 42 16 42 20 0 5 -17 14 -37 21 -21 8 -41 18 -44 23 -4 6 -23 5 -50 -3 -65
-18 -476 -18 -508 -1 -21 12 -22 16 -8 29 20 20 141 53 194 53 49 0 51 3 23
32 -23 25 -66 27 -175 8 -71 -12 -293 -9 -327 5 -19 8 -25 35 -8 35 6 0 10 3
10 8 0 10 -107 11 -218 1z m98 -19 c-19 -13 -30 -13 -30 0 0 6 10 10 23 10 18
0 19 -2 7 -10z m10 -20 c-8 -5 -19 -10 -25 -10 -5 0 -3 5 5 10 8 5 20 10 25
10 6 0 3 -5 -5 -10z m530 -26 c0 -12 -53 -26 -133 -35 -51 -6 -99 -17 -107
-24 -8 -7 -37 -23 -63 -34 l-49 -21 -11 30 c-7 18 -17 28 -24 26 -8 -3 -13 2
-13 14 0 11 -5 20 -11 20 -6 0 -8 -9 -4 -21 6 -18 4 -19 -12 -11 -10 5 -25 12
-33 16 -8 3 -4 4 8 2 20 -4 23 -1 19 15 -5 18 -2 19 31 12 47 -10 272 -10 335
1 26 4 45 11 42 17 -3 5 1 6 9 3 9 -3 16 -8 16 -10z m-528 -41 c-5 -28 -42
-32 -42 -5 0 14 2 15 10 2 5 -8 12 -11 16 -7 4 3 2 12 -4 20 -8 10 -7 13 7 13
13 0 16 -6 13 -23z"/>
<path d="M1433 253 c9 -2 23 -2 30 0 6 3 -1 5 -18 5 -16 0 -22 -2 -12 -5z"/>
<path d="M1923 253 c-39 -5 -42 -14 -8 -29 20 -10 27 -9 37 3 7 8 21 19 33 23
18 8 18 9 -5 8 -14 -1 -40 -3 -57 -5z"/>
<path d="M1480 203 c0 -51 6 -54 14 -8 6 42 6 42 16 20 7 -17 9 -17 9 -2 1 9
9 17 18 17 24 0 13 6 -24 13 l-33 7 0 -47z"/>
<path d="M1013 216 c-40 -5 -73 -13 -73 -18 0 -5 11 -6 24 -2 13 3 27 1 30 -5
9 -13 105 -14 126 -1 12 7 11 10 -5 16 -11 4 -22 10 -25 13 -3 3 -38 2 -77 -3z"/>
<path d="M1785 222 c-16 -14 -110 -31 -133 -25 -20 5 -22 1 -22 -36 0 -31 7
-49 25 -68 l24 -27 23 20 c13 12 31 24 41 27 9 4 17 14 17 22 0 10 5 13 12 9
7 -4 8 -3 4 4 -4 7 -1 12 9 12 12 0 14 6 9 26 -4 17 -2 29 7 35 8 5 9 9 4 9
-6 0 -15 -4 -20 -8z m-60 -72 c4 -6 -6 -10 -22 -9 -25 0 -26 1 -8 9 11 5 21 9
22 9 1 1 5 -3 8 -9z"/>
<path d="M865 200 c3 -5 13 -10 21 -10 8 0 14 5 14 10 0 6 -9 10 -21 10 -11 0
-17 -4 -14 -10z"/>
<path d="M1480 140 c0 -5 5 -10 10 -10 6 0 10 5 10 10 0 6 -4 10 -10 10 -5 0
-10 -4 -10 -10z"/>
</g>
</svg>
