<?xml version="1.0" standalone="no"?>
<!DOCTYPE svg PUBLIC "-//W3C//DTD SVG 20010904//EN"
 "http://www.w3.org/TR/2001/REC-SVG-20010904/DTD/svg10.dtd">
<svg version="1.0" xmlns="http://www.w3.org/2000/svg"
 width="244.000000pt" height="206.000000pt" viewBox="0 0 244.000000 206.000000"
 preserveAspectRatio="xMidYMid meet">

<g transform="translate(0.000000,206.000000) scale(0.100000,-0.100000)"
fill="#000000" stroke="none">
<path d="M0 1334 l0 -727 34 -38 c19 -21 38 -53 41 -73 l7 -34 81 -6 c234 -17
249 -17 241 -4 -5 10 -4 11 6 1 12 -11 11 -16 -6 -28 -10 -9 13 1 53 22 39 21
71 38 70 39 -8 5 -76 -10 -72 -16 3 -4 -2 -11 -11 -14 -12 -4 -15 -2 -10 9 4
12 -6 15 -63 15 -53 0 -71 4 -84 18 -10 10 -14 22 -10 25 3 4 -2 7 -13 7 -18
0 -19 8 -19 118 0 64 4 120 9 123 5 4 70 15 145 25 117 16 130 20 96 26 -22 4
-73 4 -113 1 l-73 -6 3 39 3 39 125 5 c69 3 114 7 100 9 -14 2 -29 3 -34 2 -4
-1 -6 12 -4 28 2 17 1 28 -4 25 -4 -3 -8 -16 -8 -30 0 -23 -3 -24 -55 -24
l-55 0 -2 83 -2 82 -6 -85 -6 -85 -2 67 c-1 37 -6 69 -10 72 -5 3 -6 -22 -4
-56 5 -67 -5 -82 -48 -73 -14 2 -19 2 -12 -1 7 -3 12 -24 12 -52 0 -41 -4 -49
-27 -59 -15 -7 -29 -11 -31 -8 -3 2 2 7 11 11 9 3 13 12 10 21 -5 12 -7 12
-14 1 -7 -11 -11 -10 -19 2 -5 8 -10 20 -10 25 0 6 4 4 9 -4 7 -11 13 -7 25
18 9 17 12 31 7 31 -5 0 -11 -6 -14 -12 -6 -18 -25 1 -31 32 -2 14 -11 44 -20
68 -9 24 -15 46 -15 50 1 4 -2 18 -6 30 -6 18 -10 20 -16 10 -7 -10 -9 -9 -9
5 0 9 -4 17 -10 17 -5 0 -10 7 -10 15 0 8 5 15 10 15 6 0 10 -6 10 -14 0 -7 9
-16 19 -19 14 -3 20 2 24 19 2 13 0 24 -4 24 -5 0 -9 -8 -9 -17 0 -10 -9 0
-19 22 -15 34 -16 43 -4 60 17 26 17 40 -2 23 -60 -55 -71 -48 -17 11 28 31
38 50 37 72 -1 16 1 29 5 29 4 0 12 18 19 39 15 51 41 62 42 18 1 -18 3 -24 6
-14 2 9 9 15 14 12 5 -4 9 -1 9 4 0 20 18 11 24 -11 5 -18 8 -20 15 -9 7 11 9
11 14 0 3 -8 4 -2 2 12 -2 19 1 26 13 26 44 0 62 4 62 12 0 11 -103 6 -121 -5
-7 -4 -15 -2 -17 4 -2 7 -9 12 -16 12 -7 0 -21 9 -31 20 -19 21 -7 28 13 8 9
-9 16 -6 32 12 11 13 20 19 20 14 0 -6 -5 -15 -12 -22 -6 -6 -8 -15 -3 -19 4
-5 10 -2 12 5 3 6 9 10 14 7 5 -4 6 1 3 9 -3 9 2 17 15 21 12 3 21 13 21 20 0
8 7 18 16 23 11 6 6 9 -20 9 -19 0 -33 -4 -31 -8 3 -4 -4 -5 -14 -2 -18 5 -18
6 -3 22 10 9 25 15 34 13 13 -3 15 1 11 17 -3 13 1 29 10 39 9 9 20 29 26 44
5 15 20 32 32 38 12 7 19 8 15 2 -7 -12 11 -27 44 -35 27 -7 59 7 47 20 -5 4
-11 2 -15 -4 -4 -6 -15 -7 -28 -2 -29 10 -39 28 -20 35 20 8 21 24 1 24 -17 0
-19 9 -5 30 7 12 12 12 29 -4 21 -19 21 -19 21 4 0 20 4 22 30 17 22 -5 30 -3
30 8 0 8 12 15 28 17 l27 3 -23 13 c-20 12 -26 11 -43 -4 -10 -9 -19 -12 -19
-6 0 6 -3 19 -7 29 -6 16 -5 16 10 4 9 -7 18 -10 18 -5 1 5 2 15 3 23 0 8 8
16 16 18 13 4 13 3 0 -6 -11 -7 -12 -13 -4 -21 9 -9 15 -7 25 7 25 35 129 78
187 78 30 0 51 4 48 10 -2 6 8 11 21 11 22 2 23 1 9 -15 -25 -28 -18 -37 8
-11 14 12 31 20 39 17 8 -3 20 0 26 6 8 8 15 6 29 -6 15 -14 21 -14 43 -3 15
7 85 16 170 20 79 4 194 11 254 15 162 10 208 0 400 -88 22 -10 47 -21 55 -24
12 -4 11 -6 -2 -6 -25 -1 -22 -18 5 -27 21 -7 21 -7 2 -15 -15 -6 -16 -8 -4
-8 9 -1 27 7 40 18 18 15 21 22 12 33 -9 11 -8 16 6 25 14 9 18 8 18 -3 0 -7
-4 -11 -8 -8 -15 9 0 -95 17 -122 33 -50 119 -69 172 -38 l27 16 -27 -25 c-24
-23 -25 -26 -10 -41 12 -12 13 -19 5 -27 -14 -14 14 -79 34 -79 7 0 13 -7 13
-15 0 -8 4 -15 9 -15 5 0 12 -8 16 -19 3 -10 17 -31 31 -46 18 -20 25 -36 22
-56 -3 -15 0 -27 5 -26 5 1 21 -23 35 -53 15 -30 32 -54 37 -53 16 2 36 -19
31 -33 -3 -7 0 -15 7 -18 9 -5 9 -7 0 -12 -12 -5 -9 -156 3 -196 3 -10 0 -18
-6 -18 -6 0 -8 -4 -5 -10 3 -6 -2 -10 -11 -10 -10 0 -14 -3 -10 -7 4 -5 13 -8
18 -8 6 0 13 -6 16 -12 2 -8 -6 -13 -22 -13 -23 0 -26 4 -26 35 0 27 -4 35
-17 34 -11 0 -13 -3 -5 -6 17 -7 15 -50 -3 -57 -12 -4 -15 3 -15 30 0 33 -2
36 -22 30 -13 -3 -39 -6 -59 -6 -34 0 -35 -2 -31 -30 4 -28 2 -29 -27 -27 -27
2 -31 6 -31 29 0 21 -6 29 -25 34 -32 8 -40 1 -26 -23 10 -17 10 -17 11 0 0
28 25 14 28 -16 3 -25 0 -27 -32 -27 -31 0 -36 3 -36 23 0 18 -2 19 -10 7 -23
-36 -13 -40 93 -40 l104 0 1 -30 c0 -17 -4 -28 -9 -25 -5 4 -9 15 -9 26 0 11
-4 18 -9 15 -5 -3 -7 -14 -4 -24 4 -16 -1 -18 -31 -14 -22 3 -36 0 -36 -7 0
-6 7 -8 15 -5 8 4 15 1 15 -5 0 -6 -9 -11 -21 -11 -11 0 -18 -4 -14 -10 3 -5
12 -7 20 -3 8 3 15 0 15 -6 0 -6 -7 -11 -15 -11 -8 0 -15 -4 -15 -10 0 -5 -5
-10 -10 -10 -6 0 -10 23 -9 55 2 51 4 55 23 50 17 -5 18 -4 6 4 -20 14 -60 14
-60 0 0 -5 5 -7 10 -4 6 3 10 -1 10 -10 0 -11 -5 -15 -15 -11 -10 3 -15 -1
-16 -12 0 -14 -2 -14 -9 3 -7 17 -9 17 -9 3 -1 -11 -9 -18 -21 -18 -27 0 -29
50 -2 51 13 0 14 2 2 6 -35 14 -43 73 -10 73 11 0 20 5 20 10 0 6 -5 9 -11 8
-24 -6 -19 44 7 69 14 13 25 26 23 28 -2 1 -31 12 -64 23 -33 11 -83 30 -111
41 -29 11 -55 17 -59 13 -4 -4 -5 34 -4 85 l4 92 -25 -5 c-20 -4 -22 -3 -10 5
12 8 12 11 1 11 -11 0 -10 5 3 24 9 14 12 27 7 31 -6 3 -14 -3 -20 -12 -6 -10
-11 -12 -11 -6 0 9 -7 10 -25 3 -14 -5 -25 -7 -25 -5 0 3 12 10 26 16 33 12
26 22 -10 13 -14 -3 -26 -12 -26 -19 0 -10 -7 -10 -32 -1 -18 6 -38 14 -43 18
-6 3 -47 19 -93 34 -55 18 -79 30 -70 35 10 7 10 9 1 9 -7 0 -13 11 -13 25 0
14 -4 25 -10 25 -5 0 -7 -13 -5 -30 2 -16 -1 -30 -6 -30 -16 0 -11 88 6 97 12
7 12 10 -3 20 -15 9 -18 8 -18 -6 0 -9 -1 -35 -2 -58 l-2 -43 -55 24 c-31 14
-57 21 -60 15 -4 -5 -1 -9 6 -9 7 0 9 -3 6 -7 -4 -3 5 -12 19 -20 31 -16 48
-17 39 -2 -4 5 10 3 32 -6 21 -10 70 -28 108 -41 124 -43 176 -67 163 -76 -9
-5 -9 -8 -2 -8 7 0 15 -12 18 -26 5 -18 11 -24 23 -20 11 4 14 2 9 -9 -3 -8
-1 -15 3 -15 5 0 12 7 15 16 8 22 8 26 -4 19 -5 -3 -10 -1 -10 4 0 6 5 11 12
11 6 0 8 3 5 6 -4 4 -14 1 -24 -7 -15 -12 -16 -12 -10 3 3 9 1 18 -6 21 -7 2
4 3 25 3 20 -1 34 -4 31 -8 -2 -5 0 -8 6 -8 6 0 8 -6 5 -14 -3 -8 4 -16 18
-21 21 -7 20 -8 -12 -15 -32 -7 -32 -7 -7 -9 22 -1 27 -6 27 -26 0 -21 -5 -25
-27 -25 -20 0 -24 3 -14 9 11 7 10 10 -5 15 -11 3 -7 4 9 2 15 -2 27 1 27 5 0
5 -21 9 -46 9 -27 0 -43 4 -39 10 3 6 1 10 -4 10 -10 0 -18 -238 -12 -342 1
-20 -4 -28 -16 -29 -27 -1 26 -17 61 -18 35 -1 24 15 -14 22 -16 3 -9 5 18 6
40 1 42 2 31 22 -8 15 -8 19 0 15 7 -5 10 2 9 18 -2 23 -7 26 -43 28 l-40 1
40 4 c22 3 43 10 47 16 4 7 8 -28 8 -78 0 -49 4 -85 8 -78 6 9 71 18 170 22 6
1 12 5 12 11 0 5 -13 7 -29 4 -25 -5 -29 -3 -35 26 -12 60 -7 108 12 119 13 8
2 10 -43 9 -41 -1 -48 -3 -22 -5 l37 -4 0 -74 0 -73 -38 -4 -39 -3 -1 55 c-1
30 -5 83 -8 118 -6 54 -4 62 10 62 11 0 14 -5 10 -12 -5 -7 -3 -8 6 -3 17 11
135 -26 118 -37 -10 -7 -10 -8 2 -7 38 4 39 3 33 -144 l-6 -143 35 -17 c19 -9
46 -21 59 -26 13 -5 19 -10 13 -10 -6 -1 -9 -12 -6 -26 2 -14 0 -25 -5 -25 -5
0 -10 -7 -10 -15 0 -8 9 -15 19 -15 22 0 24 -17 3 -23 -11 -4 -10 -4 2 -3 21
2 31 36 10 36 -9 0 -12 9 -9 30 3 22 10 30 24 30 18 0 20 -5 14 -31 -3 -17 -6
-52 -6 -78 0 -40 -3 -47 -20 -48 -11 -1 -20 4 -20 13 0 8 -4 14 -10 14 -5 0
-10 -9 -10 -20 0 -15 7 -20 25 -20 18 0 25 -5 25 -20 0 -11 -5 -20 -11 -20 -6
0 -9 6 -6 13 3 7 -3 13 -14 13 -16 0 -16 -3 6 -32 31 -41 68 -133 62 -155 -3
-12 0 -16 9 -12 17 6 17 3 -1 47 -8 20 -12 36 -8 36 5 0 1 5 -7 10 -16 10 -17
72 -4 234 5 66 9 77 18 63 10 -12 32 -17 97 -19 73 -3 84 -5 83 -20 0 -10 -1
-63 -2 -118 l-2 -100 -30 0 c-22 0 -30 -5 -29 -17 0 -11 3 -13 6 -5 9 23 23
12 23 -17 0 -25 -4 -30 -22 -28 -13 0 -26 6 -30 12 -5 6 -8 6 -8 -2 0 -7 -4
-13 -10 -13 -5 0 -10 14 -10 31 0 24 4 30 15 25 8 -3 15 -1 15 4 0 6 -9 10
-20 10 -16 0 -20 -7 -20 -34 0 -32 -2 -34 -25 -30 -14 2 -25 0 -25 -6 0 -5 3
-9 8 -9 4 1 47 1 96 0 138 -2 98 -15 -60 -20 -28 -1 -30 -3 -28 -33 6 -67 20
-111 38 -122 34 -20 75 -66 60 -66 -9 0 -12 -4 -9 -10 3 -5 0 -10 -9 -10 -8 0
-17 6 -19 13 -3 6 -6 -10 -6 -37 -1 -64 -10 -54 -17 19 -10 110 -3 105 -162
105 l-138 0 3 38 c4 37 4 37 -11 12 -9 -14 -15 -39 -16 -57 l0 -32 128 -5 c70
-3 139 -6 153 -7 25 -2 27 -5 33 -73 16 -171 14 -166 53 -166 38 0 38 1 17 69
-5 17 -4 22 4 17 7 -4 15 -25 18 -47 l7 -40 73 2 74 2 0 154 0 153 -52 -6
c-49 -5 -54 -4 -63 18 -13 30 -50 36 -65 9 -6 -12 -19 -21 -29 -21 -15 0 -20
11 -26 48 -4 26 -12 50 -18 54 -7 4 0 8 16 8 15 0 27 -6 27 -12 0 -10 2 -10 8
-1 7 12 102 15 102 4 0 -2 -8 -10 -17 -17 -24 -17 -18 -20 55 -28 l62 -7 0
851 0 850 -1220 0 -1220 0 0 -726z m2070 616 c0 -5 3 -9 8 -9 31 5 51 -2 45
-18 -4 -10 -2 -14 4 -10 15 9 -1 -78 -18 -99 -8 -10 -9 -15 -3 -11 19 11 24
-20 6 -35 -15 -11 -16 -11 -7 2 9 14 9 14 -5 0 -8 -8 -26 -21 -40 -28 -54 -28
-121 30 -119 102 l2 41 6 -48 c5 -31 15 -55 31 -70 l23 -22 -21 29 c-24 31
-28 78 -12 121 8 20 7 24 -3 19 -9 -6 -9 -4 1 8 7 9 21 14 31 11 11 -3 21 2
24 11 7 17 47 22 47 6z m-1810 -34 c0 -2 -7 -7 -16 -10 -8 -3 -12 -2 -9 4 6
10 25 14 25 6z m2018 -43 c-2 -20 -9 -28 -22 -28 -11 0 -21 6 -23 13 -3 6 2
12 11 12 8 0 18 5 22 12 5 8 2 9 -9 5 -9 -3 -19 -2 -22 3 -4 6 6 10 20 10 23
0 26 -4 23 -27z m-368 -3 c0 -5 -4 -10 -10 -10 -5 0 -10 5 -10 10 0 6 5 10 10
10 6 0 10 -4 10 -10z m420 -20 c0 -5 -4 -10 -10 -10 -5 0 -10 5 -10 10 0 6 5
10 10 10 6 0 10 -4 10 -10z m-17 -17 c3 -5 -6 -16 -19 -26 -27 -20 -30 -16
-12 13 13 21 24 25 31 13z m-79 -59 c3 -8 2 -12 -4 -9 -6 3 -10 10 -10 16 0
14 7 11 14 -7z m-2025 -345 c-16 -10 -23 -4 -14 10 3 6 11 8 17 5 6 -4 5 -9
-3 -15z m1497 -134 c14 -13 13 -15 -5 -15 -12 0 -21 6 -21 15 0 8 3 15 6 15 3
0 12 -7 20 -15z m78 -47 c-1 -10 -2 -25 -3 -33 -1 -11 -14 -15 -51 -15 -38 0
-50 4 -50 15 0 8 8 15 18 16 14 0 14 2 -3 9 -18 8 -17 9 8 9 15 1 27 -5 28
-11 0 -10 2 -10 6 0 2 6 14 12 26 13 20 1 20 2 -3 10 l-25 8 25 -2 c17 -1 25
-8 24 -19z m-42 -65 c-6 -2 -9 -10 -5 -16 4 -7 -2 -5 -12 3 -11 9 -16 10 -11
3 5 -9 0 -13 -13 -13 -21 0 -27 11 -14 23 3 4 20 7 37 6 17 0 25 -3 18 -6z
m38 -18 c0 -23 -4 -25 -47 -27 l-48 -1 45 -7 45 -7 -47 -1 c-37 -2 -48 2 -48
13 0 11 12 15 45 15 38 0 45 3 45 20 0 11 2 20 5 20 3 0 5 -11 5 -25z m-1663
-32 c-3 -10 -5 -2 -5 17 0 19 2 27 5 18 2 -10 2 -26 0 -35z m1888 -22 c3 -5 1
-12 -5 -16 -5 -3 -10 1 -10 9 0 18 6 21 15 7z m-252 -8 c-13 -2 -35 -2 -50 0
-16 2 -5 4 22 4 28 0 40 -2 28 -4z m34 -115 c-2 -24 -4 -5 -4 42 0 47 2 66 4
43 2 -24 2 -62 0 -85z m-54 95 c-7 -2 -19 -2 -25 0 -7 3 -2 5 12 5 14 0 19 -2
13 -5z m-26 -39 c-3 -3 -12 -4 -19 -1 -8 3 -5 6 6 6 11 1 17 -2 13 -5z m493
-43 c0 -17 -12 -41 -21 -41 -5 0 -9 11 -9 25 0 16 6 25 15 25 8 0 15 -4 15 -9z
m32 -3 c6 -17 -1 -38 -13 -38 -5 0 -9 11 -9 25 0 26 14 34 22 13z m-499 -5
c-7 -2 -21 -2 -30 0 -10 3 -4 5 12 5 17 0 24 -2 18 -5z m523 -30 c-11 -11 -17
4 -9 23 7 18 8 18 11 1 2 -10 1 -21 -2 -24z m-2081 -23 c-3 -5 -12 -10 -18
-10 -7 0 -6 4 3 10 19 12 23 12 15 0z m2063 -7 c-2 -13 3 -17 15 -15 14 2 17
-1 13 -15 -2 -10 -6 -34 -8 -53 -2 -29 0 -34 15 -32 25 4 21 -14 -5 -23 -47
-15 -101 -17 -109 -3 -13 20 -11 31 6 24 11 -4 15 1 15 17 0 27 10 41 31 49
11 4 15 15 11 37 -3 19 0 31 7 31 7 0 11 -8 9 -17z m52 6 c0 -5 -9 -9 -20 -9
-11 0 -20 4 -20 8 0 4 9 8 20 9 11 1 20 -2 20 -8z m40 1 c0 -5 -4 -10 -10 -10
-5 0 -10 5 -10 10 0 6 5 10 10 10 6 0 10 -4 10 -10z m-42 -87 c-9 -12 -9 -15
0 -9 6 4 12 2 12 -3 0 -6 -7 -11 -15 -11 -12 0 -14 7 -11 28 2 15 5 36 6 47 1
16 4 15 12 -8 7 -21 6 -32 -4 -44z m42 57 c0 -5 -2 -10 -4 -10 -3 0 -8 5 -11
10 -3 6 -1 10 4 10 6 0 11 -4 11 -10z m-2150 -10 c0 -5 -4 -10 -10 -10 -5 0
-10 5 -10 10 0 6 5 10 10 10 6 0 10 -4 10 -10z m1898 -39 l2 -28 -45 10 c-53
12 -59 26 -10 22 24 -1 35 2 35 12 0 26 16 13 18 -16z m97 19 c3 -5 -1 -10 -9
-10 -9 0 -16 5 -16 10 0 6 4 10 9 10 6 0 13 -4 16 -10z m-1982 -14 c4 -10 1
-13 -8 -9 -8 3 -12 9 -9 14 7 12 11 11 17 -5z m1977 -21 c0 -8 -4 -15 -10 -15
-5 0 -10 7 -10 15 0 8 5 15 10 15 6 0 10 -7 10 -15z m-1986 -55 c-5 -5 -9 4
-10 23 -1 30 -1 30 9 9 6 -14 7 -26 1 -32z m23 28 c-3 -8 -6 -5 -6 6 -1 11 2
17 5 13 3 -3 4 -12 1 -19z m1933 2 c0 -5 -4 -10 -10 -10 -5 0 -10 5 -10 10 0
6 5 10 10 10 6 0 10 -4 10 -10z m-1692 -7 c-10 -2 -26 -2 -35 0 -10 3 -2 5 17
5 19 0 27 -2 18 -5z m-95 -10 c-7 -2 -21 -2 -30 0 -10 3 -4 5 12 5 17 0 24 -2
18 -5z m1762 -3 c3 -6 -1 -7 -9 -4 -18 7 -21 14 -7 14 6 0 13 -4 16 -10z m172
-16 c-3 -3 -12 -4 -19 -1 -8 3 -5 6 6 6 11 1 17 -2 13 -5z m-2067 -24 c0 -5
-5 -10 -11 -10 -5 0 -7 5 -4 10 3 6 8 10 11 10 2 0 4 -4 4 -10z m10 -30 c0 -5
-2 -10 -4 -10 -3 0 -8 5 -11 10 -3 6 -1 10 4 10 6 0 11 -4 11 -10z m2117 -107
c-2 -21 -4 -4 -4 37 0 41 2 58 4 38 2 -21 2 -55 0 -75z m-2119 -95 c-1 -29 -3
-45 -6 -35 -2 9 -8 15 -13 12 -5 -4 -9 -1 -9 5 0 6 -6 8 -12 5 -7 -4 -5 0 6 9
11 9 16 22 12 31 -3 9 -2 13 4 10 6 -3 10 -1 10 4 0 6 2 11 5 11 2 0 4 -24 3
-52z m2117 12 c3 -5 1 -10 -4 -10 -6 0 -11 5 -11 10 0 6 2 10 4 10 3 0 8 -4
11 -10z m-29 -55 c1 -14 -2 -25 -7 -25 -5 0 -9 11 -9 25 0 33 15 33 16 0z
m-68 -194 c8 -5 12 -15 10 -24 -2 -12 -7 -10 -21 9 -18 24 -13 31 11 15z m164
-35 c-3 -25 -8 -33 -18 -29 -8 3 -14 0 -14 -6 0 -6 -8 -11 -17 -11 -14 0 -19
10 -21 40 l-2 40 38 0 c37 0 38 -1 34 -34z m-44 -92 c4 2 8 -10 9 -27 l2 -32
-19 35 c-10 19 -15 39 -12 45 4 5 8 2 10 -8 2 -9 7 -15 10 -13z"/>
<path d="M1718 1213 c12 -2 30 -2 40 0 9 3 -1 5 -23 4 -22 0 -30 -2 -17 -4z"/>
<path d="M2239 893 c-1 -5 -1 -11 -1 -14 1 -4 -9 -10 -22 -13 -16 -4 -22 -12
-20 -28 1 -13 3 -27 3 -33 1 -5 5 -4 10 4 5 8 7 20 4 28 -4 9 3 16 16 20 12 3
21 13 21 24 0 18 -9 27 -11 12z"/>
<path d="M2231 814 c0 -11 3 -14 6 -6 3 7 2 16 -1 19 -3 4 -6 -2 -5 -13z"/>
<path d="M607 1813 c-14 -13 -7 -25 8 -13 16 13 50 6 40 -9 -3 -5 0 -13 6 -17
6 -3 15 0 20 7 13 22 -55 52 -74 32z"/>
<path d="M725 1770 c-3 -5 -1 -10 4 -10 6 0 11 5 11 10 0 6 -2 10 -4 10 -3 0
-8 -4 -11 -10z"/>
<path d="M758 1773 c7 -3 16 -2 19 1 4 3 -2 6 -13 5 -11 0 -14 -3 -6 -6z"/>
<path d="M787 1764 c-4 -4 -7 -17 -7 -28 1 -19 1 -20 11 -3 11 19 8 43 -4 31z"/>
<path d="M1850 1760 c-12 -8 -9 -10 12 -10 15 0 30 5 33 10 8 13 -25 13 -45 0z"/>
<path d="M1798 1713 c7 -3 16 -2 19 1 4 3 -2 6 -13 5 -11 0 -14 -3 -6 -6z"/>
<path d="M556 1685 c-3 -8 -16 -16 -28 -16 -17 -1 -18 -3 -6 -6 20 -5 64 22
50 31 -6 3 -12 -1 -16 -9z"/>
<path d="M650 1679 c0 -5 5 -7 10 -4 6 3 10 8 10 11 0 2 -4 4 -10 4 -5 0 -10
-5 -10 -11z"/>
<path d="M1407 1683 c-4 -3 -7 -11 -7 -17 0 -6 4 -5 9 3 13 21 54 4 48 -20 -3
-10 -1 -17 4 -13 15 9 10 33 -10 44 -23 12 -35 13 -44 3z"/>
<path d="M2085 1670 c3 -5 11 -10 16 -10 6 0 7 5 4 10 -3 6 -11 10 -16 10 -6
0 -7 -4 -4 -10z"/>
<path d="M1648 1658 c6 -6 18 -8 28 -6 14 3 12 5 -9 10 -19 3 -25 2 -19 -4z"/>
<path d="M1660 1628 c0 -19 17 -23 39 -9 8 5 9 11 3 15 -6 3 -14 1 -18 -5 -4
-8 -9 -7 -15 2 -7 11 -9 10 -9 -3z"/>
<path d="M2012 1620 c0 -14 2 -19 5 -12 2 6 2 18 0 25 -3 6 -5 1 -5 -13z"/>
<path d="M558 1583 c-25 -27 -58 -84 -58 -100 0 -4 12 12 26 37 14 25 35 55
46 68 12 12 19 22 17 22 -3 0 -17 -12 -31 -27z"/>
<path d="M1468 1604 c-3 -5 3 -17 14 -26 21 -21 24 -10 5 17 -8 10 -16 14 -19
9z"/>
<path d="M1580 1599 c0 -5 5 -7 10 -4 6 3 10 8 10 11 0 2 -4 4 -10 4 -5 0 -10
-5 -10 -11z"/>
<path d="M2071 1594 c0 -11 3 -14 6 -6 3 7 2 16 -1 19 -3 4 -6 -2 -5 -13z"/>
<path d="M1205 1573 c-11 -2 -49 -18 -85 -35 -36 -16 -110 -47 -165 -68 -126
-48 -260 -111 -283 -134 -13 -14 83 27 101 42 11 10 17 11 17 4 0 -20 18 -13
25 9 4 13 12 18 21 15 9 -3 12 -1 9 4 -6 9 10 14 42 13 7 -1 10 3 7 8 -3 5 2
10 10 10 9 1 19 2 24 3 14 3 227 78 242 85 8 4 34 6 58 3 l42 -4 0 -60 c0 -52
-3 -63 -25 -80 -14 -11 -25 -24 -25 -29 0 -6 -6 -17 -14 -25 -8 -8 -18 -34
-21 -59 -7 -40 -10 -44 -39 -48 l-31 -4 31 -1 c21 -1 34 -9 42 -24 9 -20 11
-17 11 25 1 54 26 87 67 87 14 0 23 4 20 9 -15 24 81 46 114 26 17 -10 38 -67
54 -140 8 -38 15 -58 15 -42 1 20 6 27 21 27 16 0 20 7 22 33 4 94 -12 137
-61 161 -22 10 -44 16 -49 12 -6 -3 -12 0 -14 6 -3 8 -24 13 -56 13 l-52 0 0
63 0 62 -42 0 -43 1 28 15 c41 22 34 29 -18 17z"/>
<path d="M1519 1544 c6 -12 27 -31 46 -43 20 -12 33 -17 30 -11 -3 5 -2 10 4
10 5 0 11 -6 14 -12 2 -8 3 -7 3 2 -1 8 -8 16 -16 16 -8 1 -21 2 -28 3 -7 0
-10 6 -6 13 4 6 3 8 -4 4 -6 -3 -21 4 -33 16 -21 22 -21 22 -10 2z"/>
<path d="M449 1475 c17 -20 31 -40 31 -45 0 -6 5 -10 10 -10 6 0 10 11 10 25
0 14 -3 24 -7 23 -5 -2 -18 7 -30 20 -37 36 -48 25 -14 -13z"/>
<path d="M433 1456 c7 -14 13 -23 15 -21 7 6 -9 45 -18 45 -4 0 -3 -11 3 -24z"/>
<path d="M1205 1460 c4 -6 11 -8 16 -5 14 9 11 15 -7 15 -8 0 -12 -5 -9 -10z"/>
<path d="M1997 1409 c7 -7 15 -10 18 -7 3 3 -2 9 -12 12 -14 6 -15 5 -6 -5z"/>
<path d="M2063 1403 c-7 -2 -13 -9 -13 -15 0 -7 4 -7 13 0 6 5 23 12 37 15
l25 4 -25 1 c-14 0 -31 -2 -37 -5z"/>
<path d="M458 1393 c7 -3 16 -2 19 1 4 3 -2 6 -13 5 -11 0 -14 -3 -6 -6z"/>
<path d="M2135 1390 c-8 -12 28 -30 42 -22 7 5 2 12 -13 19 -13 6 -26 7 -29 3z"/>
<path d="M1918 1363 c4 -23 2 -25 -18 -20 -16 4 -20 3 -12 -5 15 -15 42 -2 42
21 0 15 8 21 38 24 35 3 34 4 -9 5 -45 2 -46 1 -41 -25z"/>
<path d="M2021 1374 c0 -11 3 -14 6 -6 3 7 2 16 -1 19 -3 4 -6 -2 -5 -13z"/>
<path d="M2105 1381 c-6 -5 -19 -11 -30 -14 -14 -3 -10 -5 11 -6 21 -1 31 4
31 14 0 18 0 18 -12 6z"/>
<path d="M1980 1360 c12 -7 8 -10 -15 -11 l-30 -1 29 -8 c16 -5 33 -7 37 -4
13 8 -2 34 -20 34 -14 0 -14 -2 -1 -10z"/>
<path d="M1138 1343 c6 -2 18 -2 25 0 6 3 1 5 -13 5 -14 0 -19 -2 -12 -5z"/>
<path d="M753 1269 c-2 -88 -14 -103 -78 -106 -76 -3 -235 -36 -206 -43 17 -4
3 -9 -48 -18 -39 -8 -80 -11 -91 -7 -14 4 -20 2 -20 -8 0 -19 23 -28 41 -16 8
5 28 9 45 9 17 0 47 6 65 14 19 8 56 17 84 22 40 6 46 9 30 15 -13 6 -5 7 25
4 28 -3 38 -2 26 3 -12 5 4 8 48 9 63 0 66 -1 66 -23 0 -22 -4 -24 -52 -25
-57 0 -116 -17 -68 -18 15 -1 20 -4 13 -9 -16 -10 -21 -102 -5 -102 4 0 9 19
11 42 3 53 11 64 11 15 0 -35 2 -37 33 -37 32 0 32 0 29 45 -3 37 -1 45 13 45
14 0 15 -8 11 -47 l-6 -48 14 40 c15 45 30 284 18 301 -4 7 -8 -19 -9 -57z
m-220 -146 c-7 -2 -21 -2 -30 0 -10 3 -4 5 12 5 17 0 24 -2 18 -5z m158 -116
c-8 -8 -11 1 -11 29 0 53 14 67 18 19 2 -21 -1 -42 -7 -48z m-24 11 c-2 -13
-4 -3 -4 22 0 25 2 35 4 23 2 -13 2 -33 0 -45z"/>
<path d="M1320 1270 c0 -5 4 -10 9 -10 5 0 7 -8 4 -19 -6 -25 17 -38 32 -18 9
12 14 14 23 5 7 -7 12 -8 12 -2 0 6 -6 16 -12 23 -11 10 -9 11 7 6 20 -7 20
-6 1 9 -22 18 -76 22 -76 6z"/>
<path d="M1226 1254 c-9 -8 -16 -25 -15 -37 0 -12 3 -16 6 -9 7 17 23 15 23
-3 0 -8 6 -15 14 -15 18 0 30 30 17 43 -5 5 -7 16 -4 23 7 19 -22 18 -41 -2z"/>
<path d="M950 1189 c0 -7 -20 -10 -54 -7 -30 1 -52 0 -49 -4 2 -5 29 -8 59 -8
41 0 54 4 54 15 0 8 -2 15 -5 15 -3 0 -5 -5 -5 -11z"/>
<path d="M863 1080 c0 -47 2 -66 4 -42 2 23 2 61 0 85 -2 23 -4 4 -4 -43z"/>
<path d="M903 1080 c0 -47 2 -66 4 -42 2 23 2 61 0 85 -2 23 -4 4 -4 -43z"/>
<path d="M1270 1142 c0 -5 14 -7 30 -4 17 2 30 6 30 8 0 2 -13 4 -30 4 -16 0
-30 -4 -30 -8z"/>
<path d="M1480 1140 c0 -5 5 -10 11 -10 5 0 7 5 4 10 -3 6 -8 10 -11 10 -2 0
-4 -4 -4 -10z"/>
<path d="M940 1065 c0 -38 2 -66 5 -64 7 8 9 119 2 126 -4 3 -7 -24 -7 -62z"/>
<path d="M1264 1109 c-18 -22 -18 -22 0 -15 16 5 17 4 6 -9 -14 -16 -45 -21
-35 -5 3 6 1 10 -4 10 -13 0 -13 -3 -5 -23 3 -9 13 -13 24 -10 22 6 56 -22 40
-32 -5 -3 -10 -3 -10 0 0 4 -7 0 -15 -9 -14 -13 -13 -21 6 -72 21 -56 27 -63
86 -110 l32 -25 30 33 c29 33 70 142 58 155 -4 3 -7 -3 -7 -14 0 -34 -57 -103
-85 -103 -17 0 -25 6 -26 18 0 13 -3 12 -11 -5 -13 -27 -23 -29 -32 -7 -4 10
-2 13 6 8 18 -11 -3 19 -24 34 -29 21 -22 39 12 34 17 -2 30 -8 30 -13 0 -9
35 17 82 63 30 29 37 51 13 42 -8 -4 -15 -12 -15 -18 0 -8 -15 -12 -42 -11
-36 1 -44 5 -46 23 -3 16 -10 22 -30 22 -26 1 -26 1 7 15 39 17 44 18 37 6 -3
-5 1 -12 10 -15 24 -9 34 -7 28 7 -6 17 -34 33 -70 41 -24 5 -34 2 -50 -15z"/>
<path d="M348 1103 c6 -2 18 -2 25 0 6 3 1 5 -13 5 -14 0 -19 -2 -12 -5z"/>
<path d="M842 1090 c0 -14 2 -19 5 -12 2 6 2 18 0 25 -3 6 -5 1 -5 -13z"/>
<path d="M502 1070 c0 -14 2 -19 5 -12 2 6 2 18 0 25 -3 6 -5 1 -5 -13z"/>
<path d="M1095 1078 c-11 -27 9 -70 36 -80 21 -7 22 -7 7 6 -10 7 -18 24 -18
37 0 13 -4 31 -10 39 -8 12 -10 12 -15 -2z"/>
<path d="M1170 1076 c0 -8 5 -18 10 -21 6 -3 10 1 10 9 0 8 -4 18 -10 21 -5 3
-10 -1 -10 -9z"/>
<path d="M2120 1060 c0 -5 5 -10 11 -10 5 0 7 5 4 10 -3 6 -8 10 -11 10 -2 0
-4 -4 -4 -10z"/>
<path d="M841 1044 c0 -11 3 -14 6 -6 3 7 2 16 -1 19 -3 4 -6 -2 -5 -13z"/>
<path d="M2110 1018 c0 -4 4 -8 9 -8 6 0 12 4 15 8 3 5 -1 9 -9 9 -8 0 -15 -4
-15 -9z"/>
<path d="M262 1000 c0 -14 2 -19 5 -12 2 6 2 18 0 25 -3 6 -5 1 -5 -13z"/>
<path d="M501 994 c0 -11 3 -14 6 -6 3 7 2 16 -1 19 -3 4 -6 -2 -5 -13z"/>
<path d="M873 983 c15 -2 37 -2 50 0 12 2 0 4 -28 4 -27 0 -38 -2 -22 -4z"/>
<path d="M720 976 c0 -2 7 -6 15 -10 8 -3 15 -1 15 4 0 6 -7 10 -15 10 -8 0
-15 -2 -15 -4z"/>
<path d="M695 930 c-3 -5 -1 -10 4 -10 6 0 11 5 11 10 0 6 -2 10 -4 10 -3 0
-8 -4 -11 -10z"/>
<path d="M742 910 c0 -19 2 -27 5 -17 2 9 2 25 0 35 -3 9 -5 1 -5 -18z"/>
<path d="M1813 890 c6 -11 20 -20 30 -20 15 0 16 2 5 13 -7 7 -21 16 -30 20
-15 5 -16 4 -5 -13z"/>
<path d="M668 853 c12 -2 32 -2 45 0 12 2 2 4 -23 4 -25 0 -35 -2 -22 -4z"/>
<path d="M950 849 c0 -35 12 -57 28 -52 10 4 13 2 8 -5 -4 -7 -2 -12 3 -12 15
0 14 5 -14 46 -14 20 -25 31 -25 23z"/>
<path d="M578 843 c12 -2 30 -2 40 0 9 3 -1 5 -23 4 -22 0 -30 -2 -17 -4z"/>
<path d="M515 830 c40 -9 112 -13 104 -6 -2 2 -35 6 -74 9 -54 4 -61 4 -30 -3z"/>
<path d="M663 833 c15 -2 37 -2 50 0 12 2 0 4 -28 4 -27 0 -38 -2 -22 -4z"/>
<path d="M1061 824 c0 -11 3 -14 6 -6 3 7 2 16 -1 19 -3 4 -6 -2 -5 -13z"/>
<path d="M739 825 c-1 -10 -5 -68 -8 -120 -1 -16 1 -45 5 -62 3 -19 2 -33 -3
-33 -5 0 -10 -7 -10 -15 0 -8 4 -15 9 -15 4 0 7 -8 6 -17 -1 -10 0 -36 1 -58
2 -38 2 -39 17 -20 8 11 19 20 24 20 4 0 12 3 16 8 4 4 -5 7 -19 7 -15 0 -27
5 -27 10 0 6 11 8 25 6 14 -3 25 0 25 5 0 5 -8 9 -17 10 -15 0 -15 2 -3 7 8 4
15 19 15 33 1 21 -3 25 -22 21 -13 -2 -23 1 -23 7 0 6 13 11 30 11 l29 0 4
-72 c1 -40 3 -1 3 87 0 88 -1 134 -3 103 -4 -56 -4 -57 -33 -55 -17 1 -30 6
-30 11 0 4 9 6 20 3 23 -6 26 3 8 21 -9 9 -9 12 3 13 7 1 3 5 -11 9 -24 8 -24
8 -2 9 12 1 22 6 22 12 0 5 -4 7 -10 4 -5 -3 -10 -1 -10 4 0 6 7 11 15 11 8 0
15 6 15 14 0 8 -9 13 -22 12 -13 -1 -26 3 -30 9 -5 6 -8 6 -9 0z m59 -152
c-10 -2 -26 -2 -35 0 -10 3 -2 5 17 5 19 0 27 -2 18 -5z m12 -23 c0 -5 -13
-10 -30 -10 -16 0 -30 4 -30 8 0 4 14 9 30 10 17 1 30 -2 30 -8z"/>
<path d="M908 823 c7 -3 16 -2 19 1 4 3 -2 6 -13 5 -11 0 -14 -3 -6 -6z"/>
<path d="M892 790 c0 -14 -2 -34 -6 -45 -4 -11 0 -8 9 8 11 20 13 32 6 45 -9
15 -10 13 -9 -8z"/>
<path d="M1780 770 c-12 -16 -19 -30 -16 -30 2 0 14 14 26 30 12 17 19 30 16
30 -2 0 -14 -13 -26 -30z"/>
<path d="M1631 764 c0 -11 3 -14 6 -6 3 7 2 16 -1 19 -3 4 -6 -2 -5 -13z"/>
<path d="M301 750 c-1 -3 -3 -44 -4 -93 -1 -48 -1 -83 1 -77 2 6 67 8 183 3
115 -4 179 -3 179 4 0 5 -14 8 -30 5 -17 -2 -60 -1 -96 3 l-65 7 2 59 c1 32
-1 62 -4 66 -4 3 -7 -24 -7 -60 l0 -67 -41 0 c-41 0 -41 1 -35 30 3 17 1 30
-4 30 -6 0 -10 -13 -10 -30 0 -25 -4 -30 -23 -30 -22 0 -25 6 -34 78 -5 42
-11 75 -12 72z"/>
<path d="M347 743 c28 -4 32 -8 36 -41 l4 -37 1 38 2 37 86 0 86 0 -4 -70 c-2
-38 0 -64 4 -57 4 7 8 38 8 69 0 54 1 57 28 61 15 2 -43 4 -128 4 -85 0 -141
-2 -123 -4z"/>
<path d="M1272 710 c0 -19 7 -46 14 -60 14 -24 14 -23 8 15 -11 63 -22 87 -22
45z"/>
<path d="M653 670 c0 -36 2 -50 4 -32 2 17 2 47 0 65 -2 17 -4 3 -4 -33z"/>
<path d="M1726 694 c-12 -11 -13 -20 -6 -34 13 -25 13 -51 0 -30 -8 12 -10 10
-10 -8 0 -13 4 -21 8 -18 4 2 3 -20 -3 -51 l-10 -55 -20 78 c-13 54 -21 71
-23 54 -2 -14 -9 -31 -15 -39 -8 -10 -8 -13 -1 -8 18 10 39 -94 25 -121 -8
-15 -8 -22 -1 -22 5 0 13 0 18 -1 4 0 10 10 13 23 4 14 6 4 5 -24 -1 -39 -4
-48 -19 -48 -10 0 -25 7 -33 15 -9 8 -24 15 -34 15 -10 0 -20 -7 -24 -15 -4
-11 1 -15 17 -15 28 0 48 -13 39 -25 -15 -22 -71 -54 -112 -65 -49 -13 -46
-21 18 -37 l47 -11 -55 3 -55 4 53 -10 c59 -12 62 -11 65 20 1 11 4 21 7 21 4
0 16 20 28 44 20 40 26 44 58 44 40 0 92 41 90 70 -1 13 9 18 39 20 l40 2 -32
-16 c-40 -20 -51 -44 -20 -43 12 0 16 3 9 6 -16 6 3 33 23 33 6 0 20 10 31 22
13 15 14 19 3 10 -14 -11 -20 -8 -38 20 -11 18 -21 28 -21 21 0 -6 5 -15 10
-18 20 -12 9 -25 -20 -25 -28 0 -30 2 -27 33 2 25 7 32 22 30 11 -1 14 0 8 3
-7 3 -13 10 -13 15 0 17 -43 69 -52 63 -4 -3 -8 2 -8 10 0 9 -5 16 -11 16 -5
0 -7 4 -4 10 8 12 15 50 10 50 -2 0 -11 -7 -19 -16z"/>
<path d="M1767 698 c2 -5 18 -8 35 -8 17 0 28 3 24 8 -4 4 -20 7 -36 7 -15 0
-26 -3 -23 -7z"/>
<path d="M2200 674 c0 -8 5 -12 10 -9 6 4 8 11 5 16 -9 14 -15 11 -15 -7z"/>
<path d="M1123 650 c-6 -17 -7 -28 -2 -24 14 8 11 -19 -7 -61 -8 -20 -10 -34
-5 -30 7 4 11 -10 11 -39 0 -43 -7 -55 -24 -39 -10 10 -37 13 -31 3 3 -5 -7
-11 -22 -13 -27 -4 -27 -4 3 -6 18 0 34 -8 38 -16 3 -8 12 -15 21 -15 8 0 15
-3 15 -8 0 -4 23 -6 51 -5 57 3 81 13 30 13 -19 0 -30 4 -26 10 3 6 1 10 -4
10 -6 0 -11 -4 -11 -10 0 -5 -6 -10 -14 -10 -9 0 -14 12 -14 35 0 19 3 33 7
31 3 -2 7 11 8 30 1 19 -3 33 -9 31 -6 -1 -13 4 -16 12 -3 8 0 11 7 7 8 -5 11
12 11 58 0 36 -1 66 -3 66 -1 0 -8 -14 -14 -30z m-6 -216 c-3 -3 -12 -4 -19
-1 -8 3 -5 6 6 6 11 1 17 -2 13 -5z"/>
<path d="M1798 673 c7 -3 16 -2 19 1 4 3 -2 6 -13 5 -11 0 -14 -3 -6 -6z"/>
<path d="M2068 663 c12 -2 20 -9 17 -14 -4 -5 -1 -9 4 -9 6 0 11 7 11 15 0 10
-9 15 -27 14 -24 -2 -25 -2 -5 -6z"/>
<path d="M2200 638 c0 -4 6 -8 14 -8 8 0 17 4 20 8 2 4 -4 8 -15 8 -10 0 -19
-4 -19 -8z"/>
<path d="M2130 630 c0 -5 7 -7 15 -4 8 4 15 8 15 10 0 2 -7 4 -15 4 -8 0 -15
-4 -15 -10z"/>
<path d="M956 605 c-9 -26 -7 -32 5 -12 6 10 9 21 6 23 -2 3 -7 -2 -11 -11z"/>
<path d="M1090 581 c-6 -12 -7 -21 -1 -21 10 0 24 30 17 37 -2 3 -9 -5 -16
-16z"/>
<path d="M2182 580 c0 -14 2 -19 5 -12 2 6 2 18 0 25 -3 6 -5 1 -5 -13z"/>
<path d="M2156 581 c-4 -7 -5 -15 -2 -18 9 -9 19 4 14 18 -4 11 -6 11 -12 0z"/>
<path d="M2270 576 c0 -2 7 -6 15 -10 8 -3 15 -1 15 4 0 6 -7 10 -15 10 -8 0
-15 -2 -15 -4z"/>
<path d="M851 534 c0 -11 3 -14 6 -6 3 7 2 16 -1 19 -3 4 -6 -2 -5 -13z"/>
<path d="M1045 530 c-3 -5 -1 -10 4 -10 6 0 11 5 11 10 0 6 -2 10 -4 10 -3 0
-8 -4 -11 -10z"/>
<path d="M2133 515 c0 -11 4 -12 11 -5 17 17 34 11 39 -12 4 -20 4 -19 6 5 1
23 -3 27 -27 27 -19 0 -29 -5 -29 -15z"/>
<path d="M997 468 c-37 -39 -38 -41 -22 -65 9 -14 19 -22 23 -18 4 3 0 10 -7
14 -10 6 -10 10 -1 16 6 4 9 13 6 20 -3 8 2 19 10 26 13 11 39 50 32 48 -2 0
-20 -18 -41 -41z"/>
<path d="M780 479 c0 -5 5 -7 10 -4 6 3 10 8 10 11 0 2 -4 4 -10 4 -5 0 -10
-5 -10 -11z"/>
<path d="M1610 455 c0 -14 5 -25 11 -25 5 0 8 4 4 9 -3 5 2 11 10 13 13 2 12
5 -5 16 -18 11 -20 10 -20 -13z"/>
<path d="M820 439 c17 -57 38 -72 94 -65 57 6 61 9 49 31 -9 15 -11 15 -22 1
-22 -26 -94 -19 -97 9 -1 6 -5 20 -9 33 -11 34 -25 26 -15 -9z"/>
<path d="M1240 456 c0 -2 8 -10 18 -17 15 -13 16 -12 3 4 -13 16 -21 21 -21
13z"/>
<path d="M710 442 c0 -4 17 -6 38 -4 58 5 62 10 10 11 -27 1 -48 -3 -48 -7z"/>
<path d="M1321 428 c-1 -17 -20 -21 -31 -6 -3 4 -11 -1 -17 -12 -11 -17 -8
-19 52 -22 42 -2 65 1 65 8 0 6 -12 9 -29 6 -24 -3 -30 0 -34 19 -3 15 -5 17
-6 7z"/>
<path d="M1435 410 c-3 -6 1 -7 9 -4 18 7 21 14 7 14 -6 0 -13 -4 -16 -10z"/>
<path d="M360 400 c-9 -6 -10 -10 -3 -10 6 0 15 5 18 10 8 12 4 12 -15 0z"/>
<path d="M1411 394 c0 -11 3 -14 6 -6 3 7 2 16 -1 19 -3 4 -6 -2 -5 -13z"/>
<path d="M1176 379 c3 -5 12 -9 21 -9 19 0 9 13 -12 16 -8 1 -13 -2 -9 -7z"/>
<path d="M2078 369 c-47 -24 -49 -34 -4 -15 19 8 36 12 39 10 2 -2 4 3 4 11 0
8 -1 15 -1 15 -1 -1 -18 -10 -38 -21z"/>
<path d="M88 363 c6 -2 18 -2 25 0 6 3 1 5 -13 5 -14 0 -19 -2 -12 -5z"/>
<path d="M121 352 c-33 -11 -45 -12 -51 -3 -4 7 -10 -12 -14 -42 -3 -31 -9
-63 -12 -71 -4 -10 31 5 92 39 96 55 139 85 102 72 -10 -4 -18 -2 -18 4 0 6
-8 6 -21 -2 -16 -8 -24 -8 -33 1 -8 8 -7 10 7 5 9 -4 17 -5 17 -2 0 12 -29 12
-69 -1z"/>
<path d="M1146 355 c-4 -11 1 -15 17 -14 12 0 16 3 9 6 -6 2 -10 9 -6 14 3 5
1 9 -4 9 -6 0 -12 -7 -16 -15z"/>
<path d="M1039 347 c5 -5 26 -7 47 -5 l39 3 -47 5 c-26 3 -43 1 -39 -3z"/>
<path d="M1980 338 c0 -9 -6 -19 -12 -21 -10 -4 -10 -6 0 -6 14 -1 28 26 18
36 -3 4 -6 -1 -6 -9z"/>
<path d="M1213 333 c9 -2 23 -2 30 0 6 3 -1 5 -18 5 -16 0 -22 -2 -12 -5z"/>
<path d="M2005 330 c-3 -6 1 -7 9 -4 18 7 21 14 7 14 -6 0 -13 -4 -16 -10z"/>
<path d="M1153 323 c9 -2 23 -2 30 0 6 3 -1 5 -18 5 -16 0 -22 -2 -12 -5z"/>
<path d="M1448 323 c12 -2 30 -2 40 0 9 3 -1 5 -23 4 -22 0 -30 -2 -17 -4z"/>
<path d="M1672 264 c-18 -31 -32 -60 -32 -65 0 -5 -6 -9 -12 -10 -7 0 -2 -5
11 -10 29 -11 38 -5 22 15 -10 11 -9 16 1 23 13 8 51 93 45 99 -2 2 -17 -22
-35 -52z"/>
<path d="M1745 254 c-19 -45 -19 -44 5 -44 17 0 20 7 20 40 0 22 -2 40 -5 40
-3 0 -12 -16 -20 -36z"/>
<path d="M1816 258 c-3 -18 -8 -43 -10 -55 -4 -18 0 -23 15 -23 22 0 23 4 9
31 -7 13 -7 19 0 19 5 0 10 14 10 30 0 40 -16 38 -24 -2z"/>
<path d="M2 229 c-1 -25 2 -28 14 -18 11 9 12 15 2 28 -7 9 -13 17 -14 19 0 1
-1 -12 -2 -29z"/>
<path d="M1158 233 c7 -3 16 -2 19 1 4 3 -2 6 -13 5 -11 0 -14 -3 -6 -6z"/>
<path d="M1205 230 c-3 -5 -1 -10 4 -10 6 0 11 5 11 10 0 6 -2 10 -4 10 -3 0
-8 -4 -11 -10z"/>
<path d="M1464 225 c11 -8 24 -15 30 -15 5 0 1 7 -10 15 -10 8 -23 14 -29 14
-5 0 -1 -6 9 -14z"/>
<path d="M1101 214 c0 -11 3 -14 6 -6 3 7 2 16 -1 19 -3 4 -6 -2 -5 -13z"/>
<path d="M1588 167 c46 -24 80 -46 75 -50 -4 -5 0 -5 10 -2 14 6 14 9 2 21 -7
8 -18 14 -23 14 -4 0 -36 14 -70 30 -94 45 -89 35 6 -13z"/>
<path d="M1725 189 c-8 -12 -6 -15 22 -23 18 -6 20 -4 16 14 -6 21 -28 27 -38
9z"/>
<path d="M2018 183 c7 -3 16 -2 19 1 4 3 -2 6 -13 5 -11 0 -14 -3 -6 -6z"/>
<path d="M1958 173 c7 -3 16 -2 19 1 4 3 -2 6 -13 5 -11 0 -14 -3 -6 -6z"/>
<path d="M1825 150 l-20 -9 20 0 c11 0 29 4 40 9 l20 9 -20 0 c-11 0 -29 -4
-40 -9z"/>
<path d="M1778 133 c7 -3 16 -2 19 1 4 3 -2 6 -13 5 -11 0 -14 -3 -6 -6z"/>
<path d="M100 116 c0 -2 8 -10 18 -17 15 -13 16 -12 3 4 -13 16 -21 21 -21 13z"/>
<path d="M1176 83 c-4 -21 -9 -47 -12 -58 -4 -16 -3 -17 4 -5 11 17 26 100 19
100 -3 0 -8 -17 -11 -37z"/>
<path d="M7 94 c-4 -4 -7 -27 -7 -51 l0 -43 75 0 75 0 0 28 c0 15 -5 34 -11
42 -9 13 -10 12 -5 -2 3 -10 1 -28 -4 -40 -9 -22 -9 -22 -9 3 -1 15 -10 37
-21 50 l-20 24 10 -30 c10 -30 10 -30 -7 -8 -19 23 -64 39 -76 27z"/>
<path d="M831 89 c-18 -6 -31 -12 -29 -14 5 -5 78 14 78 20 0 6 -8 5 -49 -6z"/>
<path d="M1402 80 c0 -14 2 -19 5 -12 2 6 2 18 0 25 -3 6 -5 1 -5 -13z"/>
<path d="M1840 50 c-20 -6 -21 -8 -5 -8 11 0 29 3 40 8 25 11 -1 11 -35 0z"/>
<path d="M515 40 c-35 -5 145 -17 525 -37 58 -3 102 -3 99 1 -3 3 -107 13
-230 21 -296 19 -346 21 -394 15z"/>
<path d="M1431 24 c0 -11 3 -14 6 -6 3 7 2 16 -1 19 -3 4 -6 -2 -5 -13z"/>
</g>
</svg>
