<?xml version="1.0" standalone="no"?>
<!DOCTYPE svg PUBLIC "-//W3C//DTD SVG 20010904//EN"
 "http://www.w3.org/TR/2001/REC-SVG-20010904/DTD/svg10.dtd">
<svg version="1.0" xmlns="http://www.w3.org/2000/svg"
 width="275.000000pt" height="183.000000pt" viewBox="0 0 275.000000 183.000000"
 preserveAspectRatio="xMidYMid meet">

<g transform="translate(0.000000,183.000000) scale(0.100000,-0.100000)"
fill="#000000" stroke="none">
<path d="M0 915 l0 -915 1375 0 1375 0 0 915 0 915 -1375 0 -1375 0 0 -915z
m765 524 c-30 -540 -38 -664 -42 -669 -10 -9 28 766 43 898 14 124 14 27 -1
-229z m-495 165 c0 -8 -5 -12 -10 -9 -6 4 -8 11 -5 16 9 14 15 11 15 -7z m694
-210 c5 -14 4 -15 -9 -4 -17 14 -19 20 -6 20 5 0 12 -7 15 -16z m-24 -65 c6
-10 7 -19 2 -19 -5 0 -14 12 -20 26 -14 29 2 24 18 -7z m20 -55 c0 -9 12 -14
36 -14 35 0 36 -1 31 -30 -5 -22 -2 -32 11 -39 13 -8 9 -11 -23 -11 -38 -1
-39 -1 -20 -17 19 -15 19 -15 -10 -8 -16 3 -38 14 -49 23 -20 19 -50 72 -43
78 2 3 10 -9 17 -26 7 -16 17 -30 22 -30 6 0 7 7 4 15 -3 8 -9 22 -12 30 -4
10 0 15 12 16 11 0 14 3 7 6 -7 2 -13 11 -13 19 0 8 6 11 15 8 8 -4 15 -12 15
-20z m171 -127 c-10 -9 -11 -8 -5 6 3 10 9 15 12 12 3 -3 0 -11 -7 -18z m167
-73 c0 -17 -3 -22 -8 -13 -5 6 -6 18 -3 26 8 19 11 16 11 -13z m42 -35 c0 -6
-4 -7 -10 -4 -5 3 -10 11 -10 16 0 6 5 7 10 4 6 -3 10 -11 10 -16z m-307 -59
c-3 -11 -9 -20 -15 -20 -5 0 -4 9 2 20 6 11 12 20 14 20 2 0 2 -9 -1 -20z
m217 -40 c0 -5 -4 -10 -10 -10 -5 0 -10 5 -10 10 0 6 5 10 10 10 6 0 10 -4 10
-10z m50 -69 c0 -11 -4 -9 -15 5 -8 10 -15 25 -15 33 0 11 4 9 15 -5 8 -10 15
-25 15 -33z m-146 4 c-7 -19 -14 -44 -14 -55 0 -11 -4 -20 -10 -20 -5 0 -10 5
-10 11 0 5 -4 7 -10 4 -5 -3 3 17 18 45 30 57 48 67 26 15z m-54 10 c0 -3 -7
-17 -16 -31 -9 -13 -18 -35 -19 -47 -1 -12 -3 -28 -4 -34 -1 -18 -31 -16 -31
1 0 17 28 86 42 104 11 12 28 17 28 7z m125 -35 c3 -5 1 -10 -4 -10 -6 0 -11
5 -11 10 0 6 2 10 4 10 3 0 8 -4 11 -10z m265 -60 c0 -5 -5 -10 -11 -10 -5 0
-7 5 -4 10 3 6 8 10 11 10 2 0 4 -4 4 -10z m-288 -59 c24 -12 25 -16 15 -45
-11 -31 -17 -42 -51 -78 -16 -18 -20 -19 -33 -5 -14 13 -13 22 7 82 12 36 25
65 28 63 4 -2 19 -10 34 -17z m378 -41 c0 -5 -6 -10 -14 -10 -8 0 -18 5 -21
10 -3 6 3 10 14 10 12 0 21 -4 21 -10z m-870 -20 c0 -5 -2 -10 -4 -10 -3 0 -8
5 -11 10 -3 6 -1 10 4 10 6 0 11 -4 11 -10z"/>
</g>
</svg>
