<?xml version="1.0" standalone="no"?>
<!DOCTYPE svg PUBLIC "-//W3C//DTD SVG 20010904//EN"
 "http://www.w3.org/TR/2001/REC-SVG-20010904/DTD/svg10.dtd">
<svg version="1.0" xmlns="http://www.w3.org/2000/svg"
 width="265.000000pt" height="190.000000pt" viewBox="0 0 265.000000 190.000000"
 preserveAspectRatio="xMidYMid meet">

<g transform="translate(0.000000,190.000000) scale(0.100000,-0.100000)"
fill="#000000" stroke="none">
<path d="M1087 1813 c-4 -3 -7 -205 -7 -448 l0 -441 68 -11 c55 -9 1155 -201
1244 -217 l26 -5 6 92 c3 51 16 296 27 544 17 363 19 456 9 468 -10 13 -53 15
-266 15 l-254 0 0 -28 0 -29 227 -6 c124 -4 229 -9 231 -12 7 -6 -36 -956 -43
-963 -3 -3 -119 13 -258 36 -138 23 -405 67 -592 97 -187 30 -350 57 -362 60
l-23 5 0 401 0 402 68 -7 c37 -3 182 -6 322 -7 l255 -2 0 29 0 29 -336 3
c-184 1 -338 -1 -342 -5z"/>
<path d="M321 1710 c-23 -32 -28 -60 -9 -60 9 0 88 75 88 83 0 1 -13 3 -29 4
-21 1 -34 -6 -50 -27z"/>
<path d="M440 1731 c0 -3 -14 -14 -30 -23 -17 -9 -35 -29 -41 -44 -5 -15 -21
-39 -34 -52 -14 -13 -28 -41 -31 -61 -10 -49 -54 -84 -54 -42 0 11 -4 23 -10
26 -5 3 -10 1 -10 -5 0 -6 -4 -8 -10 -5 -5 3 -10 -3 -10 -13 0 -11 -7 -33 -15
-48 -8 -16 -15 -46 -15 -66 0 -20 -5 -40 -11 -44 -8 -4 -7 -9 2 -14 10 -7 10
-11 0 -23 -10 -12 -10 -20 1 -36 14 -22 28 -28 28 -11 0 6 7 10 15 10 8 0 15
-5 15 -12 0 -19 44 -78 58 -78 7 0 15 -7 19 -16 3 -8 17 -20 30 -25 17 -6 23
-15 21 -31 -2 -18 9 -29 62 -58 35 -19 81 -51 101 -71 l37 -37 11 25 c6 13 8
29 5 35 -4 6 -2 8 3 5 6 -4 16 -1 22 7 8 10 24 12 51 9 53 -7 85 14 95 64 4
21 12 44 17 51 6 7 8 15 4 19 -3 3 -6 1 -6 -5 0 -19 -17 -14 -22 6 -2 9 -1 28
3 42 7 24 7 24 9 -5 l2 -30 7 30 c4 17 3 32 -1 35 -10 8 2 110 13 110 16 0 39
58 44 112 4 35 -1 74 -12 117 -15 53 -24 68 -58 92 -26 19 -56 30 -85 33 -25
2 -47 5 -50 6 -3 1 -9 2 -14 1 -5 -1 -13 4 -17 10 -8 13 -139 23 -139 10z
m220 -485 c-1 -19 -2 -19 -15 4 -20 35 -19 62 0 36 8 -11 15 -29 15 -40z"/>
<path d="M1698 1683 c18 -2 45 -2 60 0 15 2 0 4 -33 4 -33 0 -45 -2 -27 -4z"/>
<path d="M1680 1653 c0 -13 3 -14 12 -5 18 18 32 14 17 -5 -13 -15 -12 -15 8
-4 19 10 22 9 17 -4 -4 -11 -2 -13 9 -9 25 9 28 32 4 38 -41 11 -67 7 -67 -11z"/>
<path d="M215 1600 c-3 -5 -1 -10 4 -10 6 0 11 5 11 10 0 6 -2 10 -4 10 -3 0
-8 -4 -11 -10z"/>
<path d="M155 1517 c-13 -30 -25 -43 -35 -41 -8 3 -5 -1 8 -7 30 -16 28 -27
-5 -32 -23 -3 -21 -4 9 -6 l37 -1 6 54 c10 75 3 85 -20 33z"/>
<path d="M1622 1528 c-16 -16 -15 -40 3 -64 15 -19 15 -19 35 4 16 19 17 27 8
48 -12 26 -28 30 -46 12z"/>
<path d="M2101 1531 c-8 -5 -11 -16 -7 -27 4 -10 1 -21 -6 -26 -9 -5 -5 -8 11
-8 18 0 22 4 19 18 -4 12 1 18 13 19 12 1 16 -3 12 -13 -3 -8 0 -14 6 -14 6 0
11 11 11 25 0 14 -4 25 -9 25 -5 0 -15 2 -23 5 -7 3 -19 1 -27 -4z"/>
<path d="M1234 1435 c-13 -33 4 -45 59 -45 37 0 59 -5 67 -15 9 -11 16 -13 24
-5 5 5 18 10 28 10 13 0 18 8 18 29 0 28 -1 28 -67 34 -101 10 -123 9 -129 -8z"/>
<path d="M1578 1423 c6 -2 18 -2 25 0 6 3 1 5 -13 5 -14 0 -19 -2 -12 -5z"/>
<path d="M1718 1413 c12 -2 30 -2 40 0 9 3 -1 5 -23 4 -22 0 -30 -2 -17 -4z"/>
<path d="M1825 1400 c-3 -6 1 -7 9 -4 18 7 21 14 7 14 -6 0 -13 -4 -16 -10z"/>
<path d="M110 1380 c32 -25 40 -25 40 3 0 14 -3 18 -8 10 -5 -8 -13 -9 -22 -3
-28 18 -35 10 -10 -10z"/>
<path d="M1958 1393 c6 -2 18 -2 25 0 6 3 1 5 -13 5 -14 0 -19 -2 -12 -5z"/>
<path d="M2060 1375 c-7 -9 -11 -17 -9 -20 3 -2 10 5 17 15 14 24 10 26 -8 5z"/>
<path d="M2121 1373 c7 -12 15 -20 18 -17 3 2 -3 12 -13 22 -17 16 -18 16 -5
-5z"/>
<path d="M1811 1364 c0 -11 3 -14 6 -6 3 7 2 16 -1 19 -3 4 -6 -2 -5 -13z"/>
<path d="M2210 1348 c0 -23 3 -29 9 -19 8 12 4 51 -5 51 -2 0 -4 -15 -4 -32z"/>
<path d="M1641 1354 c0 -11 3 -14 6 -6 3 7 2 16 -1 19 -3 4 -6 -2 -5 -13z"/>
<path d="M1824 1331 c7 -11 46 -35 46 -28 0 3 -12 12 -26 22 -15 9 -23 12 -20
6z"/>
<path d="M2041 1324 c0 -11 3 -14 6 -6 3 7 2 16 -1 19 -3 4 -6 -2 -5 -13z"/>
<path d="M1708 1323 c6 -2 18 -2 25 0 6 3 1 5 -13 5 -14 0 -19 -2 -12 -5z"/>
<path d="M2230 1325 c0 -5 5 -17 10 -25 5 -8 10 -10 10 -5 0 6 -5 17 -10 25
-5 8 -10 11 -10 5z"/>
<path d="M1641 1294 c0 -11 3 -14 6 -6 3 7 2 16 -1 19 -3 4 -6 -2 -5 -13z"/>
<path d="M788 1260 c-4 -19 -10 -46 -13 -60 -3 -14 2 -7 10 15 9 22 14 49 13
60 -2 13 -6 8 -10 -15z"/>
<path d="M1886 1277 c3 -10 9 -15 12 -12 3 3 0 11 -7 18 -10 9 -11 8 -5 -6z"/>
<path d="M2122 1283 c9 -2 19 -16 21 -31 4 -24 4 -24 6 6 1 27 -2 32 -21 31
-16 -1 -18 -3 -6 -6z"/>
<path d="M2288 1224 c-2 -25 0 -51 4 -57 4 -7 8 14 8 46 0 68 -7 75 -12 11z"/>
<path d="M1190 1241 c0 -26 4 -28 80 -33 36 -3 54 -3 40 -1 -14 2 -31 12 -39
21 -10 12 -15 14 -18 5 -3 -7 -13 -13 -23 -13 -13 0 -17 5 -13 20 4 14 0 20
-11 20 -9 0 -16 -8 -16 -19z"/>
<path d="M1960 1231 c0 -17 4 -32 8 -35 4 -2 6 11 4 30 -5 42 -12 45 -12 5z"/>
<path d="M1887 1225 c-8 -18 -38 -20 -57 -2 -12 10 -12 9 -1 -5 7 -10 21 -18
31 -18 18 0 47 27 38 36 -3 3 -8 -2 -11 -11z"/>
<path d="M1708 1223 c6 -2 18 -2 25 0 6 3 1 5 -13 5 -14 0 -19 -2 -12 -5z"/>
<path d="M2202 1200 c0 -19 2 -27 5 -17 2 9 2 25 0 35 -3 9 -5 1 -5 -18z"/>
<path d="M2050 1214 c0 -18 27 -36 47 -31 14 4 14 5 -4 6 -12 0 -27 9 -32 19
-6 9 -11 12 -11 6z"/>
<path d="M2125 1209 c-4 -6 -5 -12 -2 -15 2 -3 7 2 10 11 7 17 1 20 -8 4z"/>
<path d="M1378 1193 c7 -3 16 -2 19 1 4 3 -2 6 -13 5 -11 0 -14 -3 -6 -6z"/>
<path d="M1458 1183 c6 -2 18 -2 25 0 6 3 1 5 -13 5 -14 0 -19 -2 -12 -5z"/>
<path d="M1510 1149 c10 -35 34 -59 57 -59 17 0 53 36 53 54 0 8 10 17 23 19
12 2 -1 5 -29 6 -28 0 -65 4 -82 7 l-31 6 9 -33z"/>
<path d="M1703 1153 c9 -2 23 -2 30 0 6 3 -1 5 -18 5 -16 0 -22 -2 -12 -5z"/>
<path d="M1760 1131 c0 -11 6 -22 13 -25 10 -5 10 -7 0 -12 -21 -10 -16 -54 6
-54 11 0 27 -3 37 -7 12 -4 15 -3 10 5 -4 7 -3 12 1 12 14 0 15 63 1 72 -10 6
-10 8 2 8 28 1 -12 20 -42 20 -21 0 -28 -5 -28 -19z m64 -63 c-3 -4 -11 -2
-18 5 -10 8 -11 14 -3 19 13 8 29 -11 21 -24z"/>
<path d="M1470 1018 c0 -45 2 -48 25 -48 31 0 31 5 0 55 l-24 40 -1 -47z"/>
<path d="M900 964 c0 -8 5 -12 10 -9 6 4 8 11 5 16 -9 14 -15 11 -15 -7z"/>
<path d="M965 971 c-3 -5 -1 -12 5 -16 5 -3 10 1 10 9 0 18 -6 21 -15 7z"/>
<path d="M937 963 c-9 -9 -9 -51 1 -56 4 -3 7 10 8 29 1 37 0 37 -9 27z"/>
<path d="M1001 918 l-14 -33 -7 30 c-8 30 -8 30 -9 4 -2 -41 -29 -45 -46 -6
-11 25 -15 28 -16 12 -3 -35 -2 -50 5 -71 5 -17 2 -22 -18 -26 -13 -3 -32 -1
-41 4 -28 16 -27 4 5 -55 16 -31 30 -66 30 -77 0 -11 4 -20 9 -20 4 0 6 -11 3
-25 -3 -18 0 -25 12 -25 9 0 16 -4 16 -10 0 -5 7 -10 15 -10 21 0 19 -10 -7
-37 -23 -25 -13 -30 27 -11 27 12 32 24 13 31 -7 3 -2 6 12 7 14 1 34 4 45 6
11 2 55 6 97 7 72 3 109 14 81 24 -25 9 -12 23 21 23 32 0 34 2 32 35 -1 19 2
35 7 35 4 0 5 5 2 10 -12 20 -50 10 -65 -17 -15 -27 -17 -28 -95 -24 -44 1
-82 7 -85 11 -3 4 -16 10 -30 11 -21 3 -25 9 -24 36 1 17 9 46 19 65 9 18 19
44 21 58 2 14 6 35 9 48 8 33 -9 27 -24 -10z m-51 -69 c0 -11 -4 -17 -10 -14
-5 3 -10 13 -10 21 0 8 5 14 10 14 6 0 10 -9 10 -21z m-42 -62 c13 -15 30 -50
38 -79 18 -71 10 -73 -11 -3 -10 37 -27 66 -48 86 -18 16 -25 28 -18 27 8 -2
26 -15 39 -31z"/>
<path d="M856 927 c3 -10 9 -15 12 -12 3 3 0 11 -7 18 -10 9 -11 8 -5 -6z"/>
<path d="M879 909 c-7 -47 -5 -69 7 -69 10 0 12 9 7 33 -5 29 -12 47 -14 36z"/>
<path d="M810 880 c0 -5 5 -10 11 -10 5 0 7 5 4 10 -3 6 -8 10 -11 10 -2 0 -4
-4 -4 -10z"/>
<path d="M1180 750 c0 -5 4 -10 9 -10 6 0 13 5 16 10 3 6 -1 10 -9 10 -9 0
-16 -4 -16 -10z"/>
<path d="M753 683 c15 -2 37 -2 50 0 12 2 0 4 -28 4 -27 0 -38 -2 -22 -4z"/>
<path d="M871 683 c-1 -6 -4 -18 -7 -27 -4 -11 -1 -16 10 -16 18 0 19 6 6 35
-5 11 -9 15 -9 8z"/>
<path d="M786 625 c-25 -19 -12 -33 14 -17 11 7 30 12 42 13 22 0 22 1 3 9
-28 12 -37 11 -59 -5z"/>
<path d="M2420 628 c0 -4 9 -8 20 -8 11 0 20 4 20 9 0 6 -9 9 -20 8 -11 -1
-20 -5 -20 -9z"/>
<path d="M2310 613 c0 -5 6 -15 13 -22 10 -11 10 -13 0 -7 -19 10 -39 -4 -22
-15 12 -8 12 -10 0 -18 -11 -7 -11 -9 0 -14 10 -4 10 -6 2 -6 -7 -1 -13 -5
-13 -11 0 -5 6 -7 14 -4 8 3 17 1 21 -5 3 -6 -1 -11 -9 -11 -10 0 -13 -6 -10
-15 4 -10 13 -13 26 -9 15 4 18 3 13 -6 -6 -10 -1 -11 18 -6 16 4 27 1 31 -7
5 -9 7 -9 12 1 3 6 10 12 15 12 6 0 8 -4 5 -8 -3 -5 13 -9 35 -10 22 -1 38 2
34 7 -3 5 -1 12 4 15 5 4 12 2 16 -4 10 -17 26 0 20 21 -5 14 -2 19 10 19 11
0 15 5 12 14 -3 7 0 19 6 25 8 8 8 11 -2 11 -7 0 -9 5 -6 10 3 6 -1 13 -10 16
-12 5 -13 9 -5 14 16 10 -55 23 -80 15 -11 -4 -20 -11 -20 -16 0 -5 -7 -9 -15
-9 -8 0 -15 7 -15 15 0 10 -10 15 -27 15 -22 0 -25 -2 -13 -10 10 -6 11 -10 3
-10 -7 0 -13 -10 -13 -22 0 -28 -12 -16 -14 14 -1 21 -36 41 -36 21z"/>
<path d="M870 576 c0 -8 5 -18 10 -21 6 -3 10 3 10 14 0 12 -4 21 -10 21 -5 0
-10 -6 -10 -14z"/>
<path d="M900 574 c0 -14 3 -14 15 -4 8 7 15 14 15 16 0 2 -7 4 -15 4 -8 0
-15 -7 -15 -16z"/>
<path d="M2025 565 c-78 -64 -169 -119 -208 -126 -38 -7 -36 -7 21 -6 49 0 65
-3 76 -18 9 -12 15 -15 20 -7 4 7 2 12 -3 12 -6 0 -11 5 -11 10 0 13 37 13 45
0 7 -11 179 -5 198 7 6 3 7 1 3 -5 -5 -8 5 -12 31 -11 30 0 34 2 18 9 -18 8
-18 9 -2 9 10 1 27 -4 37 -9 12 -6 21 -7 25 0 3 5 -21 15 -55 22 -60 12 -75
23 -42 31 9 2 5 3 -9 1 -30 -3 -65 5 -94 23 -19 12 -19 14 -2 27 9 7 36 17 60
21 40 6 41 7 17 17 -14 5 -35 7 -48 5 -12 -2 -25 0 -28 4 -8 13 -16 11 -49
-16z"/>
<path d="M1323 573 c-7 -2 -13 -11 -13 -18 0 -18 -23 -25 -89 -25 -31 0 -62
-5 -68 -11 -9 -9 -21 -8 -48 5 -20 10 -43 18 -53 19 -23 1 -110 -32 -144 -55
l-27 -19 37 -33 c20 -19 48 -35 62 -36 45 -4 71 0 66 9 -4 5 -1 11 5 13 5 2 7
11 4 21 -8 19 -49 23 -90 7 -47 -18 -47 1 0 26 60 31 74 30 88 -6 13 -35 53
-44 44 -11 -6 25 2 27 83 29 36 1 90 7 121 14 47 10 55 15 51 30 -2 11 2 20
13 24 13 5 14 9 3 15 -14 10 -26 10 -45 2z"/>
<path d="M2628 533 c-24 -6 -23 -23 2 -23 11 0 20 7 20 15 0 8 -1 14 -2 14 -2
-1 -11 -3 -20 -6z"/>
<path d="M2100 519 c0 -5 5 -7 10 -4 6 3 10 8 10 11 0 2 -4 4 -10 4 -5 0 -10
-5 -10 -11z"/>
<path d="M728 493 c6 -2 18 -2 25 0 6 3 1 5 -13 5 -14 0 -19 -2 -12 -5z"/>
<path d="M665 470 c3 -5 8 -10 11 -10 2 0 4 5 4 10 0 6 -5 10 -11 10 -5 0 -7
-4 -4 -10z"/>
<path d="M1136 453 c-9 -22 -7 -33 4 -33 6 0 10 6 10 14 0 8 8 16 18 18 14 3
13 5 -5 10 -14 4 -24 1 -27 -9z"/>
<path d="M1221 457 c-25 -12 -49 -63 -50 -105 -1 -13 3 -20 9 -17 6 3 10 2 10
-3 0 -5 12 -7 28 -5 26 4 26 4 7 -12 -21 -17 -26 -72 -11 -130 5 -20 4 -25 -2
-16 -8 11 -10 11 -14 0 -4 -12 -7 -12 -21 0 -13 10 -17 10 -17 1 0 -10 -3 -10
-15 0 -12 10 -13 6 -8 -24 7 -43 -19 -80 -50 -72 -14 3 -17 0 -13 -11 4 -10
-3 -26 -15 -40 l-22 -23 284 0 284 0 10 23 c23 50 167 83 308 69 60 -6 77 -5
77 5 0 7 12 13 28 13 22 0 24 2 12 11 -11 8 -7 9 19 5 19 -4 32 -3 28 0 -4 4
-1 14 6 22 10 13 9 14 -3 7 -13 -8 -13 -6 -1 8 7 9 17 15 21 12 5 -3 16 5 24
17 15 21 15 23 -6 31 -22 9 -22 9 -3 16 16 7 13 9 -19 15 -21 4 -91 25 -155
47 -67 23 -126 38 -141 35 -14 -3 -81 -35 -149 -71 -87 -47 -127 -63 -134 -56
-8 8 -5 11 10 11 11 0 31 8 44 18 13 10 36 24 52 31 32 17 33 22 9 38 -16 9
-34 3 -107 -38 -48 -27 -94 -49 -102 -49 -28 0 -163 43 -163 52 0 15 32 71 62
111 37 47 23 48 -33 1 -30 -25 -44 -32 -50 -23 -18 29 23 79 64 79 29 0 30 1
11 15 -23 18 -71 19 -103 2z m35 -16 c-10 -4 -24 -18 -32 -32 -9 -17 -13 -19
-14 -7 0 32 12 48 39 47 21 0 23 -2 7 -8z m687 -187 c48 -16 54 -34 13 -34
-12 0 -51 -17 -87 -39 -84 -51 -101 -55 -143 -37 -58 24 -46 66 29 105 48 26
122 27 188 5z m-414 -66 c-4 -35 3 -47 31 -53 16 -4 32 -11 35 -15 3 -5 -16
-3 -42 5 -61 19 -90 18 -39 -1 55 -20 56 -24 5 -18 -24 3 -47 10 -51 17 -5 8
-10 7 -21 -1 -12 -10 -18 -9 -31 4 -9 9 -25 14 -36 11 -11 -3 -23 0 -27 5 -3
7 -1 8 5 4 7 -4 12 -3 12 3 0 5 -14 12 -31 16 -17 4 -28 9 -26 12 3 2 33 -3
68 -11 34 -9 64 -14 67 -11 3 3 -9 8 -26 11 -18 4 -29 10 -26 15 3 5 14 4 25
-1 13 -8 19 -7 19 0 0 8 11 9 30 5 19 -4 30 -3 30 4 0 6 7 11 15 11 9 0 15 -6
14 -12z"/>
<path d="M2550 442 c0 -13 45 -52 61 -52 8 0 10 -3 4 -8 -5 -4 -20 -21 -32
-39 -18 -25 -20 -32 -8 -37 8 -3 17 -1 19 3 3 5 17 6 31 3 21 -3 25 0 25 18 0
14 -8 24 -21 27 -11 3 -17 9 -12 12 11 8 33 48 33 61 0 5 -13 7 -29 4 -16 -3
-38 -1 -50 5 -11 7 -21 8 -21 3z"/>
<path d="M277 385 c-4 -22 -15 -78 -24 -125 -8 -47 -20 -90 -25 -97 -5 -7 -7
-17 -3 -23 3 -6 -3 -10 -14 -10 -25 0 -27 -15 -5 -28 11 -6 13 -12 6 -16 -6
-4 -8 -14 -5 -23 4 -9 2 -14 -3 -11 -5 4 -9 -7 -9 -23 l0 -30 122 2 121 1 7
35 c7 41 -1 57 -11 19 -7 -29 -19 -34 -27 -12 -4 9 1 17 11 19 12 3 3 10 -25
22 -39 16 -41 19 -25 31 16 12 15 13 -8 14 -19 1 -21 3 -9 8 22 9 6 57 -16 48
-10 -3 -15 1 -15 13 0 11 5 21 10 23 7 2 7 19 2 48 l-9 46 36 -4 c34 -3 35 -2
17 12 -11 9 -34 19 -52 22 -29 5 -33 10 -36 43 l-3 36 -8 -40z m23 -81 c0 -8
4 -13 9 -10 4 3 6 -7 2 -22 -5 -25 -6 -25 -9 -4 -2 12 -7 22 -11 22 -4 0 -7 9
-8 20 -1 11 2 18 8 15 5 -4 9 -13 9 -21z m-9 -104 c5 0 9 -15 9 -32 l0 -33
-15 29 c-8 15 -14 47 -13 70 l1 41 4 -37 c2 -21 8 -38 14 -38z"/>
<path d="M2540 400 c0 -3 -4 -20 -9 -38 -11 -38 -9 -40 12 -9 10 15 12 29 6
38 -5 8 -9 12 -9 9z"/>
<path d="M537 353 c-14 -14 -15 -19 -3 -32 8 -9 16 -27 18 -40 2 -19 -3 -26
-22 -32 l-25 -7 26 -1 c22 -1 25 -5 27 -43 3 -45 19 -106 33 -123 4 -6 7 -21
6 -33 -1 -16 -8 -22 -24 -22 -13 0 -23 -4 -23 -10 0 -6 45 -10 116 -10 127 0
132 5 59 50 -46 29 -102 104 -126 172 -12 32 -26 58 -31 58 -5 0 -7 9 -3 19 3
11 1 22 -5 26 -6 4 -8 15 -5 26 8 23 4 24 -18 2z"/>
<path d="M1996 335 c4 -8 12 -15 20 -15 20 0 17 7 -6 20 -16 9 -18 8 -14 -5z"/>
<path d="M2530 279 c-8 -15 -8 -24 0 -34 7 -9 9 -30 5 -57 -7 -43 -6 -44 30
-57 70 -25 94 -73 58 -113 -15 -17 -15 -18 5 -18 21 0 21 4 21 143 l0 143 -54
-1 c-29 0 -51 3 -49 7 3 5 3 8 0 8 -3 0 -10 -9 -16 -21z"/>
<path d="M2180 226 c0 -2 7 -7 16 -10 8 -3 12 -2 9 4 -6 10 -25 14 -25 6z"/>
<path d="M2310 190 c20 -13 107 -13 115 0 4 6 -19 10 -62 10 -48 0 -63 -3 -53
-10z"/>
<path d="M2113 113 c9 -9 19 -14 23 -11 10 10 -6 28 -24 28 -15 0 -15 -1 1
-17z"/>
<path d="M2070 106 c0 -2 7 -6 15 -10 8 -3 15 -1 15 4 0 6 -7 10 -15 10 -8 0
-15 -2 -15 -4z"/>
<path d="M2107 83 c-12 -11 -8 -23 8 -23 8 0 15 7 15 15 0 16 -12 20 -23 8z"/>
<path d="M1825 53 c-51 -5 -85 -22 -78 -39 6 -16 49 -19 58 -4 4 6 12 7 18 3
16 -10 67 -12 67 -3 0 11 -30 21 -41 14 -16 -10 -9 9 9 22 9 7 15 13 12 12 -3
-1 -23 -3 -45 -5z"/>
<path d="M836 31 c-22 -24 -20 -31 9 -31 18 0 25 5 25 19 0 28 -15 33 -34 12z"/>
<path d="M1933 31 c-7 -10 -9 -22 -6 -25 6 -6 32 23 33 37 0 14 -15 7 -27 -12z"/>
<path d="M970 30 c-13 -8 -12 -10 3 -10 9 0 17 5 17 10 0 12 -1 12 -20 0z"/>
<path d="M2105 30 c3 -5 8 -10 11 -10 2 0 4 5 4 10 0 6 -5 10 -11 10 -5 0 -7
-4 -4 -10z"/>
<path d="M2130 34 c0 -17 18 -36 30 -32 7 2 4 10 -9 22 -12 11 -21 15 -21 10z"/>
<path d="M1995 10 c3 -5 8 -10 11 -10 2 0 4 5 4 10 0 6 -5 10 -11 10 -5 0 -7
-4 -4 -10z"/>
</g>
</svg>
