<?xml version="1.0" standalone="no"?>
<!DOCTYPE svg PUBLIC "-//W3C//DTD SVG 20010904//EN"
 "http://www.w3.org/TR/2001/REC-SVG-20010904/DTD/svg10.dtd">
<svg version="1.0" xmlns="http://www.w3.org/2000/svg"
 width="612.000000pt" height="408.000000pt" viewBox="0 0 612.000000 408.000000"
 preserveAspectRatio="xMidYMid meet">

<g transform="translate(0.000000,408.000000) scale(0.100000,-0.100000)"
fill="#000000" stroke="none">
<path d="M5036 3801 c-48 -7 -86 -36 -86 -66 0 -7 -20 -25 -43 -38 -51 -30
-108 -91 -135 -144 -11 -21 -20 -41 -21 -46 0 -4 -8 -24 -17 -45 -23 -54 -51
-159 -58 -217 l-6 -50 15 40 c9 22 23 74 32 115 32 152 101 263 207 334 34 23
46 25 90 20 102 -14 149 -50 159 -125 3 -24 9 -59 13 -76 l7 -33 -52 0 c-38 0
-53 -4 -58 -16 -8 -22 11 -37 52 -38 20 -1 40 -7 44 -15 11 -17 2 -51 -13 -52
-24 -3 -52 3 -64 14 -9 7 -16 7 -23 0 -22 -22 -3 -49 60 -82 l64 -33 -6 -58
c-4 -32 -17 -78 -30 -103 -14 -26 -27 -73 -31 -111 l-8 -65 -61 -31 c-33 -17
-78 -33 -99 -37 -21 -3 -40 -9 -43 -13 -2 -3 14 -28 36 -55 22 -26 37 -50 34
-53 -13 -14 49 -40 82 -35 51 9 62 -14 59 -113 -2 -45 -6 -86 -10 -93 -4 -6
-2 -11 5 -11 8 0 10 -11 6 -35 -3 -19 -2 -37 3 -40 4 -3 6 -13 4 -23 -3 -10
14 -36 41 -67 38 -40 48 -47 56 -35 8 12 9 11 5 -5 -4 -15 11 -43 55 -100 125
-164 227 -285 239 -285 5 0 14 9 20 21 6 11 35 35 64 54 76 48 136 125 134
171 0 10 4 47 9 82 8 48 7 62 -2 58 -8 -3 -23 23 -40 67 -16 40 -31 74 -34 77
-4 3 -21 24 -39 46 -34 45 -45 72 -13 36 29 -34 34 -26 8 16 -23 38 -60 113
-117 237 -61 131 -100 250 -121 365 -12 63 -24 122 -27 130 -3 8 -6 20 -6 25
-1 6 -5 39 -10 75 -5 36 -12 74 -17 85 -12 31 1 -123 16 -180 15 -57 26 -144
29 -225 2 -30 8 -64 14 -75 6 -11 18 -49 27 -85 10 -36 26 -78 37 -93 11 -16
17 -31 14 -35 -4 -3 -12 0 -17 8 -8 11 -9 4 -4 -25 4 -22 11 -44 16 -50 5 -5
9 -16 9 -24 0 -15 26 -69 65 -136 13 -22 31 -53 41 -70 9 -16 29 -48 43 -70
25 -40 61 -128 61 -152 0 -27 -40 22 -46 57 -4 19 -13 44 -20 55 -8 11 -14 26
-14 33 0 16 -84 158 -111 187 -21 24 -69 124 -69 146 0 13 -30 120 -47 169 -3
8 -6 29 -8 45 -18 208 -49 429 -76 545 -26 111 -61 224 -71 228 -4 2 -8 15 -8
28 0 30 23 31 51 3 16 -16 23 -18 35 -8 13 10 12 14 -2 30 -9 10 -35 25 -58
33 -71 24 -148 46 -160 45 -6 -1 -33 -5 -60 -8z m194 -176 c17 -49 35 -109 40
-131 13 -61 22 -343 10 -324 -5 8 -10 29 -11 45 -1 29 -1 30 -9 5 -7 -21 -8
-18 -9 20 -3 80 -28 243 -49 315 -11 39 -23 97 -27 130 -6 54 -6 58 8 45 8 -8
29 -55 47 -105z m318 -1426 c-2 -31 -11 -63 -19 -71 -12 -13 -14 -2 -14 79 0
93 0 94 19 71 14 -18 17 -35 14 -79z m-108 46 c0 -8 -4 -17 -10 -20 -6 -4 -10
5 -10 20 0 15 4 24 10 20 6 -3 10 -12 10 -20z m160 -56 c0 -14 -3 -29 -7 -33
-10 -9 -35 93 -26 107 9 14 32 -38 33 -74z m19 -23 c-9 -8 -10 -5 -6 13 3 14
1 31 -5 39 -9 10 -8 16 3 22 11 8 15 2 17 -27 2 -19 -2 -41 -9 -47z m25 -30
c-3 -15 -8 -25 -11 -23 -2 3 -1 17 3 31 3 15 8 25 11 23 2 -3 1 -17 -3 -31z"/>
<path d="M5250 3701 c0 -5 7 -15 17 -22 15 -13 15 -12 4 9 -12 23 -21 28 -21
13z"/>
<path d="M5351 3640 c0 -8 4 -24 9 -35 l9 -20 0 20 c0 11 -4 27 -9 35 -9 13
-10 13 -9 0z"/>
<path d="M4833 3473 c-23 -9 -13 -22 22 -29 47 -8 72 1 55 21 -12 15 -52 19
-77 8z"/>
<path d="M4837 3359 c-68 -20 -77 -27 -57 -39 35 -23 130 3 130 35 0 22 -11
23 -73 4z"/>
<path d="M5470 3326 c0 -8 5 -18 10 -21 6 -3 10 1 10 9 0 8 -4 18 -10 21 -5 3
-10 -1 -10 -9z"/>
<path d="M5495 3235 c9 -76 23 -110 55 -139 36 -31 40 -32 33 -6 -3 11 -8 20
-12 20 -3 0 -7 17 -8 37 -1 20 -9 43 -18 52 -15 15 -16 15 -9 -1 3 -11 1 -18
-5 -18 -6 0 -11 8 -11 19 0 10 -7 34 -15 52 l-16 34 6 -50z"/>
<path d="M4900 3219 c0 -5 5 -7 10 -4 6 3 10 8 10 11 0 2 -4 4 -10 4 -5 0 -10
-5 -10 -11z"/>
<path d="M4970 3220 c0 -5 9 -14 20 -20 17 -9 20 -8 20 10 0 13 -7 20 -20 20
-11 0 -20 -4 -20 -10z"/>
<path d="M3770 3180 c0 -5 5 -10 11 -10 5 0 7 5 4 10 -3 6 -8 10 -11 10 -2 0
-4 -4 -4 -10z"/>
<path d="M3845 3169 c-4 -6 -5 -12 -2 -15 2 -3 7 2 10 11 7 17 1 20 -8 4z"/>
<path d="M4657 3113 c-4 -38 -7 -99 -7 -136 0 -59 3 -71 23 -88 12 -10 32 -18
43 -19 24 0 34 -18 34 -59 0 -15 7 -36 15 -47 13 -17 14 -14 15 37 0 52 -3 58
-36 89 -52 47 -64 84 -64 195 0 52 -4 95 -9 95 -4 0 -11 -30 -14 -67z"/>
<path d="M3811 3153 c7 -10 15 -20 16 -22 2 -2 3 5 3 17 0 14 -6 22 -16 22
-14 0 -15 -3 -3 -17z"/>
<path d="M3785 3115 c2 -19 0 -35 -5 -35 -6 0 -10 -4 -10 -9 0 -6 12 -9 27 -8
22 2 29 -3 31 -19 2 -14 -3 -23 -15 -26 -10 -3 -19 -15 -20 -27 -2 -22 -1 -22
23 -6 14 9 33 13 43 10 16 -5 20 1 23 32 5 39 4 41 -51 73 -26 15 -31 21 -31
40 0 6 -4 10 -10 10 -5 0 -8 -15 -5 -35z"/>
<path d="M4946 3121 c-3 -4 10 -15 29 -24 19 -9 35 -21 35 -25 0 -9 44 -32 60
-32 6 0 10 7 10 15 0 8 -5 15 -11 15 -6 0 -23 9 -39 20 -36 26 -78 41 -84 31z"/>
<path d="M5441 3114 c0 -11 3 -14 6 -6 3 7 2 16 -1 19 -3 4 -6 -2 -5 -13z"/>
<path d="M4833 3098 c-13 -6 -23 -15 -23 -20 0 -15 27 -8 45 12 20 22 12 25
-22 8z"/>
<path d="M3980 3010 l-25 -18 27 -7 c33 -8 79 -3 79 10 0 6 -12 15 -28 22 -24
9 -33 8 -53 -7z"/>
<path d="M5478 2985 c2 -14 8 -25 12 -25 10 0 1 38 -10 45 -4 2 -5 -7 -2 -20z"/>
<path d="M3853 2940 c-18 -17 -33 -39 -33 -48 1 -16 1 -16 11 1 5 9 17 17 24
17 8 0 15 7 15 16 0 12 6 15 23 10 12 -3 27 -6 33 -6 5 0 20 -9 33 -21 16 -15
25 -18 34 -10 7 5 32 13 55 17 23 4 42 10 42 14 0 19 -32 28 -115 34 l-90 7
-32 -31z"/>
<path d="M3109 2816 c6 -7 24 -16 39 -19 15 -3 36 -9 46 -13 14 -5 17 -4 12 4
-4 8 0 12 11 13 10 0 -9 7 -42 14 -77 18 -80 18 -66 1z"/>
<path d="M2988 2776 c-14 -14 -28 -22 -31 -19 -3 3 -11 2 -18 -3 -9 -5 -9 -10
2 -18 8 -6 23 -22 33 -36 10 -14 16 -18 13 -9 -3 9 1 16 9 16 7 0 10 -5 7 -11
-3 -6 0 -5 7 1 11 10 18 9 34 -5 12 -11 10 -3 -8 20 -15 20 -33 39 -39 41 -7
2 -9 7 -6 11 4 4 19 -4 34 -18 31 -28 44 -33 41 -13 -3 23 -17 37 -37 37 -21
0 -26 16 -6 23 6 3 7 6 2 6 -6 1 -22 -10 -37 -23z"/>
<path d="M3241 2796 c2 -2 15 -9 29 -15 24 -11 24 -11 6 3 -16 13 -49 24 -35
12z"/>
<path d="M3058 2783 c7 -3 16 -2 19 1 4 3 -2 6 -13 5 -11 0 -14 -3 -6 -6z"/>
<path d="M3100 2780 c-8 -5 -11 -13 -6 -17 5 -4 11 -2 13 5 3 6 10 9 15 6 7
-4 8 -2 4 4 -9 14 -7 14 -26 2z"/>
<path d="M3140 2765 c0 -2 10 -10 23 -16 20 -11 21 -11 8 4 -13 16 -31 23 -31
12z"/>
<path d="M2810 2720 c0 -5 -5 -10 -11 -10 -13 0 -65 -40 -61 -47 6 -8 -53 -53
-64 -49 -6 2 -34 -20 -63 -50 -29 -30 -50 -54 -46 -54 3 0 -1 -13 -10 -30 -23
-44 -45 -175 -44 -255 l2 -70 7 60 c3 33 12 69 18 80 9 16 10 8 7 -40 -25
-297 -45 -644 -38 -654 2 -2 3 4 4 15 0 10 10 -15 23 -56 12 -41 34 -94 49
-117 15 -24 27 -47 27 -52 0 -18 18 -21 33 -6 14 13 16 12 22 -15 8 -34 25
-50 26 -23 0 10 3 13 6 6 2 -7 10 -13 18 -13 20 0 37 -27 31 -48 -5 -16 -22
-22 -80 -31 -77 -11 -137 -29 -102 -30 17 -1 17 -3 -4 -21 -13 -11 -40 -25
-62 -30 -49 -14 -48 -33 3 -53 36 -14 40 -19 29 -32 -7 -8 -18 -15 -24 -15 -6
0 -19 -9 -29 -20 -9 -11 -22 -20 -28 -20 -7 0 0 9 15 21 25 19 38 47 15 34 -5
-4 -21 -4 -35 -1 -19 5 -24 13 -24 36 0 17 -4 30 -10 30 -5 0 -10 -4 -10 -8 0
-12 -46 -32 -73 -32 -12 0 -38 -6 -57 -13 -34 -12 -35 -14 -36 -64 -1 -32 2
-50 8 -47 5 4 20 2 31 -4 48 -23 93 -32 158 -32 67 0 69 1 69 25 0 18 5 25 20
25 14 0 20 -7 20 -22 0 -23 1 -22 13 2 8 15 21 25 35 25 13 0 26 6 30 12 4 6
24 14 45 18 28 6 42 15 53 37 8 16 30 36 47 43 18 7 39 22 48 32 9 10 24 23
33 28 13 7 17 20 14 45 l-3 35 -18 -32 c-17 -32 -63 -70 -72 -61 -10 9 72 153
114 200 44 49 62 58 41 19 -8 -16 -8 -21 1 -21 7 0 10 -3 6 -6 -3 -3 3 -28 14
-55 31 -79 28 -87 -56 -152 -41 -32 -75 -62 -75 -67 0 -11 20 -14 58 -11 14 1
25 -5 29 -16 4 -10 15 -26 26 -35 18 -16 18 -18 3 -24 -9 -3 -16 -12 -16 -20
0 -8 -5 -14 -11 -14 -5 0 -7 -5 -4 -11 5 -7 -3 -9 -21 -7 -16 2 -27 8 -24 13
3 6 8 9 13 7 15 -5 6 14 -21 43 -51 55 -55 57 -85 30 -17 -14 -24 -26 -18 -30
6 -3 11 -2 11 3 0 6 14 9 31 8 35 -3 62 -31 54 -57 -3 -9 1 -22 10 -29 20 -17
20 -58 0 -56 -17 1 -34 -27 -90 -148 -32 -67 -36 -86 -31 -125 17 -140 34
-182 56 -141 8 14 10 56 6 123 -3 77 -1 106 9 117 7 8 25 45 39 82 24 65 67
132 149 231 30 36 37 51 28 60 -8 8 -11 8 -11 -2 0 -12 -29 -47 -33 -40 -1 2
-8 14 -14 26 -19 34 -8 50 33 45 20 -3 38 -11 41 -18 6 -17 30 0 118 85 68 66
101 87 107 69 5 -15 69 -13 79 4 4 7 11 9 15 6 4 -4 -1 -19 -10 -34 -10 -14
-15 -28 -12 -32 12 -11 39 27 40 56 1 17 4 28 7 26 11 -6 32 79 34 136 2 47 1
51 -8 28 -9 -23 -20 -28 -96 -44 -82 -17 -110 -30 -211 -94 -25 -16 -50 -29
-57 -29 -6 -1 -28 33 -49 75 -47 95 -41 104 52 75 37 -11 72 -21 77 -21 6 0
27 17 47 38 50 51 110 92 142 99 15 3 30 14 33 24 4 11 10 19 14 19 5 0 12 19
17 43 l8 42 4 -45 5 -45 11 55 c6 30 15 54 21 52 5 -2 13 5 17 15 6 15 7 13 6
-7 -2 -52 2 -91 11 -86 4 3 14 26 21 51 20 70 30 70 45 1 5 -22 9 -26 18 -17
23 23 47 15 103 -36 13 -12 24 -18 24 -13 0 5 -14 20 -32 34 -41 32 -33 41 15
16 65 -35 40 -14 -55 46 -51 32 -97 64 -101 71 -4 7 -15 13 -23 13 -8 0 -12
-4 -9 -10 3 -5 2 -10 -3 -10 -4 0 -15 14 -23 32 -18 41 -39 48 -39 14 0 -16
-6 -26 -14 -26 -8 0 -25 -19 -39 -42 -55 -93 -234 -228 -303 -228 -33 0 -93
-26 -115 -48 -22 -24 -58 -28 -124 -12 -48 11 -60 28 -92 123 -13 40 -42 110
-64 156 -36 75 -40 91 -40 160 1 42 0 86 0 99 -1 13 20 59 45 103 26 44 44 84
41 89 -3 4 -23 11 -45 15 -22 4 -37 11 -34 16 3 5 13 8 21 7 27 -5 26 21 -1
28 -26 6 -26 6 -20 88 10 139 50 221 126 260 18 9 47 25 64 35 20 12 36 16 45
10 29 -18 40 -10 37 29 -2 30 -7 37 -25 38 -13 1 -23 -3 -23 -9 0 -6 -3 -8 -6
-5 -3 4 -1 16 6 27 9 17 8 21 -5 21 -8 0 -15 -4 -15 -10z m-61 -1513 c-13 -11
-23 -25 -21 -31 2 -6 -4 -3 -14 6 -14 14 -15 19 -3 31 18 17 41 26 53 19 5 -3
-2 -14 -15 -25z m-69 -47 c0 -5 -5 -10 -11 -10 -5 0 -7 5 -4 10 3 6 8 10 11
10 2 0 4 -4 4 -10z m-75 -89 c3 -5 1 -12 -5 -16 -5 -3 -10 1 -10 9 0 18 6 21
15 7z"/>
<path d="M4558 2538 c5 -5 16 -8 23 -6 8 3 3 7 -10 11 -17 4 -21 3 -13 -5z"/>
<path d="M4610 2526 c0 -2 9 -6 20 -9 11 -3 20 -1 20 4 0 5 -9 9 -20 9 -11 0
-20 -2 -20 -4z"/>
<path d="M4462 2465 c1 -9 8 -16 13 -17 6 -1 15 -7 21 -15 9 -13 12 -13 22 0
14 17 3 30 -36 42 -19 5 -23 4 -20 -10z"/>
<path d="M4540 2432 c0 -4 9 -15 19 -24 17 -14 22 -14 31 -3 9 11 7 16 -9 24
-23 13 -41 14 -41 3z"/>
<path d="M4616 2355 c-4 -25 -4 -50 -1 -55 4 -6 2 -16 -3 -23 -5 -7 -13 -31
-17 -55 -4 -23 -22 -72 -41 -107 -19 -36 -30 -65 -24 -65 18 0 10 -18 -11 -23
-12 -3 -18 -10 -15 -15 3 -6 -19 -27 -50 -47 -30 -20 -59 -48 -65 -62 -5 -14
-25 -44 -44 -67 -19 -24 -35 -46 -35 -50 0 -3 12 -6 26 -6 14 0 23 -4 19 -10
-3 -5 -12 -7 -19 -4 -7 3 -18 -1 -24 -9 -9 -11 -7 -18 11 -33 26 -22 127 -74
143 -74 6 0 26 -14 45 -31 39 -36 37 -36 -57 10 -38 19 -77 38 -86 42 -10 5
-20 4 -23 -1 -3 -6 -11 -10 -16 -10 -6 0 -8 3 -6 8 3 4 -7 8 -21 9 -15 2 -38
4 -52 5 -21 3 -25 -1 -22 -22 16 -141 18 -238 7 -307 -7 -43 -12 -78 -11 -78
0 0 15 -10 33 -23 18 -12 37 -22 44 -22 22 0 78 -82 79 -116 0 -15 24 -37 86
-78 80 -53 88 -57 117 -47 39 14 49 5 11 -9 l-29 -11 29 -17 c15 -9 70 -75
120 -147 73 -103 102 -154 138 -245 48 -121 55 -159 63 -332 3 -59 10 -119 15
-133 6 -15 10 -42 10 -61 l0 -34 430 0 c475 0 444 -5 414 66 -9 22 -29 84 -45
139 -31 107 -75 228 -114 313 -14 29 -25 68 -25 87 0 18 -5 37 -10 40 -6 4
-20 25 -32 48 -17 34 -21 61 -22 145 -1 95 0 105 21 124 13 12 23 26 23 32 0
6 -5 5 -12 -2 -21 -21 -25 -14 -31 51 -6 61 -8 63 -85 144 -131 138 -241 333
-367 653 -89 228 -96 243 -122 279 -14 18 -40 39 -57 46 -29 13 -31 12 -36 -8
-6 -22 -30 -33 -55 -23 -11 4 -12 12 -4 38 9 32 7 35 -90 131 l-99 98 -6 -46z
m-18 -312 c-10 -2 -26 -2 -35 0 -10 3 -2 5 17 5 19 0 27 -2 18 -5z"/>
<path d="M2860 2354 c-42 -18 -70 -42 -70 -61 0 -8 8 -13 17 -11 14 2 20 -10
31 -59 l14 -63 51 4 c29 2 66 11 82 20 17 9 41 16 54 16 18 0 22 4 17 18 -12
29 -49 79 -60 80 -6 0 -22 3 -36 7 -14 3 -38 6 -54 6 -26 0 -27 2 -14 15 8 8
34 16 57 17 37 1 40 3 25 14 -23 17 -71 16 -114 -3z m46 -149 c-1 -14 -6 -28
-9 -31 -9 -10 -20 23 -13 41 9 24 25 17 22 -10z m92 13 c-3 -7 -12 -14 -21
-16 -12 -2 -15 1 -11 12 7 19 38 22 32 4z"/>
<path d="M3720 2317 c0 -3 18 -20 40 -37 22 -17 40 -29 40 -27 0 3 -18 20 -40
37 -22 17 -40 29 -40 27z"/>
<path d="M5671 2254 c0 -11 3 -14 6 -6 3 7 2 16 -1 19 -3 4 -6 -2 -5 -13z"/>
<path d="M3800 2221 c0 -5 5 -13 10 -16 6 -3 10 -2 10 4 0 5 -4 13 -10 16 -5
3 -10 2 -10 -4z"/>
<path d="M4355 2160 c-23 -26 -8 -26 25 0 18 14 21 20 9 20 -9 0 -24 -9 -34
-20z"/>
<path d="M4374 2113 c-1 -10 -5 -27 -9 -38 -8 -18 -7 -18 8 -6 9 7 17 24 17
37 0 27 -15 33 -16 7z"/>
<path d="M4138 1983 c7 -3 16 -2 19 1 4 3 -2 6 -13 5 -11 0 -14 -3 -6 -6z"/>
<path d="M2676 1941 c5 -5 27 -11 49 -15 39 -6 39 -6 15 8 -27 16 -81 22 -64
7z"/>
<path d="M3740 1926 c0 -2 8 -10 18 -17 15 -13 16 -12 3 4 -13 16 -21 21 -21
13z"/>
<path d="M2640 1906 c0 -2 7 -6 15 -10 8 -3 15 -1 15 4 0 6 -7 10 -15 10 -8 0
-15 -2 -15 -4z"/>
<path d="M2698 1788 c-17 -22 -23 -39 -18 -52 6 -18 7 -18 13 -2 4 9 11 15 16
12 5 -4 31 3 58 15 37 16 60 19 103 14 66 -7 96 7 66 30 -23 17 -40 20 -31 5
7 -12 -50 -12 -80 -1 -11 4 -35 4 -55 0 -21 -5 -37 -4 -41 2 -3 6 -17 -5 -31
-23z"/>
<path d="M2740 1692 l-25 -25 30 7 c17 4 36 13 43 20 11 11 10 14 -5 18 -10 2
-29 -7 -43 -20z"/>
<path d="M3412 1650 c0 -19 2 -27 5 -17 2 9 2 25 0 35 -3 9 -5 1 -5 -18z"/>
<path d="M5957 1629 c55 -27 63 -34 69 -65 3 -19 4 -48 0 -64 -6 -35 7 -39 44
-13 42 29 50 40 50 72 0 38 -21 53 -121 80 -103 29 -116 26 -42 -10z"/>
<path d="M3501 1624 c0 -11 3 -14 6 -6 3 7 2 16 -1 19 -3 4 -6 -2 -5 -13z"/>
<path d="M3522 1595 c0 -16 2 -22 5 -12 2 9 2 23 0 30 -3 6 -5 -1 -5 -18z"/>
<path d="M3690 1565 c7 -8 17 -15 22 -15 6 0 5 7 -2 15 -7 8 -17 15 -22 15 -6
0 -5 -7 2 -15z"/>
<path d="M3545 1415 c4 -16 8 -54 8 -84 0 -41 2 -49 9 -32 11 31 3 120 -12
134 -10 10 -11 6 -5 -18z"/>
<path d="M3800 1382 c6 -13 14 -21 18 -18 3 4 -2 14 -12 24 -18 16 -18 16 -6
-6z"/>
<path d="M4256 1203 c-14 -14 -4 -31 36 -57 25 -16 45 -23 50 -18 6 6 6 12 -1
16 -6 4 -11 12 -11 18 0 6 7 5 17 -3 15 -13 15 -12 2 8 -9 15 -16 18 -21 10
-5 -8 -12 -7 -25 4 -26 23 -39 29 -47 22z"/>
<path d="M2310 1146 c0 -2 9 -6 20 -9 11 -3 18 -1 14 4 -5 9 -34 13 -34 5z"/>
<path d="M0 1132 c0 -5 7 -13 16 -16 10 -4 14 -1 12 6 -5 15 -28 23 -28 10z"/>
<path d="M4222 963 c-21 -32 -52 -83 -69 -113 -17 -30 -53 -91 -80 -135 -28
-44 -68 -110 -89 -147 -21 -37 -45 -68 -52 -68 -7 0 -16 -10 -21 -23 -5 -13
-16 -29 -25 -36 -9 -7 -16 -22 -16 -32 0 -10 -9 -23 -20 -29 -14 -7 -20 -21
-20 -45 0 -34 -13 -54 -24 -36 -7 11 -46 2 -46 -10 0 -5 -9 -9 -19 -9 -11 0
-23 -4 -26 -10 -3 -5 -17 -10 -31 -10 -13 0 -24 -5 -24 -11 0 -5 4 -8 9 -5 5
4 7 -3 4 -14 -6 -24 -11 -25 -35 -3 -25 22 -23 2 2 -23 59 -57 70 -69 70 -76
0 -15 -32 -8 -57 12 -36 28 -87 26 -134 -7 -47 -34 -48 -37 -37 -90 l9 -43
612 0 613 0 17 29 c22 38 14 57 -37 83 -56 29 -207 79 -217 72 -8 -5 -56 9
-159 45 -25 8 -51 14 -57 13 -7 -2 -13 2 -13 8 0 6 -4 9 -9 5 -14 -8 -145 38
-186 66 -47 33 -47 65 0 85 20 8 58 28 85 45 27 17 67 35 87 41 21 5 45 16 53
22 8 7 31 19 50 27 19 7 54 24 77 37 37 21 41 26 30 42 -14 24 -35 32 -165 69
-63 17 -112 37 -127 51 -14 13 -23 25 -21 27 1 2 27 -8 57 -21 58 -27 160 -56
194 -56 18 1 18 2 3 11 -9 5 -15 16 -12 24 4 8 -1 18 -10 21 -22 8 -20 21 4
27 14 4 31 -5 55 -29 31 -30 38 -33 58 -23 12 7 27 20 34 29 6 9 36 27 67 40
31 13 56 26 56 30 0 14 -128 55 -207 67 -26 4 -34 0 -49 -22 -15 -23 -22 -26
-50 -20 -22 4 -42 1 -56 -8 -13 -8 -41 -18 -63 -22 -22 -4 -47 -12 -55 -18 -8
-6 13 17 47 51 57 58 64 62 107 62 51 0 50 -1 35 53 -7 26 -18 41 -35 47 -39
15 -41 14 -82 -47z m-340 -628 c-5 -16 -11 -25 -14 -20 -6 11 10 61 17 53 2
-2 1 -17 -3 -33z m-26 -72 c-4 -21 -14 -63 -23 -93 -15 -53 -16 -54 -24 -27
-4 16 -4 40 2 54 5 13 9 36 9 50 0 21 22 51 39 53 2 0 0 -17 -3 -37z"/>
<path d="M2672 978 c2 -6 10 -14 16 -16 7 -2 10 2 6 12 -7 18 -28 22 -22 4z"/>
<path d="M2560 955 c0 -8 9 -10 25 -7 14 2 25 6 25 7 0 1 -11 5 -25 7 -16 3
-25 1 -25 -7z"/>
<path d="M3220 946 c0 -29 -17 -44 -22 -20 -3 14 -5 13 -21 -3 -49 -51 -55
-62 -49 -111 6 -58 7 -60 32 -37 14 12 20 31 20 59 0 23 4 47 8 53 4 7 6 -18
4 -55 -2 -37 -7 -71 -12 -75 -15 -17 3 -56 32 -69 19 -9 27 -18 24 -30 -5 -22
74 -63 103 -53 26 8 38 64 20 96 -7 13 -12 31 -11 39 2 8 -13 -2 -33 -23 -20
-21 -41 -37 -46 -35 -5 2 0 13 11 26 20 21 19 49 -1 37 -5 -4 -9 3 -9 14 0 14
5 19 15 15 10 -4 15 0 15 14 0 24 -35 104 -42 97 -3 -3 -3 7 -1 22 4 23 2 25
-7 13 -9 -12 -11 -8 -6 18 4 24 2 32 -9 32 -9 0 -15 -10 -15 -24z m16 -83
c-11 -11 -17 4 -9 23 7 18 8 18 11 1 2 -10 1 -21 -2 -24z m-89 -35 c-3 -8 -6
-5 -6 6 -1 11 2 17 5 13 3 -3 4 -12 1 -19z"/>
<path d="M2609 923 c-1 -5 -1 -10 -1 -14 0 -3 -8 -10 -19 -17 -14 -9 -19 -9
-19 -1 0 7 -9 0 -20 -14 -26 -32 -25 -38 3 -33 12 3 27 5 34 5 6 1 17 16 24
34 7 17 14 35 17 40 2 4 -1 7 -7 7 -6 0 -12 -3 -12 -7z"/>
<path d="M1880 899 c0 -5 5 -7 10 -4 6 3 10 8 10 11 0 2 -4 4 -10 4 -5 0 -10
-5 -10 -11z"/>
<path d="M1802 881 c-19 -10 -33 -21 -32 -25 1 -5 -9 -14 -22 -21 -13 -6 -22
-16 -21 -22 1 -6 -9 -16 -22 -23 -14 -7 -25 -18 -25 -24 -1 -17 -56 -73 -79
-81 -12 -3 -21 -12 -21 -18 0 -7 -8 -20 -17 -29 -10 -9 -22 -22 -28 -27 -5 -6
-38 -37 -72 -69 -35 -33 -63 -63 -63 -67 0 -7 79 -2 192 12 44 5 46 4 45 -20
-2 -22 -8 -26 -49 -31 -27 -4 -48 -9 -48 -12 0 -3 9 -15 21 -27 l20 -22 -23
-3 c-23 -3 -24 -5 -17 -61 3 -33 10 -65 14 -72 6 -9 3 -10 -11 -4 -10 4 -30 9
-44 10 -47 4 -50 5 -50 22 0 9 -3 13 -7 10 -3 -4 -11 -2 -18 3 -6 5 -26 11
-43 12 -23 2 -31 6 -27 16 8 22 -36 10 -49 -13 -6 -11 -14 -22 -18 -25 -3 -3
-8 -11 -10 -19 -2 -7 -25 -37 -53 -65 l-50 -51 50 -8 c28 -5 69 -9 92 -10 34
-2 52 -11 100 -52 32 -27 60 -53 61 -57 2 -5 39 -8 81 -8 l78 0 45 97 c70 148
130 283 132 296 8 41 68 149 86 154 20 5 28 23 11 23 -5 0 -8 12 -6 28 2 15 4
27 5 27 7 0 7 132 -1 141 -5 7 -12 34 -16 61 -8 74 -15 66 -12 -15 2 -79 -5
-102 -16 -50 -4 18 -12 39 -17 46 -6 7 -8 30 -4 52 7 44 5 45 -42 21z m5 -47
c-3 -3 -12 -4 -19 -1 -8 3 -5 6 6 6 11 1 17 -2 13 -5z m-114 -386 c-2 -5 -10
-8 -17 -8 -8 0 -11 10 -8 31 4 30 5 30 17 7 6 -13 10 -26 8 -30z m-359 -175
c4 -5 13 -8 19 -8 5 0 12 -6 15 -12 2 -9 -7 -13 -27 -13 -24 0 -31 4 -31 20 0
20 11 26 24 13z"/>
<path d="M4330 874 c0 -8 5 -12 10 -9 6 4 8 11 5 16 -9 14 -15 11 -15 -7z"/>
<path d="M1995 869 c-4 -6 -5 -12 -2 -15 2 -3 7 2 10 11 7 17 1 20 -8 4z"/>
<path d="M2075 871 c-3 -5 -1 -12 5 -16 5 -3 10 1 10 9 0 18 -6 21 -15 7z"/>
<path d="M2388 859 c-10 -5 -18 -14 -18 -19 0 -17 15 -11 28 10 14 23 13 23
-10 9z"/>
<path d="M2340 839 c0 -5 5 -7 10 -4 6 3 10 8 10 11 0 2 -4 4 -10 4 -5 0 -10
-5 -10 -11z"/>
<path d="M2477 833 c-4 -3 -7 -11 -7 -17 0 -6 5 -5 12 2 6 6 9 14 7 17 -3 3
-9 2 -12 -2z"/>
<path d="M3105 830 c-3 -5 -1 -10 4 -10 6 0 11 5 11 10 0 6 -2 10 -4 10 -3 0
-8 -4 -11 -10z"/>
<path d="M3111 784 c0 -11 3 -14 6 -6 3 7 2 16 -1 19 -3 4 -6 -2 -5 -13z"/>
<path d="M2316 771 c-3 -4 -8 -35 -11 -67 -4 -33 -8 -69 -11 -81 -7 -34 21
-29 56 10 37 40 37 47 1 47 -29 0 -30 1 -28 50 2 52 2 55 -7 41z"/>
<path d="M2417 766 c-4 -10 -5 -21 -2 -24 9 -9 17 6 13 25 -3 17 -4 17 -11 -1z"/>
<path d="M2570 736 c-30 -36 -39 -41 -67 -38 -18 2 -33 8 -33 12 0 4 -9 10
-20 13 -13 3 -20 0 -20 -8 0 -7 -6 -16 -12 -18 -7 -3 1 -3 18 0 20 3 36 0 45
-10 7 -7 21 -12 31 -9 24 6 23 -5 -5 -31 -13 -12 -16 -16 -7 -9 9 6 22 12 28
12 7 0 12 6 12 13 0 8 16 35 36 61 46 58 41 68 -6 12z"/>
<path d="M2450 755 c0 -8 6 -15 14 -15 7 0 19 7 26 15 11 13 8 15 -14 15 -16
0 -26 -5 -26 -15z"/>
<path d="M1941 734 c0 -11 3 -14 6 -6 3 7 2 16 -1 19 -3 4 -6 -2 -5 -13z"/>
<path d="M3816 711 c-28 -10 -45 -20 -39 -24 13 -8 73 11 91 30 17 16 9 16
-52 -6z"/>
<path d="M2397 713 c-9 -9 -9 -43 1 -43 4 0 7 11 7 25 0 14 0 25 -1 25 0 0 -4
-3 -7 -7z"/>
<path d="M3541 704 c0 -11 3 -14 6 -6 3 7 2 16 -1 19 -3 4 -6 -2 -5 -13z"/>
<path d="M3564 687 c-8 -22 -1 -30 21 -25 14 3 14 5 1 23 -14 19 -15 19 -22 2z"/>
<path d="M4461 671 c10 -29 40 -52 126 -97 22 -12 85 -54 140 -93 54 -39 100
-66 102 -60 1 5 -2 30 -8 54 -6 24 -11 61 -11 82 0 45 -20 88 -40 89 -26 1
-60 15 -60 25 0 15 -220 12 -221 -3 0 -7 -5 -3 -11 10 -16 32 -29 27 -17 -7z"/>
<path d="M3486 627 c-25 -46 -90 -110 -145 -141 -39 -22 -120 -91 -126 -107
-3 -9 -1 -27 3 -40 9 -23 9 -23 16 9 4 17 12 32 17 32 5 0 9 7 9 14 0 8 17 28
37 43 30 23 44 27 83 25 45 -3 48 -2 58 27 6 17 16 31 21 31 6 0 11 9 11 19 0
11 9 23 20 26 11 3 23 17 26 31 3 13 10 24 16 24 12 0 6 52 -7 57 -5 1 -23
-21 -39 -50z"/>
<path d="M3685 669 c6 -8 52 -31 87 -42 29 -10 29 9 0 23 -37 17 -93 30 -87
19z"/>
<path d="M2240 650 c0 -5 5 -10 11 -10 5 0 7 5 4 10 -3 6 -8 10 -11 10 -2 0
-4 -4 -4 -10z"/>
<path d="M3147 543 c-12 -11 -8 -25 6 -20 6 2 20 0 30 -5 19 -10 23 2 5 20
-13 13 -31 16 -41 5z"/>
<path d="M4420 523 c0 -9 -48 -33 -65 -33 -6 0 -10 -12 -9 -27 1 -26 4 -28 45
-29 37 -1 47 3 61 25 15 22 18 23 18 7 0 -11 2 -17 5 -15 2 3 2 22 -2 42 -5
31 -10 37 -29 37 -13 0 -24 -3 -24 -7z m5 -63 c3 -5 -1 -10 -9 -10 -9 0 -16 5
-16 10 0 6 4 10 9 10 6 0 13 -4 16 -10z"/>
<path d="M2403 467 c-5 -24 -10 -28 -29 -23 -27 7 -32 -11 -12 -44 10 -15 10
-22 0 -32 -10 -10 -15 -10 -22 2 -5 8 -12 11 -16 7 -4 -3 -2 -12 3 -19 9 -12
14 -76 18 -223 0 -27 2 -69 3 -92 l2 -43 466 0 466 0 -5 21 c-4 16 10 37 62
89 68 68 91 116 67 140 -13 13 -36 13 -36 -1 0 -5 -4 -7 -10 -4 -5 3 -10 1
-10 -4 0 -12 -29 -14 -55 -5 -14 6 -10 10 15 20 18 8 40 14 49 14 9 0 23 13
32 29 15 26 15 31 2 44 -13 13 -13 18 3 43 18 27 18 28 1 21 -10 -4 -30 -7
-43 -7 -17 0 -24 -6 -24 -19 0 -11 5 -23 10 -26 14 -8 1 -28 -14 -22 -14 6
-41 -13 -42 -30 -4 -46 -5 -49 -15 -28 -7 16 -8 11 -6 -19 2 -47 -18 -60 -28
-17 -12 56 -30 54 -33 -5 -2 -43 1 -54 13 -54 21 0 30 -27 15 -45 -17 -21 -28
-19 -32 7 -5 36 -24 31 -38 -12 -7 -22 -21 -47 -32 -56 -10 -10 -18 -23 -18
-31 0 -18 -35 -17 -50 2 -7 8 -16 12 -21 9 -5 -3 -9 0 -9 5 0 6 -7 11 -16 11
-10 0 -14 -6 -10 -15 8 -22 -17 -18 -34 5 -8 11 -21 20 -28 20 -10 0 -12 7 -8
26 l7 25 -22 -19 c-11 -11 -18 -25 -14 -31 3 -6 2 -11 -3 -11 -16 0 -22 13
-11 26 9 11 4 22 -20 49 -17 20 -31 42 -31 50 0 16 -12 20 -23 8 -30 -29 -149
1 -203 52 -34 33 -36 33 -30 10 7 -27 1 -29 -53 -19 -36 8 -40 19 -8 28 20 6
20 7 5 16 -14 9 -15 16 -8 36 13 34 13 34 -14 34 -34 0 -40 15 -20 45 15 23
13 30 -8 26 -5 0 -8 14 -8 32 0 29 -3 32 -31 32 -25 0 -31 -5 -36 -28z m127
-241 c-6 -6 -19 -5 -35 2 -37 17 -30 31 10 18 21 -7 31 -14 25 -20z"/>
<path d="M4518 460 c35 -32 62 -39 62 -16 0 20 -39 46 -70 46 l-25 -1 33 -29z"/>
<path d="M1558 463 c7 -3 16 -2 19 1 4 3 -2 6 -13 5 -11 0 -14 -3 -6 -6z"/>
<path d="M2916 461 c-3 -5 5 -11 19 -13 28 -6 34 6 9 16 -20 8 -22 8 -28 -3z"/>
<path d="M3326 441 c-11 -12 -17 -23 -15 -25 8 -8 41 23 37 34 -2 7 -11 3 -22
-9z"/>
<path d="M4183 407 c-21 -12 -19 -14 48 -56 39 -24 73 -40 76 -37 16 16 -57
106 -85 106 -9 -1 -27 -6 -39 -13z"/>
<path d="M2520 400 c-9 -6 -10 -10 -3 -10 6 0 15 5 18 10 8 12 4 12 -15 0z"/>
<path d="M4070 380 c0 -4 7 -11 16 -14 22 -9 26 -8 22 6 -5 13 -38 20 -38 8z"/>
<path d="M129 364 c-7 -9 -33 -14 -70 -14 l-59 0 0 -108 0 -108 128 4 c155 5
183 11 202 45 13 23 13 30 2 48 -9 14 -10 24 -4 28 6 3 13 27 17 53 9 57 12
55 -112 61 -71 3 -95 1 -104 -9z"/>
<path d="M1397 363 c-12 -11 -8 -23 7 -23 7 0 17 -10 21 -22 6 -19 8 -20 12
-6 5 19 -29 62 -40 51z"/>
<path d="M1475 311 c-3 -5 -1 -12 5 -16 5 -3 10 1 10 9 0 18 -6 21 -15 7z"/>
<path d="M3440 294 c0 -14 4 -23 10 -19 6 3 10 15 10 26 0 10 -4 19 -10 19 -5
0 -10 -12 -10 -26z"/>
<path d="M2046 254 c-22 -19 -34 -34 -28 -34 15 0 79 57 72 63 -3 3 -23 -10
-44 -29z"/>
<path d="M3127 239 c-8 -28 -3 -34 11 -16 6 7 7 19 3 26 -6 9 -10 6 -14 -10z"/>
<path d="M1845 239 c-4 -6 -5 -12 -2 -15 2 -3 7 2 10 11 7 17 1 20 -8 4z"/>
<path d="M3030 110 c0 -5 5 -10 11 -10 5 0 7 5 4 10 -3 6 -8 10 -11 10 -2 0
-4 -4 -4 -10z"/>
<path d="M4876 76 c-4 -24 -3 -43 3 -49 15 -15 22 11 12 53 l-7 35 -8 -39z"/>
<path d="M1126 35 c-24 -31 -25 -35 -9 -35 12 0 23 12 31 32 16 44 10 45 -22
3z"/>
<path d="M1196 45 c8 -19 14 -19 14 0 0 8 -4 15 -10 15 -5 0 -7 -7 -4 -15z"/>
<path d="M1716 29 c-13 -22 -14 -29 -4 -29 15 0 40 48 29 54 -4 3 -15 -8 -25
-25z"/>
<path d="M1270 35 c0 -15 18 -40 24 -34 3 3 -1 14 -9 25 -8 10 -14 15 -15 9z"/>
<path d="M3387 23 c-13 -12 -7 -23 13 -23 11 0 20 7 20 15 0 15 -21 21 -33 8z"/>
</g>
</svg>
